SplineFontDB: 3.0
FontName: Capriola-Regular
FullName: Capriola Regular
FamilyName: Capriola
Weight: Book
Copyright: Copyright (c) 2012, Sorkin Type Co (www.sorkintype.com) with Reserved Font Name "Capriola".
Version: 1.006
ItalicAngle: 0
UnderlinePosition: -103
UnderlineWidth: 102
Ascent: 1638
Descent: 410
LayerCount: 2
Layer: 0 1 "Back"  1
Layer: 1 1 "Fore"  0
XUID: [1021 631 1661839179 8333716]
FSType: 0
OS2Version: 3
OS2_WeightWidthSlopeOnly: 0
OS2_UseTypoMetrics: 1
CreationTime: 1338887520
ModificationTime: 1338873418
PfmFamily: 17
TTFWeight: 400
TTFWidth: 5
LineGap: 0
VLineGap: 0
Panose: 2 1 6 3 3 5 2 6 0 4
OS2TypoAscent: 354
OS2TypoAOffset: 1
OS2TypoDescent: -158
OS2TypoDOffset: 1
OS2TypoLinegap: 0
OS2WinAscent: 0
OS2WinAOffset: 1
OS2WinDescent: 0
OS2WinDOffset: 1
HheadAscent: 0
HheadAOffset: 1
HheadDescent: 0
HheadDOffset: 1
OS2SubXSize: 1434
OS2SubYSize: 1331
OS2SubXOff: 0
OS2SubYOff: 287
OS2SupXSize: 1434
OS2SupYSize: 1331
OS2SupXOff: 0
OS2SupYOff: 977
OS2StrikeYSize: 102
OS2StrikeYPos: 512
OS2Vendor: 'STC '
OS2CodePages: 20000093.00000000
OS2UnicodeRanges: a00000af.5000204a.00000000.00000000
DEI: 91125
TtTable: prep
MPPEM
PUSHW_1
 200
GT
IF
PUSHB_2
 1
 1
INSTCTRL
EIF
PUSHW_2
 2048
 2048
MUL
DUP
PUSHB_1
 1
SWAP
WCVTP
DUP
PUSHB_1
 3
SWAP
WCVTF
PUSHB_1
 21
RCVT
DUP
DUP
PUSHB_1
 40
ADD
FLOOR
DUP
ROLL
NEQ
IF
PUSHB_1
 2
CINDEX
SUB
PUSHB_1
 1
RCVT
MUL
SWAP
DIV
PUSHB_1
 2
SWAP
WCVTP
PUSHB_4
 10
 11
 3
 2
CALL
PUSHB_4
 12
 17
 3
 2
CALL
PUSHB_4
 18
 23
 3
 2
CALL
EIF
PUSHB_3
 4
 40
 7
RCVT
GT
WCVTP
PUSHB_4
 12
 17
 4
 2
CALL
PUSHW_1
 511
SCANCTRL
PUSHB_1
 4
SCANTYPE
PUSHB_2
 5
 0
WCVTP
EndTTInstrs
TtTable: fpgm
PUSHB_1
 0
FDEF
DUP
ABS
PUSHB_1
 32
ADD
FLOOR
SWAP
PUSHB_1
 0
LT
IF
NEG
EIF
ENDF
PUSHB_1
 1
FDEF
DUP
ABS
DUP
PUSHB_1
 192
LT
PUSHB_1
 4
MINDEX
AND
PUSHB_1
 4
RCVT
OR
IF
POP
SWAP
POP
ELSE
ROLL
IF
DUP
PUSHB_1
 80
LT
IF
POP
PUSHB_1
 64
EIF
ELSE
DUP
PUSHB_1
 56
LT
IF
POP
PUSHB_1
 56
EIF
EIF
DUP
PUSHB_1
 10
RCVT
SUB
ABS
PUSHB_1
 40
LT
IF
POP
PUSHB_1
 10
RCVT

StartChar: .notdef
Encoding: 65536 -1 0
Width: 1703
Flags: W
LayerCount: 2
Fore
SplineSet
291 0 m 2,0,1
 222 0 222 0 222 78 c 2,2,-1
 222 1454 l 2,3,4
 222 1533 222 1533 288 1533 c 2,5,-1
 1405 1533 l 2,6,7
 1481 1533 1481 1533 1481 1457 c 2,8,-1
 1481 76 l 2,9,10
 1481 0 1481 0 1405 0 c 2,11,-1
 291 0 l 2,0,1
500 366 m 2,12,13
 518 347 518 347 538.5 347 c 128,-1,14
 559 347 559 347 579 368 c 2,15,-1
 855 645 l 1,16,-1
 1136 366 l 2,17,18
 1156 346 1156 346 1175 346 c 128,-1,19
 1194 346 1194 346 1209 361 c 2,20,-1
 1261 413 l 2,21,22
 1278 430 1278 430 1278 449 c 128,-1,23
 1278 468 1278 468 1261 483 c 1,24,-1
 977 767 l 1,25,-1
 1252 1043 l 2,26,27
 1289 1080 1289 1080 1261 1108 c 2,28,-1
 1194 1177 l 2,29,30
 1179 1192 1179 1192 1161 1192 c 128,-1,31
 1143 1192 1143 1192 1130 1177 c 1,32,-1
 849 895 l 1,33,-1
 562 1183 l 2,34,35
 548 1197 548 1197 531 1197 c 128,-1,36
 514 1197 514 1197 501 1184 c 2,37,-1
 440 1126 l 2,38,39
 425 1111 425 1111 425 1094 c 256,40,41
 425 1077 425 1077 440 1062 c 2,42,-1
 727 773 l 1,43,-1
 442 488 l 1,44,45
 428 476 428 476 428 457 c 256,46,47
 428 438 428 438 445 421 c 2,48,-1
 500 366 l 2,12,13
EndSplineSet
EndChar

StartChar: exclam
Encoding: 33 33 23
Width: 684
GlyphClass: 2
Flags: W
LayerCount: 2
Fore
SplineSet
307 512 m 2,0,1
 284 512 284 512 268 530.5 c 128,-1,2
 252 549 252 549 252 575 c 1,3,-1
 201 1527 l 1,4,5
 201 1553 201 1553 217.5 1571.5 c 128,-1,6
 234 1590 234 1590 257 1590 c 2,7,-1
 427 1590 l 2,8,9
 452 1590 452 1590 467.5 1571.5 c 128,-1,10
 483 1553 483 1553 482 1527 c 2,11,-1
 443 575 l 1,12,13
 443 549 443 549 426.5 530.5 c 128,-1,14
 410 512 410 512 387 512 c 2,15,-1
 307 512 l 2,0,1
175 151 m 0,16,17
 175 222 175 222 226 274 c 0,18,19
 275 325 275 325 347 325 c 0,20,21
 418 325 418 325 467 274 c 0,22,23
 517 222 517 222 517 151 c 0,24,25
 517 79 517 79 467 27 c 128,-1,26
 417 -25 417 -25 347 -25 c 0,27,28
 276 -25 276 -25 226 27 c 0,29,30
 175 79 175 79 175 151 c 0,16,17
EndSplineSet
EndChar

StartChar: quotedbl
Encoding: 34 34 24
Width: 851
GlyphClass: 2
Flags: W
LayerCount: 2
Fore
SplineSet
162.5 1106 m 128,-1,1
 150 1122 150 1122 148 1145 c 2,2,-1
 101 1661 l 2,3,4
 99 1684 99 1684 112 1700 c 128,-1,5
 125 1716 125 1716 146 1716 c 2,6,-1
 304 1716 l 2,7,8
 327 1716 327 1716 340.5 1700 c 128,-1,9
 354 1684 354 1684 352 1661 c 2,10,-1
 309 1145 l 2,11,12
 307 1122 307 1122 293.5 1106 c 128,-1,13
 280 1090 280 1090 259 1090 c 2,14,-1
 195 1090 l 2,15,0
 175 1090 175 1090 162.5 1106 c 128,-1,1
561.5 1106 m 128,-1,17
 549 1122 549 1122 547 1145 c 2,18,-1
 500 1661 l 2,19,20
 498 1684 498 1684 511 1700 c 128,-1,21
 524 1716 524 1716 545 1716 c 2,22,-1
 703 1716 l 2,23,24
 726 1716 726 1716 739.5 1700 c 128,-1,25
 753 1684 753 1684 751 1661 c 2,26,-1
 708 1145 l 2,27,28
 706 1122 706 1122 692.5 1106 c 128,-1,29
 679 1090 679 1090 658 1090 c 2,30,-1
 594 1090 l 2,31,16
 574 1090 574 1090 561.5 1106 c 128,-1,17
EndSplineSet
EndChar

StartChar: numbersign
Encoding: 35 35 25
Width: 1362
GlyphClass: 2
Flags: W
LayerCount: 2
Fore
SplineSet
261 372 m 1,0,-1
 110 372 l 2,1,2
 87 372 87 372 71.5 384.5 c 128,-1,3
 56 397 56 397 56 417 c 2,4,-1
 56 503 l 2,5,6
 56 523 56 523 69.5 537 c 128,-1,7
 83 551 83 551 106 551 c 2,8,-1
 291 551 l 1,9,-1
 348 894 l 1,10,-1
 167 894 l 2,11,12
 144 894 144 894 128.5 906.5 c 128,-1,13
 113 919 113 919 113 939 c 2,14,-1
 113 1025 l 2,15,16
 113 1045 113 1045 127 1059 c 128,-1,17
 141 1073 141 1073 164 1073 c 2,18,-1
 378 1073 l 1,19,-1
 428 1370 l 2,20,21
 436 1419 436 1419 487 1419 c 2,22,-1
 582 1419 l 2,23,24
 610 1419 610 1419 623.5 1401 c 128,-1,25
 637 1383 637 1383 633 1360 c 2,26,-1
 585 1073 l 1,27,-1
 873 1073 l 1,28,-1
 923 1370 l 2,29,30
 931 1419 931 1419 982 1419 c 2,31,-1
 1077 1419 l 2,32,33
 1105 1419 1105 1419 1118.5 1401 c 128,-1,34
 1132 1383 1132 1383 1128 1360 c 2,35,-1
 1080 1073 l 1,36,-1
 1223 1073 l 2,37,38
 1246 1073 1246 1073 1262.5 1060.5 c 128,-1,39
 1279 1048 1279 1048 1279 1025 c 2,40,-1
 1279 949 l 2,41,42
 1279 924 1279 924 1265 909 c 128,-1,43
 1251 894 1251 894 1228 894 c 2,44,-1
 1050 894 l 1,45,-1
 993 551 l 1,46,-1
 1165 551 l 2,47,48
 1188 551 1188 551 1205 538.5 c 128,-1,49
 1222 526 1222 526 1222 503 c 2,50,-1
 1222 427 l 2,51,52
 1222 402 1222 402 1208 387 c 128,-1,53
 1194 372 1194 372 1171 372 c 2,54,-1
 963 372 l 1,55,-1
 917 95 l 2,56,57
 909 46 909 46 857 46 c 2,58,-1
 762 46 l 2,59,60
 734 46 734 46 721 64 c 128,-1,61
 708 82 708 82 712 105 c 2,62,-1
 756 372 l 1,63,-1
 468 372 l 1,64,-1
 422 95 l 2,65,66
 414 46 414 46 362 46 c 2,67,-1
 267 46 l 2,68,69
 239 46 239 46 226 64 c 128,-1,70
 213 82 213 82 217 105 c 2,71,-1
 261 372 l 1,0,-1
786 551 m 1,72,-1
 843 894 l 1,73,-1
 555 894 l 1,74,-1
 498 551 l 1,75,-1
 786 551 l 1,72,-1
EndSplineSet
EndChar

StartChar: dollar
Encoding: 36 36 26
Width: 1024
GlyphClass: 2
Flags: W
LayerCount: 2
Fore
SplineSet
399 -19 m 1,0,1
 181 9 181 9 71 116 c 0,2,3
 55 131 55 131 55 148 c 128,-1,4
 55 165 55 165 69 194 c 2,5,-1
 104 265 l 1,6,7
 120 300 120 300 156 300 c 0,8,9
 190 300 190 300 233 274.5 c 128,-1,10
 276 249 276 249 306 236 c 0,11,12
 398 193 398 193 472.5 193 c 128,-1,13
 547 193 547 193 588 204.5 c 128,-1,14
 629 216 629 216 658 238 c 0,15,16
 719 286 719 286 719 375 c 0,17,18
 719 485 719 485 552 560 c 0,19,20
 504 581 504 581 443 603.5 c 128,-1,21
 382 626 382 626 314 666 c 128,-1,22
 246 706 246 706 193 760 c 0,23,24
 74 881 74 881 74 1040 c 0,25,26
 74 1183 74 1183 174 1283 c 0,27,28
 265 1374 265 1374 410 1402 c 1,29,-1
 410 1639 l 2,30,31
 410 1665 410 1665 426.5 1684 c 128,-1,32
 443 1703 443 1703 467 1703 c 2,33,-1
 568 1703 l 2,34,35
 591 1703 591 1703 607 1684 c 128,-1,36
 623 1665 623 1665 623 1639 c 2,37,-1
 623 1404 l 1,38,39
 747 1384 747 1384 853 1316 c 0,40,41
 874 1302 874 1302 892.5 1285 c 128,-1,42
 911 1268 911 1268 911 1252 c 0,43,44
 911 1219 911 1219 884 1168 c 0,45,46
 841 1086 841 1086 812 1086 c 0,47,48
 799 1086 799 1086 777 1100 c 1,49,50
 652 1194 652 1194 506 1194 c 0,51,52
 368 1194 368 1194 324 1107 c 0,53,54
 309 1077 309 1077 309 1035 c 128,-1,55
 309 993 309 993 332 960 c 128,-1,56
 355 927 355 927 390.5 901.5 c 128,-1,57
 426 876 426 876 470 856 c 1,58,-1
 554 820 l 1,59,60
 727 749 727 749 820 664 c 0,61,62
 951 546 951 546 951 386 c 0,63,64
 951 231 951 231 850 120 c 0,65,66
 757 18 757 18 613 -14 c 1,67,-1
 613 -251 l 2,68,69
 613 -277 613 -277 596.5 -295.5 c 128,-1,70
 580 -314 580 -314 556 -314 c 2,71,-1
 455 -314 l 2,72,73
 432 -314 432 -314 415.5 -295 c 128,-1,74
 399 -276 399 -276 399 -250 c 2,75,-1
 399 -19 l 1,0,1
EndSplineSet
EndChar

StartChar: percent
Encoding: 37 37 27
Width: 2043
GlyphClass: 2
Flags: W
LayerCount: 2
Fore
SplineSet
480 802 m 0,0,1
 395 802 395 802 323 832 c 128,-1,2
 251 862 251 862 200 916 c 0,3,4
 94 1028 94 1028 94 1209 c 0,5,6
 94 1388 94 1388 206 1502 c 0,7,8
 316 1613 316 1613 484 1613 c 0,9,10
 670 1613 670 1613 773 1502 c 0,11,12
 872 1395 872 1395 872 1209 c 0,13,14
 872 1028 872 1028 760 914 c 0,15,16
 649 802 649 802 480 802 c 0,0,1
400 994 m 0,17,18
 436 976 436 976 486.5 976 c 128,-1,19
 537 976 537 976 572.5 994 c 128,-1,20
 608 1012 608 1012 630 1043 c 0,21,22
 672 1102 672 1102 672 1206 c 0,23,24
 672 1362 672 1362 574 1419 c 0,25,26
 537 1440 537 1440 484 1440 c 128,-1,27
 431 1440 431 1440 395.5 1419.5 c 128,-1,28
 360 1399 360 1399 338 1366 c 0,29,30
 296 1302 296 1302 296 1200 c 0,31,32
 296 1049 296 1049 400 994 c 0,17,18
1187 388 m 0,33,34
 1187 478 1187 478 1217 552.5 c 128,-1,35
 1247 627 1247 627 1300 680 c 0,36,37
 1409 791 1409 791 1577 791 c 0,38,39
 1763 791 1763 791 1866 680 c 0,40,41
 1965 573 1965 573 1965 387 c 0,42,43
 1965 206 1965 206 1852 92 c 0,44,45
 1742 -20 1742 -20 1577 -20 c 0,46,47
 1401 -20 1401 -20 1293 94 c 0,48,49
 1187 206 1187 206 1187 388 c 0,33,34
1399 466.5 m 128,-1,51
 1389 423 1389 423 1389 378.5 c 128,-1,52
 1389 334 1389 334 1400 293.5 c 128,-1,53
 1411 253 1411 253 1434 222 c 0,54,55
 1486 154 1486 154 1579 154 c 0,56,57
 1765 154 1765 154 1765 384 c 0,58,59
 1765 540 1765 540 1666 597 c 0,60,61
 1630 618 1630 618 1577 618 c 128,-1,62
 1524 618 1524 618 1488.5 597.5 c 128,-1,63
 1453 577 1453 577 1431 543.5 c 128,-1,50
 1409 510 1409 510 1399 466.5 c 128,-1,51
444 28 m 1,64,65
 415 47 415 47 415 69.5 c 128,-1,66
 415 92 415 92 426 107 c 2,67,-1
 1463 1582 l 2,68,69
 1484 1613 1484 1613 1512 1613 c 0,70,71
 1527 1613 1527 1613 1540 1605 c 2,72,-1
 1613 1558 l 2,73,74
 1636 1544 1636 1544 1636 1520.5 c 128,-1,75
 1636 1497 1636 1497 1623 1480 c 2,76,-1
 590 5 l 1,77,78
 564 -29 564 -29 549 -29 c 0,79,80
 524 -29 524 -29 503 -14 c 2,81,-1
 444 28 l 1,64,65
EndSplineSet
EndChar

StartChar: ampersand
Encoding: 38 38 28
Width: 1361
GlyphClass: 2
Flags: W
LayerCount: 2
Fore
SplineSet
1124 625 m 1,0,1
 1174 530 1174 530 1174 426.5 c 128,-1,2
 1174 323 1174 323 1130.5 238.5 c 128,-1,3
 1087 154 1087 154 1013 94 c 0,4,5
 860 -30 860 -30 637 -30 c 0,6,7
 450 -30 450 -30 310 56 c 1,8,9
 149 157 149 157 149 335 c 0,10,11
 149 523 149 523 319 637 c 0,12,13
 368 670 368 670 422 691 c 1,14,15
 234 739 234 739 171 902 c 0,16,17
 149 960 149 960 149 1048 c 128,-1,18
 149 1136 149 1136 192.5 1215 c 128,-1,19
 236 1294 236 1294 306 1348 c 0,20,21
 449 1458 449 1458 636 1458 c 0,22,23
 902 1458 902 1458 1059 1336 c 0,24,25
 1103 1301 1103 1301 1105 1272 c 1,26,27
 1105 1252 1105 1252 1095 1239 c 2,28,-1
 1034 1152 l 1,29,30
 1010 1115 1010 1115 979 1115 c 0,31,32
 960 1115 960 1115 939 1130.5 c 128,-1,33
 918 1146 918 1146 886 1166.5 c 128,-1,34
 854 1187 854 1187 818 1203 c 0,35,36
 738 1238 738 1238 672 1238 c 128,-1,37
 606 1238 606 1238 561.5 1227.5 c 128,-1,38
 517 1217 517 1217 482 1193 c 0,39,40
 403 1140 403 1140 403 1038 c 0,41,42
 403 930 403 930 524 868 c 1,43,44
 627 817 627 817 754 817 c 2,45,-1
 1221 817 l 2,46,47
 1277 817 1277 817 1277 769 c 2,48,-1
 1277 668 l 2,49,50
 1277 648 1277 648 1260.5 636.5 c 128,-1,51
 1244 625 1244 625 1221 625 c 2,52,-1
 1124 625 l 1,0,1
432 468 m 0,53,54
 404 416 404 416 404 363.5 c 128,-1,55
 404 311 404 311 424 279 c 128,-1,56
 444 247 444 247 477 226 c 0,57,58
 545 181 545 181 623 181 c 128,-1,59
 701 181 701 181 756.5 200 c 128,-1,60
 812 219 812 219 854 256 c 0,61,62
 945 335 945 335 945 470 c 0,63,64
 945 564 945 564 900 613 c 0,65,66
 890 624 890 624 886 630 c 1,67,68
 875 631 875 631 865 631 c 2,69,-1
 844 631 l 2,70,71
 523 631 523 631 432 468 c 0,53,54
EndSplineSet
EndChar

StartChar: quotesingle
Encoding: 39 39 29
Width: 511
GlyphClass: 2
Flags: W
LayerCount: 2
Fore
SplineSet
191.5 1106 m 128,-1,1
 179 1122 179 1122 177 1145 c 2,2,-1
 130 1661 l 2,3,4
 128 1684 128 1684 141 1700 c 128,-1,5
 154 1716 154 1716 175 1716 c 2,6,-1
 333 1716 l 2,7,8
 356 1716 356 1716 369.5 1700 c 128,-1,9
 383 1684 383 1684 381 1661 c 2,10,-1
 338 1145 l 2,11,12
 336 1122 336 1122 322.5 1106 c 128,-1,13
 309 1090 309 1090 288 1090 c 2,14,-1
 224 1090 l 2,15,0
 204 1090 204 1090 191.5 1106 c 128,-1,1
EndSplineSet
EndChar

StartChar: parenleft
Encoding: 40 40 30
Width: 854
GlyphClass: 2
Flags: W
LayerCount: 2
Fore
SplineSet
625 -328 m 128,-1,1
 610 -335 610 -335 586 -335 c 128,-1,2
 562 -335 562 -335 531 -301 c 1,3,4
 354 -97 354 -97 256 206 c 0,5,6
 164 492 164 492 164 793 c 0,7,8
 164 1254 164 1254 378 1646 c 0,9,10
 452 1781 452 1781 553 1890 c 1,11,12
 575 1912 575 1912 598 1912 c 0,13,14
 641 1912 641 1912 671 1884 c 0,15,16
 720 1837 720 1837 720 1805 c 128,-1,17
 720 1773 720 1773 692 1742 c 0,18,19
 462 1498 462 1498 410 1040 c 0,20,21
 395 908 395 908 395 779 c 128,-1,22
 395 650 395 650 414 518.5 c 128,-1,23
 433 387 433 387 468 266 c 0,24,25
 543 14 543 14 672 -147 c 1,26,27
 712 -195 712 -195 712 -216 c 128,-1,28
 712 -237 712 -237 704 -252.5 c 128,-1,29
 696 -268 696 -268 668 -294.5 c 128,-1,0
 640 -321 640 -321 625 -328 c 128,-1,1
EndSplineSet
EndChar

StartChar: parenright
Encoding: 41 41 31
Width: 854
GlyphClass: 2
Flags: W
LayerCount: 2
Fore
SplineSet
229 -328 m 128,-1,1
 244 -335 244 -335 268 -335 c 128,-1,2
 292 -335 292 -335 323 -301 c 1,3,4
 500 -97 500 -97 598 206 c 0,5,6
 690 492 690 492 690 793 c 0,7,8
 690 1254 690 1254 476 1646 c 0,9,10
 402 1781 402 1781 301 1890 c 1,11,12
 279 1912 279 1912 256 1912 c 0,13,14
 213 1912 213 1912 183 1884 c 0,15,16
 134 1837 134 1837 134 1805 c 128,-1,17
 134 1773 134 1773 162 1742 c 0,18,19
 392 1498 392 1498 444 1040 c 0,20,21
 459 908 459 908 459 779 c 128,-1,22
 459 650 459 650 440 518.5 c 128,-1,23
 421 387 421 387 386 266 c 0,24,25
 311 14 311 14 182 -147 c 1,26,27
 142 -195 142 -195 142 -216 c 128,-1,28
 142 -237 142 -237 150 -252.5 c 128,-1,29
 158 -268 158 -268 186 -294.5 c 128,-1,0
 214 -321 214 -321 229 -328 c 128,-1,1
EndSplineSet
EndChar

StartChar: asterisk
Encoding: 42 42 32
Width: 1363
GlyphClass: 2
Flags: W
LayerCount: 2
Fore
SplineSet
1193 1470 m 0,0,1
 1262 1470 1262 1470 1262 1403 c 2,2,-1
 1262 1331 l 2,3,4
 1262 1277 1262 1277 1208 1262 c 0,5,6
 1194 1258 1194 1258 1183.5 1258 c 128,-1,7
 1173 1258 1173 1258 1169 1259 c 2,8,-1
 785 1302 l 1,9,-1
 1028 991 l 1,10,11
 1043 970 1043 970 1043 949 c 0,12,13
 1043 909 1043 909 1006 885 c 1,14,-1
 939 844 l 2,15,16
 927 836 927 836 908 836 c 0,17,18
 861 836 861 836 840 885 c 2,19,-1
 683 1244 l 1,20,-1
 529 881 l 2,21,22
 508 832 508 832 461 832 c 0,23,24
 440 832 440 832 418 844 c 2,25,-1
 357 878 l 2,26,27
 324 897 324 897 324 929.5 c 128,-1,28
 324 962 324 962 338 981 c 2,29,-1
 581 1307 l 1,30,-1
 188 1260 l 2,31,32
 184 1259 184 1259 173 1259 c 128,-1,33
 162 1259 162 1259 149 1262 c 128,-1,34
 136 1265 136 1265 126 1272 c 0,35,36
 101 1290 101 1290 101 1322 c 2,37,-1
 101 1411 l 2,38,39
 101 1440 101 1440 122 1455.5 c 128,-1,40
 143 1471 143 1471 165 1471 c 2,41,-1
 173 1471 l 1,42,-1
 579 1424 l 1,43,-1
 324 1743 l 2,44,45
 312 1758 312 1758 312 1778 c 0,46,47
 312 1823 312 1823 347 1844 c 2,48,-1
 410 1882 l 2,49,50
 435 1896 435 1896 456 1896 c 0,51,52
 500 1896 500 1896 522 1847 c 2,53,-1
 679 1483 l 1,54,-1
 840 1856 l 2,55,56
 856 1894 856 1894 907 1894 c 0,57,58
 929 1894 929 1894 974 1869.5 c 128,-1,59
 1019 1845 1019 1845 1030.5 1828.5 c 128,-1,60
 1042 1812 1042 1812 1042 1791 c 128,-1,61
 1042 1770 1042 1770 1026 1748 c 2,62,-1
 784 1418 l 1,63,-1
 1173 1469 l 2,64,65
 1178 1470 1178 1470 1183 1470 c 128,-1,66
 1188 1470 1188 1470 1193 1470 c 0,0,1
EndSplineSet
EndChar

StartChar: plus
Encoding: 43 43 33
Width: 1363
GlyphClass: 2
Flags: W
LayerCount: 2
Fore
SplineSet
148 522.5 m 128,-1,1
 132 537 132 537 132 557 c 2,2,-1
 132 652 l 2,3,4
 132 672 132 672 148 686 c 128,-1,5
 164 700 164 700 187 700 c 2,6,-1
 581 700 l 1,7,-1
 581 1085 l 2,8,9
 581 1108 581 1108 595.5 1124 c 128,-1,10
 610 1140 610 1140 630 1140 c 2,11,-1
 734 1140 l 2,12,13
 754 1140 754 1140 768 1124 c 128,-1,14
 782 1108 782 1108 782 1085 c 2,15,-1
 782 700 l 1,16,-1
 1175 700 l 2,17,18
 1198 700 1198 700 1214.5 685 c 128,-1,19
 1231 670 1231 670 1231 647 c 2,20,-1
 1231 563 l 2,21,22
 1231 538 1231 538 1214.5 523 c 128,-1,23
 1198 508 1198 508 1175 508 c 2,24,-1
 782 508 l 1,25,-1
 782 117 l 2,26,27
 782 94 782 94 767 77.5 c 128,-1,28
 752 61 752 61 729 61 c 2,29,-1
 636 61 l 2,30,31
 611 61 611 61 596 77.5 c 128,-1,32
 581 94 581 94 581 117 c 2,33,-1
 581 508 l 1,34,-1
 187 508 l 2,35,0
 164 508 164 508 148 522.5 c 128,-1,1
EndSplineSet
EndChar

StartChar: comma
Encoding: 44 44 34
Width: 513
GlyphClass: 2
Flags: W
LayerCount: 2
Fore
SplineSet
96 100 m 0,0,1
 85 127 85 127 85 159.5 c 128,-1,2
 85 192 85 192 97.5 222.5 c 128,-1,3
 110 253 110 253 132 276 c 0,4,5
 179 325 179 325 235 325 c 128,-1,6
 291 325 291 325 324 307.5 c 128,-1,7
 357 290 357 290 380 260 c 0,8,9
 425 199 425 199 425 121 c 128,-1,10
 425 43 425 43 411 -18 c 128,-1,11
 397 -79 397 -79 374 -135 c 0,12,13
 330 -240 330 -240 257 -332 c 1,14,-1
 236 -356 l 2,15,16
 192 -406 192 -406 165 -406 c 128,-1,17
 138 -406 138 -406 118 -389 c 2,18,-1
 82 -358 l 1,19,20
 64 -344 64 -344 64 -326 c 0,21,22
 64 -298 64 -298 91.5 -268.5 c 128,-1,23
 119 -239 119 -239 142 -201 c 128,-1,24
 165 -163 165 -163 180 -128 c 1,25,26
 206 -62 206 -62 211 -5 c 1,27,28
 128 18 128 18 96 100 c 0,0,1
EndSplineSet
EndChar

StartChar: hyphen
Encoding: 45 45 35
Width: 1193
GlyphClass: 2
Flags: W
LayerCount: 2
Fore
SplineSet
253 522.5 m 128,-1,1
 237 537 237 537 237 557 c 2,2,-1
 237 652 l 2,3,4
 237 672 237 672 253 686 c 128,-1,5
 269 700 269 700 292 700 c 2,6,-1
 900 700 l 2,7,8
 923 700 923 700 939.5 685.5 c 128,-1,9
 956 671 956 671 956 651 c 2,10,-1
 956 556 l 2,11,12
 956 536 956 536 939.5 522 c 128,-1,13
 923 508 923 508 900 508 c 2,14,-1
 292 508 l 2,15,0
 269 508 269 508 253 522.5 c 128,-1,1
EndSplineSet
EndChar

StartChar: period
Encoding: 46 46 36
Width: 513
GlyphClass: 2
Flags: W
LayerCount: 2
Fore
SplineSet
86 151 m 0,0,1
 86 222 86 222 136 274 c 0,2,3
 186 325 186 325 258 325 c 0,4,5
 329 325 329 325 378 274 c 0,6,7
 428 222 428 222 428 151 c 0,8,9
 428 79 428 79 378 27 c 128,-1,10
 328 -25 328 -25 258 -25 c 0,11,12
 187 -25 187 -25 136 27 c 0,13,14
 86 79 86 79 86 151 c 0,0,1
EndSplineSet
EndChar

StartChar: slash
Encoding: 47 47 37
Width: 853
GlyphClass: 2
Flags: W
LayerCount: 2
Fore
SplineSet
569 1586 m 2,0,1
 579 1628 579 1628 630 1628 c 0,2,3
 640 1628 640 1628 645 1627 c 2,4,-1
 730 1609 l 2,5,6
 778 1599 778 1599 778 1552 c 0,7,8
 778 1546 778 1546 776 1536 c 2,9,-1
 351 -88 l 2,10,11
 341 -130 341 -130 293 -130 c 2,12,-1
 284 -130 l 2,13,14
 281 -130 281 -130 276 -128 c 2,15,-1
 196 -106 l 2,16,17
 150 -94 150 -94 150 -46 c 0,18,19
 150 -33 150 -33 153 -22 c 2,20,-1
 569 1586 l 2,0,1
EndSplineSet
EndChar

StartChar: zero
Encoding: 48 48 38
Width: 1363
GlyphClass: 2
Flags: W
LayerCount: 2
Fore
SplineSet
121 601 m 0,0,1
 121 739 121 739 158 854.5 c 128,-1,2
 195 970 195 970 266 1052 c 0,3,4
 416 1225 416 1225 681 1225 c 0,5,6
 947 1225 947 1225 1096 1052 c 1,7,8
 1242 885 1242 885 1242 599 c 0,9,10
 1242 319 1242 319 1087 147 c 256,11,12
 932 -25 932 -25 675 -25 c 0,13,14
 423 -25 423 -25 270 151 c 0,15,16
 121 323 121 323 121 601 c 0,0,1
536 218 m 0,17,18
 594 179 594 179 680.5 179 c 128,-1,19
 767 179 767 179 825 214 c 128,-1,20
 883 249 883 249 919 307 c 0,21,22
 987 417 987 417 987 597 c 0,23,24
 987 888 987 888 822 988 c 0,25,26
 763 1023 763 1023 678.5 1023 c 128,-1,27
 594 1023 594 1023 536.5 987.5 c 128,-1,28
 479 952 479 952 444 894 c 0,29,30
 377 784 377 784 377 599 c 0,31,32
 377 322 377 322 536 218 c 0,17,18
EndSplineSet
EndChar

StartChar: one
Encoding: 49 49 39
Width: 849
GlyphClass: 2
Flags: W
LayerCount: 2
Fore
SplineSet
361 940 m 1,0,1
 298 902 298 902 232.5 889 c 128,-1,2
 167 876 167 876 145 876 c 128,-1,3
 123 876 123 876 111.5 881 c 128,-1,4
 100 886 100 886 92 894 c 1,5,6
 82 907 82 907 72.5 941.5 c 128,-1,7
 63 976 63 976 63 1001.5 c 128,-1,8
 63 1027 63 1027 79.5 1042.5 c 128,-1,9
 96 1058 96 1058 140 1067 c 0,10,11
 270 1094 270 1094 318 1120.5 c 128,-1,12
 366 1147 366 1147 388.5 1163 c 128,-1,13
 411 1179 411 1179 430 1191 c 0,14,15
 471 1216 471 1216 513 1216 c 128,-1,16
 555 1216 555 1216 580.5 1190 c 128,-1,17
 606 1164 606 1164 606 1116 c 2,18,-1
 606 63 l 2,19,20
 606 37 606 37 590 18.5 c 128,-1,21
 574 0 574 0 552 0 c 2,22,-1
 413 0 l 2,23,24
 390 0 390 0 375.5 18.5 c 128,-1,25
 361 37 361 37 361 63 c 2,26,-1
 361 940 l 1,0,1
EndSplineSet
EndChar

StartChar: two
Encoding: 50 50 40
Width: 1194
GlyphClass: 2
Flags: W
LayerCount: 2
Fore
SplineSet
143 130 m 2,0,1
 143 180 143 180 150 193 c 1,2,3
 159 214 159 214 198 233.5 c 128,-1,4
 237 253 237 253 298.5 289.5 c 128,-1,5
 360 326 360 326 425 371.5 c 128,-1,6
 490 417 490 417 553 471 c 128,-1,7
 616 525 616 525 666 584 c 0,8,9
 777 713 777 713 777 828 c 0,10,11
 777 926 777 926 706 976 c 0,12,13
 649 1015 649 1015 592.5 1015 c 128,-1,14
 536 1015 536 1015 500 1006 c 128,-1,15
 464 997 464 997 432 979 c 0,16,17
 360 939 360 939 333 869 c 1,18,19
 310 806 310 806 258 806 c 0,20,21
 247 806 247 806 235 808 c 128,-1,22
 223 810 223 810 193 815 c 0,23,24
 128 826 128 826 128 887 c 128,-1,25
 128 948 128 948 147.5 993.5 c 128,-1,26
 167 1039 167 1039 201 1075.5 c 128,-1,27
 235 1112 235 1112 280 1140 c 128,-1,28
 325 1168 325 1168 375 1187 c 0,29,30
 475 1225 475 1225 551.5 1225 c 128,-1,31
 628 1225 628 1225 679 1217.5 c 128,-1,32
 730 1210 730 1210 779 1192.5 c 128,-1,33
 828 1175 828 1175 873 1146.5 c 128,-1,34
 918 1118 918 1118 952 1076 c 0,35,36
 1026 985 1026 985 1026 849 c 0,37,38
 1026 640 1026 640 838 464 c 1,39,40
 740 370 740 370 650 314 c 2,41,-1
 471 204 l 1,42,-1
 1006 216 l 2,43,44
 1045 217 1045 217 1055.5 197.5 c 128,-1,45
 1066 178 1066 178 1066 147 c 2,46,-1
 1066 58 l 2,47,48
 1066 24 1066 24 1048.5 12.5 c 128,-1,49
 1031 1 1031 1 997 1 c 2,50,-1
 212 1 l 2,51,52
 180 1 180 1 161.5 14 c 128,-1,53
 143 27 143 27 143 62 c 2,54,-1
 143 130 l 2,0,1
EndSplineSet
EndChar

StartChar: three
Encoding: 51 51 41
Width: 1194
GlyphClass: 2
Flags: W
LayerCount: 2
Fore
SplineSet
149 27 m 2,0,1
 182 78 182 78 221 58 c 0,2,3
 233 52 233 52 260 34.5 c 128,-1,4
 287 17 287 17 322.5 0.5 c 128,-1,5
 358 -16 358 -16 394 -26 c 0,6,7
 459 -43 459 -43 522 -43 c 128,-1,8
 585 -43 585 -43 632 -31 c 128,-1,9
 679 -19 679 -19 717 7 c 0,10,11
 803 66 803 66 803 172 c 0,12,13
 803 270 803 270 714 324 c 0,14,15
 630 374 630 374 495 374 c 0,16,17
 434 374 434 374 406 369 c 0,18,19
 371 363 371 363 360 363 c 128,-1,20
 349 363 349 363 338 377 c 128,-1,21
 327 391 327 391 321 410 c 0,22,23
 310 445 310 445 310 472.5 c 128,-1,24
 310 500 310 500 318.5 517.5 c 128,-1,25
 327 535 327 535 355 541 c 0,26,27
 646 606 646 606 722 732 c 0,28,29
 751 779 751 779 751 830 c 128,-1,30
 751 881 751 881 733.5 912.5 c 128,-1,31
 716 944 716 944 686 965 c 0,32,33
 626 1008 626 1008 539 1008 c 0,34,35
 470 1008 470 1008 423 982 c 0,36,37
 336 934 336 934 321 867 c 1,38,39
 309 820 309 820 259.5 820 c 128,-1,40
 210 820 210 820 183 828.5 c 128,-1,41
 156 837 156 837 141 850 c 0,42,43
 117 872 117 872 117 918.5 c 128,-1,44
 117 965 117 965 136.5 1008.5 c 128,-1,45
 156 1052 156 1052 189.5 1086.5 c 128,-1,46
 223 1121 223 1121 267 1147 c 128,-1,47
 311 1173 311 1173 360 1190 c 0,48,49
 457 1225 457 1225 549.5 1225 c 128,-1,50
 642 1225 642 1225 720.5 1203 c 128,-1,51
 799 1181 799 1181 860 1136 c 0,52,53
 996 1036 996 1036 996 859 c 0,54,55
 996 712 996 712 882 608 c 0,56,57
 803 537 803 537 684 497 c 1,58,59
 843 497 843 497 946 401 c 0,60,61
 1045 308 1045 308 1045 189.5 c 128,-1,62
 1045 71 1045 71 1002.5 -10.5 c 128,-1,63
 960 -92 960 -92 892 -148 c 0,64,65
 751 -263 751 -263 568 -263 c 0,66,67
 292 -263 292 -263 143 -140 c 1,68,69
 95 -102 95 -102 95 -78.5 c 128,-1,70
 95 -55 95 -55 106 -38 c 2,71,-1
 149 27 l 2,0,1
EndSplineSet
EndChar

StartChar: four
Encoding: 52 52 42
Width: 1185
GlyphClass: 2
Flags: W
LayerCount: 2
Fore
SplineSet
1114 295 m 2,0,1
 1173 295 1173 295 1173 242 c 2,2,-1
 1173 188 l 2,3,4
 1173 159 1173 159 1159 145.5 c 128,-1,5
 1145 132 1145 132 1110 125 c 2,6,-1
 965 96 l 1,7,-1
 965 -175 l 2,8,9
 965 -204 965 -204 948.5 -221 c 128,-1,10
 932 -238 932 -238 906 -238 c 2,11,-1
 787 -238 l 2,12,13
 759 -238 759 -238 744 -219 c 128,-1,14
 729 -200 729 -200 729 -170 c 2,15,-1
 729 94 l 1,16,-1
 233 94 l 2,17,18
 167 94 167 94 127 130 c 128,-1,19
 87 166 87 166 87 224 c 0,20,21
 87 264 87 264 114 335 c 1,22,-1
 180 516 l 1,23,24
 316 898 316 898 375 1179 c 0,25,26
 391 1251 391 1251 455 1251 c 0,27,28
 494 1251 494 1251 571 1227 c 0,29,30
 633 1207 633 1207 619 1135 c 1,31,32
 599 1015 599 1015 539 842 c 0,33,34
 399 445 399 445 333 295 c 1,35,-1
 729 295 l 1,36,-1
 729 670 l 2,37,38
 729 705 729 705 753 723 c 128,-1,39
 777 741 777 741 809 741 c 2,40,-1
 892 741 l 2,41,42
 932 741 932 741 948.5 719 c 128,-1,43
 965 697 965 697 965 672 c 2,44,-1
 965 295 l 1,45,-1
 1114 295 l 2,0,1
EndSplineSet
EndChar

StartChar: five
Encoding: 53 53 43
Width: 1193
GlyphClass: 2
Flags: W
LayerCount: 2
Fore
SplineSet
438 596 m 1,0,1
 537 664 537 664 689 664 c 0,2,3
 868 664 868 664 988 550 c 0,4,5
 1118 427 1118 427 1118 219 c 0,6,7
 1118 0 1118 0 968 -132 c 0,8,9
 820 -263 820 -263 575 -263 c 0,10,11
 387 -263 387 -263 243 -185 c 0,12,13
 183 -153 183 -153 123 -90 c 0,14,15
 93 -59 93 -59 128 -9 c 2,16,-1
 169 50 l 1,17,18
 193 87 193 87 217.5 87 c 128,-1,19
 242 87 242 87 252.5 77.5 c 128,-1,20
 263 68 263 68 278 57 c 1,21,22
 400 -46 400 -46 592 -46 c 0,23,24
 706 -46 706 -46 783 20 c 0,25,26
 866 90 866 90 866 217 c 0,27,28
 866 331 866 331 789 404 c 0,29,30
 719 471 719 471 628 471 c 0,31,32
 502 471 502 471 420 402 c 0,33,34
 382 370 382 370 336 370 c 0,35,36
 324 370 324 370 312.5 372.5 c 128,-1,37
 301 375 301 375 282 377.5 c 128,-1,38
 263 380 263 380 248 383.5 c 128,-1,39
 233 387 233 387 224 394 c 0,40,41
 209 407 209 407 209 444 c 2,42,-1
 209 1089 l 2,43,44
 209 1149 209 1149 224 1167 c 1,45,46
 247 1198 247 1198 303 1198 c 2,47,-1
 960 1198 l 2,48,49
 994 1198 994 1198 1011.5 1189 c 128,-1,50
 1029 1180 1029 1180 1029 1146 c 2,51,-1
 1029 1049 l 2,52,53
 1029 1012 1029 1012 1022 1002 c 0,54,55
 1009 983 1009 983 966 983 c 2,56,-1
 438 983 l 1,57,-1
 438 596 l 1,0,1
EndSplineSet
EndChar

StartChar: six
Encoding: 54 54 44
Width: 1193
GlyphClass: 2
Flags: W
LayerCount: 2
Fore
SplineSet
616 -25 m 0,0,1
 492 -25 492 -25 393.5 21.5 c 128,-1,2
 295 68 295 68 228 156 c 0,3,4
 95 331 95 331 95 656 c 0,5,6
 95 869 95 869 126 987.5 c 128,-1,7
 157 1106 157 1106 198.5 1185 c 128,-1,8
 240 1264 240 1264 307 1323 c 0,9,10
 452 1451 452 1451 699 1451 c 0,11,12
 820 1451 820 1451 942 1402 c 1,13,14
 1017 1373 1017 1373 1042 1344 c 128,-1,15
 1067 1315 1067 1315 1067 1292.5 c 128,-1,16
 1067 1270 1067 1270 1047 1240 c 2,17,-1
 1024 1206 l 2,18,19
 988 1152 988 1152 960 1151 c 128,-1,20
 932 1150 932 1150 896 1178 c 0,21,22
 820 1237 820 1237 666 1237 c 0,23,24
 491 1237 491 1237 404 1086 c 0,25,26
 332 961 332 961 327 750 c 1,27,28
 415 865 415 865 595 894 c 0,29,30
 642 901 642 901 707.5 901 c 128,-1,31
 773 901 773 901 853.5 873 c 128,-1,32
 934 845 934 845 992 790 c 1,33,34
 1117 675 1117 675 1117 476 c 0,35,36
 1117 270 1117 270 989 128 c 0,37,38
 851 -25 851 -25 616 -25 c 0,0,1
882 452 m 0,39,40
 882 689 882 689 616 689 c 0,41,42
 535 689 535 689 470 656 c 0,43,44
 361 602 361 602 335 556 c 1,45,-1
 335 554 l 2,46,47
 335 370 335 370 420 274 c 0,48,49
 497 186 497 186 627 186 c 0,50,51
 735 186 735 186 806 255 c 0,52,53
 882 329 882 329 882 452 c 0,39,40
EndSplineSet
EndChar

StartChar: seven
Encoding: 55 55 45
Width: 1021
GlyphClass: 2
Flags: W
LayerCount: 2
Fore
SplineSet
148 974 m 2,0,1
 50 974 50 974 50 1059 c 2,2,-1
 50 1133 l 2,3,4
 50 1165 50 1165 61 1182.5 c 128,-1,5
 72 1200 72 1200 111 1200 c 2,6,-1
 866 1200 l 2,7,8
 903 1200 903 1200 925 1172.5 c 128,-1,9
 947 1145 947 1145 947 1108.5 c 128,-1,10
 947 1072 947 1072 922 993 c 1,11,12
 798 625 798 625 777 568 c 2,13,-1
 745 478 l 1,14,15
 596 79 596 79 472 -91 c 1,16,17
 348 -263 348 -263 261 -263 c 0,18,19
 222 -263 222 -263 195 -230 c 1,20,-1
 150 -178 l 2,21,22
 131 -157 131 -157 131 -134 c 0,23,24
 131 -96 131 -96 173.5 -65 c 128,-1,25
 216 -34 216 -34 260.5 16.5 c 128,-1,26
 305 67 305 67 349 138 c 0,27,28
 438 280 438 280 519 509 c 2,29,-1
 598 730 l 2,30,31
 642 853 642 853 670 974 c 1,32,-1
 148 974 l 2,0,1
EndSplineSet
EndChar

StartChar: eight
Encoding: 56 56 46
Width: 1193
GlyphClass: 2
Flags: W
LayerCount: 2
Fore
SplineSet
136 201.5 m 128,-1,1
 93 276 93 276 93 361 c 128,-1,2
 93 446 93 446 114 505 c 128,-1,3
 135 564 135 564 170 611 c 0,4,5
 231 695 231 695 342 755 c 0,6,7
 347 758 347 758 350.5 759.5 c 128,-1,8
 354 761 354 761 354 765 c 128,-1,9
 354 769 354 769 333.5 779.5 c 128,-1,10
 313 790 313 790 274.5 815.5 c 128,-1,11
 236 841 236 841 204 877 c 0,12,13
 132 960 132 960 132 1075 c 0,14,15
 132 1269 132 1269 290 1368 c 1,16,17
 420 1451 420 1451 600 1451 c 0,18,19
 796 1451 796 1451 923 1360 c 0,20,21
 1063 1261 1063 1261 1063 1090 c 0,22,23
 1063 898 1063 898 921 786 c 0,24,25
 881 755 881 755 855.5 743 c 128,-1,26
 830 731 830 731 830 727.5 c 128,-1,27
 830 724 830 724 863 712.5 c 128,-1,28
 896 701 896 701 942 670.5 c 128,-1,29
 988 640 988 640 1023 598 c 0,30,31
 1101 506 1101 506 1101 402 c 128,-1,32
 1101 298 1101 298 1058 220.5 c 128,-1,33
 1015 143 1015 143 944 88 c 0,34,35
 798 -25 798 -25 602 -25 c 0,36,37
 393 -25 393 -25 250 76 c 0,38,0
 179 127 179 127 136 201.5 c 128,-1,1
640 817 m 1,39,40
 828 897 828 897 828 1055 c 0,41,42
 828 1143 828 1143 760 1196 c 0,43,44
 698 1244 698 1244 602 1244 c 0,45,46
 449 1244 449 1244 390 1136 c 0,47,48
 370 1101 370 1101 370 1057.5 c 128,-1,49
 370 1014 370 1014 390.5 979.5 c 128,-1,50
 411 945 411 945 448 915 c 0,51,52
 517 858 517 858 640 817 c 1,39,40
327 399 m 0,53,54
 327 345 327 345 350 303.5 c 128,-1,55
 373 262 373 262 412 236 c 0,56,57
 487 185 487 185 607 185 c 0,58,59
 780 185 780 185 842 304 c 0,60,61
 863 343 863 343 863 395.5 c 128,-1,62
 863 448 863 448 833.5 490 c 128,-1,63
 804 532 804 532 756 563 c 0,64,65
 678 614 678 614 531 654 c 1,66,67
 457 638 457 638 397 572 c 0,68,69
 327 495 327 495 327 399 c 0,53,54
EndSplineSet
EndChar

StartChar: nine
Encoding: 57 57 47
Width: 1193
GlyphClass: 2
Flags: W
LayerCount: 2
Fore
SplineSet
147 8 m 2,0,1
 171 44 171 44 193 44 c 128,-1,2
 215 44 215 44 244.5 24.5 c 128,-1,3
 274 5 274 5 305 -8.5 c 128,-1,4
 336 -22 336 -22 368 -31 c 0,5,6
 436 -50 436 -50 508.5 -50 c 128,-1,7
 581 -50 581 -50 646 -16.5 c 128,-1,8
 711 17 711 17 753 74 c 0,9,10
 831 180 831 180 842 370 c 1,11,12
 753 305 753 305 596 282 c 0,13,14
 550 276 550 276 482.5 276 c 128,-1,15
 415 276 415 276 333 309 c 128,-1,16
 251 342 251 342 190 404 c 0,17,18
 58 537 58 537 58 755 c 0,19,20
 58 961 58 961 208 1094 c 1,21,22
 353 1224 353 1224 567 1224 c 0,23,24
 967 1224 967 1224 1052 800 c 0,25,26
 1079 668 1079 668 1079 545.5 c 128,-1,27
 1079 423 1079 423 1068 333.5 c 128,-1,28
 1057 244 1057 244 1030.5 158.5 c 128,-1,29
 1004 73 1004 73 960 -4 c 128,-1,30
 916 -81 916 -81 850 -139 c 0,31,32
 707 -265 707 -265 485 -265 c 0,33,34
 343 -265 343 -265 208 -198 c 0,35,36
 89 -140 89 -140 89 -91 c 0,37,38
 89 -75 89 -75 100 -60 c 2,39,-1
 147 8 l 2,0,1
835 564 m 1,40,41
 835 1013 835 1013 553 1013 c 0,42,43
 440 1013 440 1013 368 942 c 1,44,45
 294 867 294 867 294 752 c 0,46,47
 294 561 294 561 446 501 c 0,48,49
 497 481 497 481 564 481 c 0,50,51
 733 481 733 481 835 564 c 1,40,41
EndSplineSet
EndChar

StartChar: colon
Encoding: 58 58 48
Width: 511
GlyphClass: 2
Flags: W
LayerCount: 2
Fore
SplineSet
79 151 m 0,0,1
 79 222 79 222 129 274 c 0,2,3
 179 325 179 325 251 325 c 0,4,5
 322 325 322 325 371 274 c 0,6,7
 421 222 421 222 421 151 c 0,8,9
 421 79 421 79 371 27 c 128,-1,10
 321 -25 321 -25 251 -25 c 0,11,12
 180 -25 180 -25 129 27 c 0,13,14
 79 79 79 79 79 151 c 0,0,1
79 936 m 0,15,16
 79 1007 79 1007 129 1059 c 0,17,18
 179 1110 179 1110 251 1110 c 0,19,20
 322 1110 322 1110 371 1059 c 0,21,22
 421 1007 421 1007 421 936 c 0,23,24
 421 864 421 864 371 812 c 128,-1,25
 321 760 321 760 251 760 c 0,26,27
 180 760 180 760 129 812 c 0,28,29
 79 864 79 864 79 936 c 0,15,16
EndSplineSet
EndChar

StartChar: semicolon
Encoding: 59 59 49
Width: 513
GlyphClass: 2
Flags: W
LayerCount: 2
Fore
SplineSet
78 936 m 0,0,1
 78 1007 78 1007 128 1059 c 0,2,3
 178 1110 178 1110 250 1110 c 0,4,5
 321 1110 321 1110 370 1059 c 0,6,7
 420 1007 420 1007 420 936 c 0,8,9
 420 864 420 864 370 812 c 128,-1,10
 320 760 320 760 250 760 c 0,11,12
 179 760 179 760 128 812 c 0,13,14
 78 864 78 864 78 936 c 0,0,1
99 100 m 0,15,16
 88 127 88 127 88 159.5 c 128,-1,17
 88 192 88 192 100.5 222.5 c 128,-1,18
 113 253 113 253 135 276 c 0,19,20
 182 325 182 325 238 325 c 128,-1,21
 294 325 294 325 327 307.5 c 128,-1,22
 360 290 360 290 383 260 c 0,23,24
 428 199 428 199 428 121 c 128,-1,25
 428 43 428 43 414 -18 c 128,-1,26
 400 -79 400 -79 377 -135 c 0,27,28
 333 -240 333 -240 260 -332 c 1,29,-1
 239 -356 l 2,30,31
 195 -406 195 -406 168 -406 c 128,-1,32
 141 -406 141 -406 121 -389 c 2,33,-1
 85 -358 l 1,34,35
 67 -344 67 -344 67 -326 c 0,36,37
 67 -298 67 -298 94.5 -268.5 c 128,-1,38
 122 -239 122 -239 145 -201 c 128,-1,39
 168 -163 168 -163 183 -128 c 1,40,41
 209 -62 209 -62 214 -5 c 1,42,43
 131 18 131 18 99 100 c 0,15,16
EndSplineSet
EndChar

StartChar: less
Encoding: 60 60 50
Width: 1364
GlyphClass: 2
Flags: W
LayerCount: 2
Fore
SplineSet
219 475 m 2,0,1
 149 505 149 505 149 584 c 0,2,3
 149 662 149 662 223 696 c 2,4,-1
 1045 1067 l 2,5,6
 1069 1078 1069 1078 1088 1078 c 0,7,8
 1128 1078 1128 1078 1142 1040 c 2,9,-1
 1166 979 l 2,10,11
 1174 958 1174 958 1174 940 c 0,12,13
 1174 897 1174 897 1127 877 c 2,14,-1
 429 588 l 1,15,-1
 1110 307 l 1,16,17
 1158 286 1158 286 1160 243 c 0,18,19
 1160 230 1160 230 1153 213 c 2,20,-1
 1127 151 l 2,21,22
 1108 108 1108 108 1071 108 c 0,23,24
 1052 108 1052 108 1028 119 c 2,25,-1
 219 475 l 2,0,1
EndSplineSet
EndChar

StartChar: equal
Encoding: 61 61 51
Width: 1363
GlyphClass: 2
Flags: W
LayerCount: 2
Fore
SplineSet
212 726 m 2,0,1
 189 726 189 726 173 740.5 c 128,-1,2
 157 755 157 755 157 775 c 2,3,-1
 157 875 l 2,4,5
 157 895 157 895 173 909 c 128,-1,6
 189 923 189 923 212 923 c 2,7,-1
 1150 923 l 2,8,9
 1173 923 1173 923 1189.5 908 c 128,-1,10
 1206 893 1206 893 1206 870 c 2,11,-1
 1206 781 l 2,12,13
 1206 756 1206 756 1189.5 741 c 128,-1,14
 1173 726 1173 726 1150 726 c 2,15,-1
 212 726 l 2,0,1
212 276 m 2,16,17
 189 276 189 276 173 290.5 c 128,-1,18
 157 305 157 305 157 325 c 2,19,-1
 157 425 l 2,20,21
 157 445 157 445 173 459 c 128,-1,22
 189 473 189 473 212 473 c 2,23,-1
 1150 473 l 2,24,25
 1173 473 1173 473 1189.5 458 c 128,-1,26
 1206 443 1206 443 1206 420 c 2,27,-1
 1206 331 l 2,28,29
 1206 306 1206 306 1189.5 291 c 128,-1,30
 1173 276 1173 276 1150 276 c 2,31,-1
 212 276 l 2,16,17
EndSplineSet
EndChar

StartChar: greater
Encoding: 62 62 52
Width: 1364
GlyphClass: 2
Flags: W
LayerCount: 2
Fore
SplineSet
1145 475 m 2,0,1
 1215 505 1215 505 1215 584 c 0,2,3
 1215 662 1215 662 1141 696 c 2,4,-1
 319 1067 l 2,5,6
 295 1078 295 1078 276 1078 c 0,7,8
 236 1078 236 1078 222 1040 c 2,9,-1
 198 979 l 2,10,11
 190 958 190 958 190 940 c 0,12,13
 190 897 190 897 237 877 c 2,14,-1
 935 588 l 1,15,-1
 254 307 l 1,16,17
 206 286 206 286 204 243 c 0,18,19
 204 230 204 230 211 213 c 2,20,-1
 237 151 l 2,21,22
 256 108 256 108 293 108 c 0,23,24
 312 108 312 108 336 119 c 2,25,-1
 1145 475 l 2,0,1
EndSplineSet
EndChar

StartChar: question
Encoding: 63 63 53
Width: 1199
GlyphClass: 2
Flags: W
LayerCount: 2
Fore
SplineSet
242 1103 m 2,0,1
 134 1103 134 1103 134 1224 c 0,2,3
 134 1403 134 1403 261 1509 c 0,4,5
 386 1613 386 1613 583 1613 c 0,6,7
 821 1613 821 1613 948 1482 c 0,8,9
 1065 1361 1065 1361 1065 1152 c 0,10,11
 1065 938 1065 938 904 756 c 1,12,13
 764 600 764 600 549 510 c 0,14,15
 533 503 533 503 522.5 503 c 128,-1,16
 512 503 512 503 503.5 506 c 128,-1,17
 495 509 495 509 485 519 c 0,18,19
 461 543 461 543 445 580 c 128,-1,20
 429 617 429 617 429 637.5 c 128,-1,21
 429 658 429 658 452 677.5 c 128,-1,22
 475 697 475 697 512 720 c 0,23,24
 626 791 626 791 674.5 842.5 c 128,-1,25
 723 894 723 894 747.5 933.5 c 128,-1,26
 772 973 772 973 786 1010 c 0,27,28
 812 1076 812 1076 812 1134.5 c 128,-1,29
 812 1193 812 1193 799 1239.5 c 128,-1,30
 786 1286 786 1286 758 1323 c 0,31,32
 694 1407 694 1407 588 1407 c 0,33,34
 367 1407 367 1407 367 1190 c 0,35,36
 367 1144 367 1144 360 1130 c 0,37,38
 346 1103 346 1103 305 1103 c 2,39,-1
 242 1103 l 2,0,1
383 151 m 0,40,41
 383 222 383 222 434 274 c 0,42,43
 483 325 483 325 555 325 c 0,44,45
 626 325 626 325 675 274 c 0,46,47
 725 222 725 222 725 151 c 0,48,49
 725 79 725 79 675 27 c 128,-1,50
 625 -25 625 -25 555 -25 c 0,51,52
 484 -25 484 -25 434 27 c 0,53,54
 383 79 383 79 383 151 c 0,40,41
EndSplineSet
EndChar

StartChar: at
Encoding: 64 64 54
Width: 1701
GlyphClass: 2
Flags: W
LayerCount: 2
Fore
SplineSet
1339 737 m 1,0,1
 1343 765 1343 765 1343 816.5 c 128,-1,2
 1343 868 1343 868 1312.5 927.5 c 128,-1,3
 1282 987 1282 987 1226 1027 c 0,4,5
 1113 1109 1113 1109 922 1109 c 0,6,7
 695 1109 695 1109 526 960 c 0,8,9
 330 787 330 787 330 475 c 0,10,11
 330 151 330 151 541 -32 c 1,12,13
 667 -143 667 -143 848 -174 c 0,14,15
 904 -184 904 -184 968.5 -184 c 128,-1,16
 1033 -184 1033 -184 1088.5 -176.5 c 128,-1,17
 1144 -169 1144 -169 1184.5 -158.5 c 128,-1,18
 1225 -148 1225 -148 1253 -135 c 128,-1,19
 1281 -122 1281 -122 1301 -112 c 2,20,-1
 1336 -94 l 2,21,22
 1352 -86 1352 -86 1366 -86 c 0,23,24
 1392 -86 1392 -86 1411 -124 c 2,25,-1
 1444 -191 l 2,26,27
 1453 -211 1453 -211 1453 -225 c 0,28,29
 1453 -247 1453 -247 1423 -266 c 128,-1,30
 1393 -285 1393 -285 1355 -303 c 128,-1,31
 1317 -321 1317 -321 1261 -338 c 0,32,33
 1123 -380 1123 -380 1006 -380 c 128,-1,34
 889 -380 889 -380 808 -366 c 128,-1,35
 727 -352 727 -352 651 -325 c 0,36,37
 319 -207 319 -207 188 108 c 0,38,39
 120 270 120 270 120 440 c 128,-1,40
 120 610 120 610 152 724.5 c 128,-1,41
 184 839 184 839 239.5 931.5 c 128,-1,42
 295 1024 295 1024 371 1094.5 c 128,-1,43
 447 1165 447 1165 534 1212 c 0,44,45
 710 1308 710 1308 910 1308 c 0,46,47
 1204 1308 1204 1308 1374 1180 c 0,48,49
 1549 1048 1549 1048 1549 817 c 0,50,51
 1549 709 1549 709 1509 585 c 1,52,-1
 1538 504 l 2,53,54
 1604 320 1604 320 1604 193 c 0,55,56
 1604 140 1604 140 1552 140 c 2,57,-1
 1455 140 l 2,58,59
 1416 140 1416 140 1408 155.5 c 128,-1,60
 1400 171 1400 171 1399 183.5 c 128,-1,61
 1398 196 1398 196 1396 214 c 0,62,63
 1389 263 1389 263 1378 320 c 1,64,65
 1300 177 1300 177 1132 131 c 0,66,67
 1074 115 1074 115 1003 115 c 128,-1,68
 932 115 932 115 861 138.5 c 128,-1,69
 790 162 790 162 734 208 c 1,70,71
 611 312 611 312 611 481 c 0,72,73
 611 668 611 668 744 764 c 0,74,75
 854 843 854 843 1033.5 843 c 128,-1,76
 1213 843 1213 843 1339 737 c 1,0,1
875.5 557 m 128,-1,78
 858 527 858 527 858 486.5 c 128,-1,79
 858 446 858 446 872.5 414.5 c 128,-1,80
 887 383 887 383 914 362 c 0,81,82
 968 319 968 319 1036.5 319 c 128,-1,83
 1105 319 1105 319 1149 335 c 128,-1,84
 1193 351 1193 351 1225 376 c 0,85,86
 1294 430 1294 430 1294 490 c 1,87,88
 1288 565 1288 565 1212 608 c 0,89,90
 1142 648 1142 648 1048 648 c 0,91,92
 975 648 975 648 934 617.5 c 128,-1,77
 893 587 893 587 875.5 557 c 128,-1,78
EndSplineSet
EndChar

StartChar: A
Encoding: 65 65 55
Width: 1536
GlyphClass: 2
Flags: W
LayerCount: 2
Fore
SplineSet
83 18.5 m 128,-1,1
 68 37 68 37 68 50.5 c 128,-1,2
 68 64 68 64 71 72 c 2,3,-1
 576 1430 l 2,4,5
 610 1519 610 1519 685 1530 c 0,6,7
 711 1533 711 1533 747 1533 c 2,8,-1
 764 1533 l 2,9,10
 832 1533 832 1533 858 1516 c 0,11,12
 900 1490 900 1490 923 1433 c 2,13,-1
 1466 71 l 2,14,15
 1469 63 1469 63 1469 48.5 c 128,-1,16
 1469 34 1469 34 1457 17 c 128,-1,17
 1445 0 1445 0 1417 0 c 2,18,-1
 1277 0 l 2,19,20
 1231 0 1231 0 1213 43 c 1,21,-1
 1089 368 l 1,22,-1
 432 368 l 1,23,-1
 317 43 l 1,24,25
 303 0 303 0 256 0 c 2,26,-1
 127 0 l 2,27,0
 98 0 98 0 83 18.5 c 128,-1,1
1005 584 m 1,28,-1
 766 1234 l 2,29,30
 763 1244 763 1244 754 1244 c 128,-1,31
 745 1244 745 1244 742 1234 c 2,32,-1
 510 584 l 1,33,-1
 1005 584 l 1,28,-1
EndSplineSet
EndChar

StartChar: B
Encoding: 66 66 56
Width: 1521
GlyphClass: 2
Flags: W
LayerCount: 2
Fore
SplineSet
238 1447 m 2,0,1
 238 1506 238 1506 280 1526 c 0,2,3
 294 1533 294 1533 315 1533 c 2,4,-1
 780 1533 l 2,5,6
 976 1533 976 1533 1114 1450 c 1,7,8
 1282 1351 1282 1351 1282 1147 c 0,9,10
 1282 1008 1282 1008 1202 915 c 1,11,12
 1130 833 1130 833 1018 811 c 1,13,-1
 1018 807 l 1,14,15
 1171 800 1171 800 1272 718 c 1,16,17
 1387 622 1387 622 1387 460 c 0,18,19
 1387 224 1387 224 1214 105 c 0,20,21
 1063 0 1063 0 804 0 c 2,22,-1
 315 0 l 2,23,24
 274 0 274 0 256 25.5 c 128,-1,25
 238 51 238 51 238 86 c 2,26,-1
 238 1447 l 2,0,1
486 881 m 1,27,28
 638 881 638 881 729 887 c 0,29,30
 883 896 883 896 955 955.5 c 128,-1,31
 1027 1015 1027 1015 1027 1122 c 128,-1,32
 1027 1229 1027 1229 950.5 1275.5 c 128,-1,33
 874 1322 874 1322 722 1322 c 2,34,-1
 486 1322 l 1,35,-1
 486 881 l 1,27,28
802 213 m 2,36,37
 1022 213 1022 213 1094 338 c 0,38,39
 1121 384 1121 384 1121 446 c 128,-1,40
 1121 508 1121 508 1104 545 c 128,-1,41
 1087 582 1087 582 1058 608 c 128,-1,42
 1029 634 1029 634 990 649.5 c 128,-1,43
 951 665 951 665 908 674 c 0,44,45
 833 688 833 688 758 688 c 0,46,47
 664 688 664 688 559 683 c 2,48,-1
 486 680 l 1,49,-1
 487 213 l 1,50,-1
 802 213 l 2,36,37
EndSplineSet
EndChar

StartChar: C
Encoding: 67 67 57
Width: 1362
GlyphClass: 2
Flags: W
LayerCount: 2
Fore
SplineSet
1314 1208 m 0,0,1
 1314 1084 1314 1084 1204 1084 c 2,2,-1
 1135 1084 l 2,3,4
 1103 1084 1103 1084 1085.5 1107.5 c 128,-1,5
 1068 1131 1068 1131 1065.5 1172.5 c 128,-1,6
 1063 1214 1063 1214 1040 1248.5 c 128,-1,7
 1017 1283 1017 1283 981 1304 c 0,8,9
 914 1343 914 1343 803 1343 c 128,-1,10
 692 1343 692 1343 610 1296.5 c 128,-1,11
 528 1250 528 1250 478 1172 c 1,12,13
 382 1026 382 1026 382 782 c 0,14,15
 382 343 382 343 668 230 c 0,16,17
 756 196 756 196 840 196 c 0,18,19
 992 196 992 196 1108 251 c 1,20,-1
 1164 277 l 2,21,22
 1191 289 1191 289 1212 289 c 128,-1,23
 1233 289 1233 289 1246 279 c 128,-1,24
 1259 269 1259 269 1278.5 231.5 c 128,-1,25
 1298 194 1298 194 1298 166.5 c 128,-1,26
 1298 139 1298 139 1279 112.5 c 128,-1,27
 1260 86 1260 86 1232 66 c 1,28,29
 1183 34 1183 34 1114 13 c 0,30,31
 988 -25 988 -25 819.5 -25 c 128,-1,32
 651 -25 651 -25 518.5 36 c 128,-1,33
 386 97 386 97 296 205 c 0,34,35
 111 425 111 425 111 782 c 0,36,37
 111 1134 111 1134 298 1344 c 0,38,39
 489 1560 489 1560 824 1560 c 0,40,41
 1008 1560 1008 1560 1150 1478 c 0,42,43
 1314 1384 1314 1384 1314 1208 c 0,0,1
EndSplineSet
EndChar

StartChar: D
Encoding: 68 68 58
Width: 1533
GlyphClass: 2
Flags: W
LayerCount: 2
Fore
SplineSet
238 1446 m 2,0,1
 238 1481 238 1481 261.5 1507 c 128,-1,2
 285 1533 285 1533 327 1533 c 2,3,-1
 644 1533 l 2,4,5
 1040 1533 1040 1533 1240 1337 c 1,6,7
 1430 1149 1430 1149 1430 800 c 0,8,9
 1430 427 1430 427 1216.5 213.5 c 128,-1,10
 1003 0 1003 0 626 0 c 2,11,-1
 327 0 l 2,12,13
 285 0 285 0 261.5 26.5 c 128,-1,14
 238 53 238 53 238 88 c 2,15,-1
 238 1446 l 2,0,1
674 1313 m 2,16,-1
 624 1313 l 2,17,18
 591 1313 591 1313 489 1310 c 1,19,-1
 489 221 l 1,20,-1
 652 218 l 1,21,-1
 658 218 l 2,22,23
 1045 218 1045 218 1134 552 c 0,24,25
 1163 660 1163 660 1163 791.5 c 128,-1,26
 1163 923 1163 923 1131.5 1018.5 c 128,-1,27
 1100 1114 1100 1114 1038 1180 c 0,28,29
 913 1313 913 1313 674 1313 c 2,16,-1
EndSplineSet
EndChar

StartChar: E
Encoding: 69 69 59
Width: 1362
GlyphClass: 2
Flags: W
LayerCount: 2
Fore
SplineSet
234 1469 m 2,0,1
 234 1495 234 1495 250.5 1514 c 128,-1,2
 267 1533 267 1533 290 1533 c 2,3,-1
 1169 1533 l 2,4,5
 1195 1533 1195 1533 1208.5 1516.5 c 128,-1,6
 1222 1500 1222 1500 1222 1476 c 2,7,-1
 1222 1368 l 2,8,9
 1222 1345 1222 1345 1208.5 1328.5 c 128,-1,10
 1195 1312 1195 1312 1169 1312 c 2,11,-1
 485 1312 l 1,12,-1
 485 874 l 1,13,-1
 1029 874 l 2,14,15
 1055 874 1055 874 1068.5 857.5 c 128,-1,16
 1082 841 1082 841 1082 817 c 2,17,-1
 1082 709 l 2,18,19
 1082 686 1082 686 1068.5 669.5 c 128,-1,20
 1055 653 1055 653 1029 653 c 2,21,-1
 485 653 l 1,22,-1
 485 221 l 1,23,-1
 1174 221 l 2,24,25
 1200 221 1200 221 1213.5 204.5 c 128,-1,26
 1227 188 1227 188 1227 164 c 2,27,-1
 1227 56 l 2,28,29
 1227 33 1227 33 1213.5 16.5 c 128,-1,30
 1200 0 1200 0 1174 0 c 2,31,-1
 289 0 l 2,32,33
 266 0 266 0 250 19 c 128,-1,34
 234 38 234 38 234 64 c 2,35,-1
 234 1469 l 2,0,1
EndSplineSet
EndChar

StartChar: F
Encoding: 70 70 60
Width: 1190
GlyphClass: 2
Flags: W
LayerCount: 2
Fore
SplineSet
236 1469 m 2,0,1
 236 1495 236 1495 252.5 1514 c 128,-1,2
 269 1533 269 1533 292 1533 c 2,3,-1
 1104 1533 l 2,4,5
 1130 1533 1130 1533 1143.5 1516.5 c 128,-1,6
 1157 1500 1157 1500 1157 1476 c 2,7,-1
 1157 1367 l 2,8,9
 1157 1344 1157 1344 1143.5 1327.5 c 128,-1,10
 1130 1311 1130 1311 1104 1311 c 2,11,-1
 487 1311 l 1,12,-1
 487 814 l 1,13,-1
 984 814 l 2,14,15
 1010 814 1010 814 1023.5 797 c 128,-1,16
 1037 780 1037 780 1037 757 c 2,17,-1
 1037 649 l 2,18,19
 1037 626 1037 626 1023.5 609.5 c 128,-1,20
 1010 593 1010 593 984 593 c 2,21,-1
 486 593 l 1,22,-1
 486 64 l 2,23,24
 486 38 486 38 469.5 19 c 128,-1,25
 453 0 453 0 430 0 c 2,26,-1
 291 0 l 2,27,28
 268 0 268 0 252 19 c 128,-1,29
 236 38 236 38 236 64 c 2,30,-1
 236 1469 l 2,0,1
EndSplineSet
EndChar

StartChar: G
Encoding: 71 71 61
Width: 1533
GlyphClass: 2
Flags: W
LayerCount: 2
Fore
SplineSet
189.5 443 m 128,-1,1
 139 593 139 593 139 778 c 128,-1,2
 139 963 139 963 191.5 1107 c 128,-1,3
 244 1251 244 1251 338 1351 c 0,4,5
 534 1558 534 1558 858 1558 c 0,6,7
 1121 1558 1121 1558 1276 1434 c 0,8,9
 1342 1380 1342 1380 1373.5 1318 c 128,-1,10
 1405 1256 1405 1256 1405 1222.5 c 128,-1,11
 1405 1189 1405 1189 1403.5 1169 c 128,-1,12
 1402 1149 1402 1149 1392 1130 c 0,13,14
 1367 1085 1367 1085 1298 1085 c 2,15,-1
 1212 1085 l 2,16,17
 1182 1085 1182 1085 1173 1102 c 0,18,19
 1162 1122 1162 1122 1158 1155.5 c 128,-1,20
 1154 1189 1154 1189 1138.5 1220 c 128,-1,21
 1123 1251 1123 1251 1088 1278 c 0,22,23
 1006 1341 1006 1341 871.5 1341 c 128,-1,24
 737 1341 737 1341 654 1298.5 c 128,-1,25
 571 1256 571 1256 516 1181 c 0,26,27
 408 1032 408 1032 408 783 c 128,-1,28
 408 534 408 534 506 378 c 1,29,30
 620 199 620 199 841 199 c 0,31,32
 1080 199 1080 199 1136 328 c 0,33,34
 1153 365 1153 365 1153 400.5 c 128,-1,35
 1153 436 1153 436 1143 471 c 128,-1,36
 1133 506 1133 506 1108 538 c 1,37,38
 1052 614 1052 614 941 641 c 0,39,40
 909 649 909 649 883.5 671.5 c 128,-1,41
 858 694 858 694 858 735 c 2,42,-1
 858 770 l 2,43,44
 858 790 858 790 874 804.5 c 128,-1,45
 890 819 890 819 913 819 c 2,46,-1
 1381 819 l 2,47,48
 1437 819 1437 819 1437 770 c 2,49,-1
 1437 661 l 2,50,51
 1437 641 1437 641 1420.5 629 c 128,-1,52
 1404 617 1404 617 1381 617 c 2,53,-1
 1235 617 l 1,54,55
 1346 567 1346 567 1384 450 c 0,56,57
 1398 407 1398 407 1398 362.5 c 128,-1,58
 1398 318 1398 318 1386 277 c 128,-1,59
 1374 236 1374 236 1347 194 c 128,-1,60
 1320 152 1320 152 1276.5 112.5 c 128,-1,61
 1233 73 1233 73 1170 42 c 0,62,63
 1031 -25 1031 -25 853 -25 c 128,-1,64
 675 -25 675 -25 548 30 c 128,-1,65
 421 85 421 85 330.5 189 c 128,-1,0
 240 293 240 293 189.5 443 c 128,-1,1
EndSplineSet
EndChar

StartChar: H
Encoding: 72 72 62
Width: 1699
GlyphClass: 2
Flags: W
LayerCount: 2
Fore
SplineSet
226 1469 m 2,0,1
 226 1495 226 1495 242.5 1514 c 128,-1,2
 259 1533 259 1533 282 1533 c 2,3,-1
 422 1533 l 2,4,5
 445 1533 445 1533 461 1514 c 128,-1,6
 477 1495 477 1495 477 1469 c 2,7,-1
 477 871 l 1,8,-1
 1222 871 l 1,9,-1
 1222 1469 l 2,10,11
 1222 1495 1222 1495 1238.5 1514 c 128,-1,12
 1255 1533 1255 1533 1278 1533 c 2,13,-1
 1418 1533 l 2,14,15
 1441 1533 1441 1533 1457 1514 c 128,-1,16
 1473 1495 1473 1495 1473 1469 c 2,17,-1
 1473 65 l 2,18,19
 1473 39 1473 39 1456.5 20 c 128,-1,20
 1440 1 1440 1 1417 1 c 2,21,-1
 1277 1 l 2,22,23
 1254 1 1254 1 1238 20 c 128,-1,24
 1222 39 1222 39 1222 65 c 2,25,-1
 1222 650 l 1,26,-1
 477 650 l 1,27,-1
 477 64 l 2,28,29
 477 38 477 38 460.5 19 c 128,-1,30
 444 0 444 0 421 0 c 2,31,-1
 281 0 l 2,32,33
 258 0 258 0 242 19 c 128,-1,34
 226 38 226 38 226 64 c 2,35,-1
 226 1469 l 2,0,1
EndSplineSet
EndChar

StartChar: I
Encoding: 73 73 63
Width: 683
GlyphClass: 2
Flags: W
LayerCount: 2
Fore
SplineSet
216 1469 m 2,0,1
 216 1495 216 1495 232.5 1514 c 128,-1,2
 249 1533 249 1533 272 1533 c 2,3,-1
 412 1533 l 2,4,5
 435 1533 435 1533 451 1514 c 128,-1,6
 467 1495 467 1495 467 1469 c 2,7,-1
 467 64 l 2,8,9
 467 38 467 38 450.5 19 c 128,-1,10
 434 0 434 0 411 0 c 2,11,-1
 271 0 l 2,12,13
 248 0 248 0 232 19 c 128,-1,14
 216 38 216 38 216 64 c 2,15,-1
 216 1469 l 2,0,1
EndSplineSet
EndChar

StartChar: J
Encoding: 74 74 64
Width: 850
GlyphClass: 2
Flags: W
LayerCount: 2
Fore
SplineSet
242 181 m 0,0,1
 418 181 418 181 418 468 c 2,2,-1
 418 1469 l 2,3,4
 418 1495 418 1495 433 1514 c 128,-1,5
 448 1533 448 1533 471 1533 c 2,6,-1
 615 1533 l 2,7,8
 637 1533 637 1533 652 1514 c 128,-1,9
 667 1495 667 1495 667 1469 c 2,10,-1
 667 413 l 2,11,12
 667 191 667 191 558 77 c 0,13,14
 460 -26 460 -26 289 -26 c 0,15,16
 182 -26 182 -26 127 -3.5 c 128,-1,17
 72 19 72 19 51.5 39.5 c 128,-1,18
 31 60 31 60 31 81.5 c 128,-1,19
 31 103 31 103 36 119 c 2,20,-1
 45 149 l 2,21,22
 65 214 65 214 97 214 c 0,23,24
 106 214 106 214 119 209 c 2,25,-1
 150 198 l 2,26,27
 196 181 196 181 242 181 c 0,0,1
EndSplineSet
EndChar

StartChar: K
Encoding: 75 75 65
Width: 1364
GlyphClass: 2
Flags: W
LayerCount: 2
Fore
SplineSet
1269 212 m 2,0,-1
 1309 214 l 1,1,2
 1353 214 1353 214 1364 175 c 0,3,4
 1370 152 1370 152 1376 131.5 c 128,-1,5
 1382 111 1382 111 1382 85.5 c 128,-1,6
 1382 60 1382 60 1367 42 c 128,-1,7
 1352 24 1352 24 1328 11 c 0,8,9
 1169 -75 1169 -75 982 82 c 1,10,11
 829 209 829 209 651 503 c 1,12,-1
 511 743 l 1,13,14
 536 792 536 792 568 848 c 1,15,16
 704 1075 704 1075 786 1184 c 0,17,18
 953 1406 953 1406 1061 1499 c 0,19,20
 1107 1539 1107 1539 1133 1539 c 0,21,22
 1180 1539 1180 1539 1219 1508 c 1,23,-1
 1252 1483 l 2,24,25
 1323 1430 1323 1430 1288 1385 c 0,26,27
 1270 1361 1270 1361 1243 1339 c 128,-1,28
 1216 1317 1216 1317 1192 1293 c 0,29,30
 1100 1199 1100 1199 1050 1143 c 1,31,32
 930 1003 930 1003 883 944 c 1,33,-1
 804 840 l 1,34,35
 771 794 771 794 749 758 c 1,36,-1
 842 620 l 1,37,-1
 907 528 l 1,38,39
 1115 240 1115 240 1230 216 c 0,40,41
 1249 212 1249 212 1269 212 c 2,0,-1
216 1469 m 2,42,43
 216 1495 216 1495 232.5 1514 c 128,-1,44
 249 1533 249 1533 272 1533 c 2,45,-1
 412 1533 l 2,46,47
 435 1533 435 1533 451 1514 c 128,-1,48
 467 1495 467 1495 467 1469 c 2,49,-1
 467 64 l 2,50,51
 467 38 467 38 450.5 19 c 128,-1,52
 434 0 434 0 411 0 c 2,53,-1
 271 0 l 2,54,55
 248 0 248 0 232 19 c 128,-1,56
 216 38 216 38 216 64 c 2,57,-1
 216 1469 l 2,42,43
EndSplineSet
EndChar

StartChar: L
Encoding: 76 76 66
Width: 1195
GlyphClass: 2
Flags: W
LayerCount: 2
Fore
SplineSet
239 1469 m 2,0,1
 239 1495 239 1495 255.5 1514 c 128,-1,2
 272 1533 272 1533 295 1533 c 2,3,-1
 435 1533 l 2,4,5
 458 1533 458 1533 474 1514 c 128,-1,6
 490 1495 490 1495 490 1469 c 2,7,-1
 490 223 l 1,8,-1
 1032 223 l 2,9,10
 1058 223 1058 223 1071.5 206.5 c 128,-1,11
 1085 190 1085 190 1085 166 c 2,12,-1
 1085 56 l 2,13,14
 1085 33 1085 33 1071.5 16.5 c 128,-1,15
 1058 0 1058 0 1032 0 c 2,16,-1
 294 0 l 2,17,18
 271 0 271 0 255 19 c 128,-1,19
 239 38 239 38 239 64 c 2,20,-1
 239 1469 l 2,0,1
EndSplineSet
EndChar

StartChar: M
Encoding: 77 77 67
Width: 2039
GlyphClass: 2
Flags: W
LayerCount: 2
Fore
SplineSet
1909 50 m 0,0,1
 1909 0 1909 0 1874 0 c 2,2,-1
 1708 0 l 2,3,4
 1689 0 1689 0 1675 12 c 128,-1,5
 1661 24 1661 24 1659 42 c 2,6,-1
 1590 640 l 2,7,8
 1577 753 1577 753 1570.5 863 c 128,-1,9
 1564 973 1564 973 1556 1093 c 2,10,-1
 1546 1235 l 2,11,12
 1546 1239 1546 1239 1543.5 1239 c 128,-1,13
 1541 1239 1541 1239 1540 1236 c 2,14,-1
 1495 1072 l 2,15,16
 1481 1022 1481 1022 1464 972 c 1,17,-1
 1152 123 l 2,18,19
 1147 108 1147 108 1132 95 c 128,-1,20
 1117 82 1117 82 1102 82 c 2,21,-1
 945 82 l 2,22,23
 914 82 914 82 895 122 c 1,24,25
 548 935 548 935 525.5 991.5 c 128,-1,26
 503 1048 503 1048 486 1099 c 2,27,-1
 441 1237 l 2,28,29
 440 1240 440 1240 437.5 1240 c 128,-1,30
 435 1240 435 1240 434 1236 c 1,31,-1
 434 1074 l 2,32,33
 434 862 434 862 417 641 c 2,34,-1
 372 42 l 2,35,36
 370 26 370 26 353.5 13 c 128,-1,37
 337 0 337 0 319 0 c 2,38,-1
 181 0 l 2,39,40
 157 0 157 0 141.5 21 c 128,-1,41
 126 42 126 42 129 72 c 2,42,-1
 249 1388 l 2,43,44
 256 1471 256 1471 269 1493 c 0,45,46
 292 1533 292 1533 353 1533 c 2,47,-1
 461 1533 l 2,48,49
 510 1533 510 1533 529 1520 c 0,50,51
 564 1497 564 1497 590 1433 c 2,52,-1
 1021 383 l 1,53,-1
 1398 1434 l 1,54,55
 1431 1533 1431 1533 1510 1533 c 2,56,-1
 1623 1533 l 2,57,58
 1711 1533 1711 1533 1726 1452 c 0,59,60
 1730 1426 1730 1426 1734 1396 c 2,61,-1
 1907 71 l 2,62,63
 1909 61 1909 61 1909 50 c 0,0,1
EndSplineSet
EndChar

StartChar: N
Encoding: 78 78 68
Width: 1701
GlyphClass: 2
Flags: W
LayerCount: 2
Fore
SplineSet
241 1409 m 2,0,1
 241 1533 241 1533 349 1533 c 2,2,-1
 390 1533 l 2,3,4
 431 1533 431 1533 447 1523 c 0,5,6
 477 1505 477 1505 503 1466 c 2,7,-1
 1147 518 l 2,8,9
 1184 464 1184 464 1205 419 c 2,10,-1
 1246 333 l 2,11,12
 1247 331 1247 331 1249.5 331 c 128,-1,13
 1252 331 1252 331 1250 357 c 128,-1,14
 1248 383 1248 383 1240 432.5 c 128,-1,15
 1232 482 1232 482 1232 531 c 2,16,-1
 1232 1472 l 2,17,18
 1232 1498 1232 1498 1247.5 1515.5 c 128,-1,19
 1263 1533 1263 1533 1285 1533 c 2,20,-1
 1417 1533 l 2,21,22
 1438 1533 1438 1533 1453.5 1515.5 c 128,-1,23
 1469 1498 1469 1498 1469 1472 c 2,24,-1
 1469 100 l 2,25,26
 1469 60 1469 60 1444 38 c 0,27,28
 1402 0 1402 0 1368 0 c 2,29,-1
 1307 0 l 2,30,31
 1257 0 1257 0 1234 16 c 1,32,33
 1200 42 1200 42 1150 114 c 0,34,35
 579 949 579 949 538 1016 c 2,36,-1
 455 1155 l 2,37,38
 453 1158 453 1158 449.5 1158 c 128,-1,39
 446 1158 446 1158 449 1143 c 128,-1,40
 452 1128 452 1128 457.5 1092.5 c 128,-1,41
 463 1057 463 1057 468 1014 c 0,42,43
 478 914 478 914 478 828 c 2,44,-1
 478 61 l 2,45,46
 478 36 478 36 462.5 18 c 128,-1,47
 447 0 447 0 425 0 c 2,48,-1
 293 0 l 2,49,50
 272 0 272 0 256.5 18 c 128,-1,51
 241 36 241 36 241 61 c 2,52,-1
 241 1409 l 2,0,1
EndSplineSet
EndChar

StartChar: O
Encoding: 79 79 69
Width: 1709
GlyphClass: 2
Flags: W
LayerCount: 2
Fore
SplineSet
137.5 569.5 m 128,-1,1
 115 671 115 671 115 809.5 c 128,-1,2
 115 948 115 948 168.5 1091 c 128,-1,3
 222 1234 222 1234 320 1338 c 0,4,5
 527 1558 527 1558 856 1558 c 0,6,7
 1206 1558 1206 1558 1405 1333 c 0,8,9
 1594 1120 1594 1120 1594 777 c 0,10,11
 1594 437 1594 437 1386 208 c 0,12,13
 1288 100 1288 100 1151 37.5 c 128,-1,14
 1014 -25 1014 -25 873.5 -25 c 128,-1,15
 733 -25 733 -25 634 4.5 c 128,-1,16
 535 34 535 34 453.5 87.5 c 128,-1,17
 372 141 372 141 309 215 c 128,-1,18
 246 289 246 289 203 378.5 c 128,-1,0
 160 468 160 468 137.5 569.5 c 128,-1,1
386 784 m 0,19,20
 386 669 386 669 413.5 566 c 128,-1,21
 441 463 441 463 498 382 c 0,22,23
 624 205 624 205 853 205 c 0,24,25
 1083 205 1083 205 1208 374 c 0,26,27
 1323 530 1323 530 1323 778 c 0,28,29
 1323 1012 1323 1012 1206 1164 c 1,30,31
 1077 1329 1077 1329 854 1329 c 0,32,33
 639 1329 639 1329 512 1175 c 1,34,35
 386 1024 386 1024 386 784 c 0,19,20
EndSplineSet
EndChar

StartChar: P
Encoding: 80 80 70
Width: 1360
GlyphClass: 2
Flags: W
LayerCount: 2
Fore
SplineSet
480 62 m 2,0,1
 480 0 480 0 412 0 c 2,2,-1
 294 0 l 2,3,4
 259 0 259 0 244 19 c 128,-1,5
 229 38 229 38 229 62 c 2,6,-1
 229 1445 l 2,7,8
 229 1480 229 1480 247.5 1506.5 c 128,-1,9
 266 1533 266 1533 308 1533 c 2,10,-1
 704 1533 l 2,11,12
 984 1533 984 1533 1138 1399 c 0,13,14
 1299 1260 1299 1260 1299 1002 c 0,15,16
 1299 742 1299 742 1118 586 c 0,17,18
 946 437 946 437 683 437 c 0,19,20
 600 437 600 437 480 452 c 1,21,-1
 480 62 l 2,0,1
480 662 m 1,22,-1
 560 653 l 2,23,24
 596 649 596 649 658 649 c 128,-1,25
 720 649 720 649 792 668 c 128,-1,26
 864 687 864 687 918 729 c 0,27,28
 1037 820 1037 820 1037 1001 c 0,29,30
 1037 1230 1037 1230 834 1296 c 0,31,32
 771 1316 771 1316 693 1316 c 2,33,-1
 480 1316 l 1,34,-1
 480 662 l 1,22,-1
EndSplineSet
EndChar

StartChar: Q
Encoding: 81 81 71
Width: 1703
GlyphClass: 2
Flags: W
LayerCount: 2
Fore
SplineSet
1502.5 -78 m 128,-1,1
 1555 -69 1555 -69 1613.5 -69 c 128,-1,2
 1672 -69 1672 -69 1672 -136 c 0,3,4
 1672 -154 1672 -154 1663 -198 c 128,-1,5
 1654 -242 1654 -242 1643 -261.5 c 128,-1,6
 1632 -281 1632 -281 1614 -292 c 0,7,8
 1583 -313 1583 -313 1524 -313 c 128,-1,9
 1465 -313 1465 -313 1406 -308 c 128,-1,10
 1347 -303 1347 -303 1281 -290 c 128,-1,11
 1215 -277 1215 -277 1146 -255.5 c 128,-1,12
 1077 -234 1077 -234 1009 -202 c 0,13,14
 860 -130 860 -130 761 -20 c 1,15,16
 465 11 465 11 285 244 c 0,17,18
 115 465 115 465 115 779 c 0,19,20
 115 1120 115 1120 320 1338 c 0,21,22
 527 1558 527 1558 856 1558 c 0,23,24
 1206 1558 1206 1558 1405 1333 c 0,25,26
 1594 1120 1594 1120 1594 777 c 0,27,28
 1594 481 1594 481 1445 273 c 0,29,30
 1288 54 1288 54 1021 11 c 1,31,32
 1210 -87 1210 -87 1392 -87 c 0,33,0
 1450 -87 1450 -87 1502.5 -78 c 128,-1,1
386 782 m 0,34,35
 386 665 386 665 413.5 560 c 128,-1,36
 441 455 441 455 498 374 c 0,37,38
 624 195 624 195 853 195 c 0,39,40
 1083 195 1083 195 1209 366 c 0,41,42
 1323 521 1323 521 1323 778 c 0,43,44
 1323 1012 1323 1012 1206 1164 c 1,45,46
 1077 1329 1077 1329 854 1329 c 0,47,48
 639 1329 639 1329 512 1175 c 1,49,50
 386 1024 386 1024 386 782 c 0,34,35
EndSplineSet
EndChar

StartChar: R
Encoding: 82 82 72
Width: 1533
GlyphClass: 2
Flags: W
LayerCount: 2
Fore
SplineSet
1259 215 m 1,0,-1
 1362 229 l 1,1,2
 1390 229 1390 229 1401.5 210 c 128,-1,3
 1413 191 1413 191 1418.5 169.5 c 128,-1,4
 1424 148 1424 148 1429 131 c 128,-1,5
 1434 114 1434 114 1434 94 c 128,-1,6
 1434 74 1434 74 1414.5 53.5 c 128,-1,7
 1395 33 1395 33 1365 17 c 0,8,9
 1301 -17 1301 -17 1231.5 -17 c 128,-1,10
 1162 -17 1162 -17 1106 -1 c 128,-1,11
 1050 15 1050 15 1000 43 c 0,12,13
 922 87 922 87 840.5 167 c 128,-1,14
 759 247 759 247 711 304 c 1,15,-1
 546 508 l 2,16,17
 511 550 511 550 483 576 c 1,18,-1
 483 63 l 2,19,20
 483 23 483 23 456 6 c 0,21,22
 446 0 446 0 433 0 c 2,23,-1
 290 0 l 2,24,25
 263 0 263 0 252 16 c 0,26,27
 234 42 234 42 234 63 c 2,28,-1
 234 1445 l 2,29,30
 234 1480 234 1480 252.5 1506.5 c 128,-1,31
 271 1533 271 1533 313 1533 c 2,32,-1
 759 1533 l 2,33,34
 1354 1533 1354 1533 1354 1063 c 0,35,36
 1354 847 1354 847 1194 700 c 0,37,38
 1043 561 1043 561 838 561 c 0,39,40
 802 561 802 561 769 566 c 1,41,-1
 892 436 l 2,42,43
 998 325 998 325 1057 286 c 0,44,45
 1163 215 1163 215 1259 215 c 1,0,-1
483 767 m 1,46,47
 596 741 596 741 687.5 741 c 128,-1,48
 779 741 779 741 851 758 c 128,-1,49
 923 775 923 775 979 812 c 0,50,51
 1103 892 1103 892 1103 1049 c 0,52,53
 1103 1190 1103 1190 996 1258 c 0,54,55
 906 1315 906 1315 752 1315 c 2,56,-1
 483 1315 l 1,57,-1
 483 767 l 1,46,47
EndSplineSet
EndChar

StartChar: S
Encoding: 83 83 73
Width: 1194
GlyphClass: 2
Flags: W
LayerCount: 2
Fore
SplineSet
139 242 m 128,-1,1
 168 291 168 291 178 302 c 0,2,3
 198 326 198 326 218.5 326 c 128,-1,4
 239 326 239 326 262 313 c 128,-1,5
 285 300 285 300 323.5 280.5 c 128,-1,6
 362 261 362 261 406 244 c 0,7,8
 504 207 504 207 577.5 207 c 128,-1,9
 651 207 651 207 697 220 c 128,-1,10
 743 233 743 233 776 259 c 0,11,12
 844 314 844 314 844 413 c 0,13,14
 844 538 844 538 655 626 c 0,15,16
 601 651 601 651 533.5 676.5 c 128,-1,17
 466 702 466 702 391.5 745 c 128,-1,18
 317 788 317 788 258 846 c 0,19,20
 127 976 127 976 127 1152 c 0,21,22
 127 1339 127 1339 280 1452 c 0,23,24
 423 1558 423 1558 617 1558 c 0,25,26
 833 1558 833 1558 972 1464 c 1,27,28
 1048 1414 1048 1414 1048 1371 c 0,29,30
 1048 1348 1048 1348 1021 1297 c 128,-1,31
 994 1246 994 1246 977.5 1228 c 128,-1,32
 961 1210 961 1210 947 1210 c 0,33,34
 922 1210 922 1210 881.5 1237 c 128,-1,35
 841 1264 841 1264 766 1296 c 128,-1,36
 691 1328 691 1328 624 1328 c 128,-1,37
 557 1328 557 1328 516.5 1317 c 128,-1,38
 476 1306 476 1306 446 1284 c 0,39,40
 384 1237 384 1237 384 1147 c 0,41,42
 384 1017 384 1017 562 941 c 1,43,-1
 659 901 l 1,44,45
 854 826 854 826 955 735 c 0,46,47
 1094 609 1094 609 1094 426 c 0,48,49
 1094 222 1094 222 940 94 c 0,50,51
 798 -25 798 -25 607 -25 c 0,52,53
 362 -25 362 -25 190 76 c 0,54,55
 110 122 110 122 110 157.5 c 128,-1,0
 110 193 110 193 139 242 c 128,-1,1
EndSplineSet
EndChar

StartChar: T
Encoding: 84 84 74
Width: 1192
GlyphClass: 2
Flags: W
LayerCount: 2
Fore
SplineSet
468 1315 m 1,0,-1
 107 1315 l 2,1,2
 81 1315 81 1315 62.5 1331.5 c 128,-1,3
 44 1348 44 1348 44 1372 c 2,4,-1
 44 1477 l 2,5,6
 44 1500 44 1500 62.5 1516.5 c 128,-1,7
 81 1533 81 1533 107 1533 c 2,8,-1
 1095 1533 l 2,9,10
 1121 1533 1121 1533 1134.5 1516.5 c 128,-1,11
 1148 1500 1148 1500 1148 1476 c 2,12,-1
 1148 1371 l 2,13,14
 1148 1348 1148 1348 1134 1331.5 c 128,-1,15
 1120 1315 1120 1315 1094 1315 c 2,16,-1
 720 1315 l 1,17,-1
 720 64 l 2,18,19
 720 38 720 38 703.5 19 c 128,-1,20
 687 0 687 0 664 0 c 2,21,-1
 523 0 l 2,22,23
 500 0 500 0 484 19 c 128,-1,24
 468 38 468 38 468 64 c 2,25,-1
 468 1315 l 1,0,-1
EndSplineSet
EndChar

StartChar: U
Encoding: 85 85 75
Width: 1529
GlyphClass: 2
Flags: W
LayerCount: 2
Fore
SplineSet
762 198 m 0,0,1
 1125 198 1125 198 1125 611 c 2,2,-1
 1125 1469 l 2,3,4
 1125 1495 1125 1495 1141.5 1514 c 128,-1,5
 1158 1533 1158 1533 1181 1533 c 2,6,-1
 1318 1533 l 2,7,8
 1341 1533 1341 1533 1357 1514 c 128,-1,9
 1373 1495 1373 1495 1373 1469 c 2,10,-1
 1373 613 l 2,11,12
 1373 305 1373 305 1193 132 c 0,13,14
 1028 -26 1028 -26 763 -26 c 0,15,16
 497 -26 497 -26 330 138 c 0,17,18
 155 309 155 309 155 613 c 2,19,-1
 155 1469 l 2,20,21
 155 1495 155 1495 171.5 1514 c 128,-1,22
 188 1533 188 1533 211 1533 c 2,23,-1
 348 1533 l 2,24,25
 371 1533 371 1533 387 1514 c 128,-1,26
 403 1495 403 1495 403 1469 c 2,27,-1
 403 611 l 2,28,29
 403 404 403 404 504 298 c 1,30,31
 597 198 597 198 762 198 c 0,0,1
EndSplineSet
EndChar

StartChar: V
Encoding: 86 86 76
Width: 1364
GlyphClass: 2
Flags: W
LayerCount: 2
Fore
SplineSet
29 1456 m 2,0,1
 25 1466 25 1466 25 1482.5 c 128,-1,2
 25 1499 25 1499 36.5 1516 c 128,-1,3
 48 1533 48 1533 71 1533 c 2,4,-1
 242 1533 l 2,5,6
 262 1533 262 1533 276.5 1519.5 c 128,-1,7
 291 1506 291 1506 296 1488 c 2,8,-1
 677 236 l 2,9,10
 679 231 679 231 689.5 231 c 128,-1,11
 700 231 700 231 703 237 c 2,12,-1
 812 528 l 1,13,14
 997 1046 997 1046 1070 1467 c 1,15,16
 1080 1533 1080 1533 1145 1533 c 2,17,-1
 1256 1533 l 2,18,19
 1293 1533 1293 1533 1311.5 1515.5 c 128,-1,20
 1330 1498 1330 1498 1330 1482 c 2,21,-1
 1330 1460 l 2,22,23
 1330 1333 1330 1333 1202 937 c 0,24,25
 1170 838 1170 838 1134 740 c 0,26,27
 1037 475 1037 475 997 380 c 2,28,-1
 928 216 l 1,29,30
 879 106 879 106 860.5 73 c 128,-1,31
 842 40 842 40 824 27 c 0,32,33
 788 0 788 0 711 0 c 2,34,-1
 658 0 l 2,35,36
 582 0 582 0 555 17 c 0,37,38
 509 46 509 46 486 111 c 2,39,-1
 29 1456 l 2,0,1
EndSplineSet
EndChar

StartChar: W
Encoding: 87 87 77
Width: 2213
GlyphClass: 2
Flags: W
LayerCount: 2
Fore
SplineSet
102 1429 m 2,0,1
 98 1445 98 1445 98 1470 c 128,-1,2
 98 1495 98 1495 113.5 1514 c 128,-1,3
 129 1533 129 1533 157 1533 c 2,4,-1
 300 1533 l 2,5,6
 348 1533 348 1533 361 1472 c 2,7,-1
 525 742 l 2,8,9
 528 726 528 726 536 688 c 0,10,11
 616 296 616 296 621 267 c 2,12,-1
 628 228 l 2,13,14
 629 219 629 219 637 219 c 0,15,16
 653 219 653 219 662 242 c 0,17,18
 714 375 714 375 750 521 c 2,19,-1
 822 812 l 1,20,21
 856 956 856 956 884 1099.5 c 128,-1,22
 912 1243 912 1243 946 1391 c 0,23,24
 968 1488 968 1488 1069 1488 c 2,25,-1
 1169 1488 l 2,26,27
 1262 1488 1262 1488 1293 1391 c 1,28,29
 1358 1174 1358 1174 1380 1088 c 2,30,-1
 1596 224 l 2,31,32
 1599 208 1599 208 1612 208 c 0,33,34
 1624 208 1624 208 1633.5 234.5 c 128,-1,35
 1643 261 1643 261 1659.5 314 c 128,-1,36
 1676 367 1676 367 1694 432 c 1,37,-1
 1729 568 l 1,38,39
 1786 800 1786 800 1805 944.5 c 128,-1,40
 1824 1089 1824 1089 1830.5 1146 c 128,-1,41
 1837 1203 1837 1203 1840 1248 c 0,42,43
 1846 1319 1846 1319 1846 1376 c 128,-1,44
 1846 1433 1846 1433 1848 1455 c 128,-1,45
 1850 1477 1850 1477 1858 1494 c 0,46,47
 1877 1533 1877 1533 1932 1533 c 2,48,-1
 2023 1533 l 2,49,50
 2096 1533 2096 1533 2106 1467 c 0,51,52
 2110 1446 2110 1446 2110 1420 c 128,-1,53
 2110 1394 2110 1394 2108 1348.5 c 128,-1,54
 2106 1303 2106 1303 2100 1244 c 0,55,56
 2065 857 2065 857 1901 349 c 0,57,58
 1822 104 1822 104 1766 45 c 0,59,60
 1724 0 1724 0 1650 0 c 2,61,-1
 1571 0 l 2,62,63
 1424 0 1424 0 1380 175 c 2,64,-1
 1124 1196 l 2,65,66
 1123 1201 1123 1201 1118 1201 c 256,67,68
 1113 1201 1113 1201 1113 1196 c 2,69,-1
 1058 898 l 1,70,71
 986 485 986 485 871 170 c 0,72,73
 834 66 834 66 810 42 c 0,74,75
 768 0 768 0 685 0 c 2,76,-1
 605 0 l 2,77,78
 530 0 530 0 489 38.5 c 128,-1,79
 448 77 448 77 426 166 c 2,80,-1
 102 1429 l 2,0,1
EndSplineSet
EndChar

StartChar: X
Encoding: 88 88 78
Width: 1363
GlyphClass: 2
Flags: W
LayerCount: 2
Fore
SplineSet
95 14 m 128,-1,1
 83 28 83 28 83 49 c 128,-1,2
 83 70 83 70 96 90 c 2,3,-1
 527 781 l 1,4,-1
 78 1443 l 2,5,6
 64 1463 64 1463 64 1483.5 c 128,-1,7
 64 1504 64 1504 76.5 1518.5 c 128,-1,8
 89 1533 89 1533 111 1533 c 2,9,-1
 264 1533 l 2,10,11
 300 1533 300 1533 315.5 1517 c 128,-1,12
 331 1501 331 1501 341 1485 c 2,13,-1
 668 963 l 1,14,-1
 977 1485 l 1,15,16
 1001 1533 1001 1533 1052 1533 c 2,17,-1
 1201 1533 l 2,18,19
 1223 1533 1223 1533 1235.5 1519 c 128,-1,20
 1248 1505 1248 1505 1248 1484.5 c 128,-1,21
 1248 1464 1248 1464 1236 1445 c 2,22,-1
 815 787 l 1,23,-1
 1291 90 l 2,24,25
 1304 70 1304 70 1304 49.5 c 128,-1,26
 1304 29 1304 29 1292 14.5 c 128,-1,27
 1280 0 1280 0 1258 0 c 2,28,-1
 1103 0 l 2,29,30
 1069 0 1069 0 1053.5 16 c 128,-1,31
 1038 32 1038 32 1028 48 c 2,32,-1
 674 594 l 1,33,-1
 344 48 l 2,34,35
 334 32 334 32 318.5 16 c 128,-1,36
 303 0 303 0 267 0 c 2,37,-1
 129 0 l 2,38,0
 107 0 107 0 95 14 c 128,-1,1
EndSplineSet
EndChar

StartChar: Y
Encoding: 89 89 79
Width: 1355
GlyphClass: 2
Flags: W
LayerCount: 2
Fore
SplineSet
569 515 m 1,0,-1
 25 1452 l 2,1,2
 16 1467 16 1467 16 1485 c 128,-1,3
 16 1503 16 1503 29 1518 c 128,-1,4
 42 1533 42 1533 62 1533 c 2,5,-1
 223 1533 l 2,6,7
 264 1533 264 1533 280 1506 c 0,8,9
 284 1498 284 1498 289 1490 c 2,10,-1
 688 759 l 2,11,12
 692 750 692 750 695.5 750 c 128,-1,13
 699 750 699 750 755 840.5 c 128,-1,14
 811 931 811 931 902 1108 c 128,-1,15
 993 1285 993 1285 1069 1473 c 0,16,17
 1081 1503 1081 1503 1097 1518 c 128,-1,18
 1113 1533 1113 1533 1145 1533 c 2,19,-1
 1300 1533 l 2,20,21
 1324 1533 1324 1533 1336 1516.5 c 128,-1,22
 1348 1500 1348 1500 1348 1479.5 c 128,-1,23
 1348 1459 1348 1459 1340 1441 c 0,24,25
 1081 906 1081 906 818 530 c 1,26,-1
 818 64 l 2,27,28
 818 37 818 37 801.5 18.5 c 128,-1,29
 785 0 785 0 762 0 c 2,30,-1
 624 0 l 2,31,32
 601 0 601 0 585 19 c 128,-1,33
 569 38 569 38 569 64 c 2,34,-1
 569 515 l 1,0,-1
EndSplineSet
EndChar

StartChar: Z
Encoding: 90 90 80
Width: 1193
GlyphClass: 2
Flags: W
LayerCount: 2
Fore
SplineSet
992 1533 m 2,0,1
 1094 1533 1094 1533 1094 1446 c 2,2,-1
 1094 1399 l 2,3,4
 1094 1354 1094 1354 1079 1322.5 c 128,-1,5
 1064 1291 1064 1291 1044 1260 c 2,6,-1
 439 327 l 1,7,-1
 366 234 l 2,8,9
 353 216 353 216 353 210 c 128,-1,10
 353 204 353 204 364.5 204 c 128,-1,11
 376 204 376 204 392 207 c 2,12,-1
 428 214 l 1,13,14
 480 223 480 223 508 223 c 2,15,-1
 1044 223 l 2,16,17
 1082 223 1082 223 1103 210.5 c 128,-1,18
 1124 198 1124 198 1124 157 c 2,19,-1
 1124 53 l 2,20,21
 1124 14 1124 14 1083 3 c 0,22,23
 1072 0 1072 0 1063 0 c 2,24,-1
 182 0 l 2,25,26
 125 0 125 0 94 48 c 0,27,28
 83 64 83 64 78.5 92 c 128,-1,29
 74 120 74 120 74 156 c 0,30,31
 74 203 74 203 108 259 c 1,32,-1
 714 1199 l 1,33,-1
 794 1305 l 2,34,35
 800 1312 800 1312 800 1317 c 128,-1,36
 800 1322 800 1322 787 1322 c 2,37,-1
 641 1312 l 1,38,-1
 176 1312 l 2,39,40
 132 1312 132 1312 119 1324 c 0,41,42
 95 1344 95 1344 95 1388 c 2,43,-1
 95 1483 l 2,44,45
 95 1512 95 1512 110.5 1522.5 c 128,-1,46
 126 1533 126 1533 161 1533 c 2,47,-1
 992 1533 l 2,0,1
EndSplineSet
EndChar

StartChar: bracketleft
Encoding: 91 91 81
Width: 854
GlyphClass: 2
Flags: W
LayerCount: 2
Fore
SplineSet
207 1833 m 2,0,1
 207 1859 207 1859 223.5 1878 c 128,-1,2
 240 1897 240 1897 263 1897 c 2,3,-1
 653 1897 l 2,4,5
 679 1897 679 1897 698 1880.5 c 128,-1,6
 717 1864 717 1864 717 1841 c 2,7,-1
 717 1774 l 2,8,9
 717 1751 717 1751 698 1735 c 128,-1,10
 679 1719 679 1719 653 1719 c 2,11,-1
 417 1719 l 1,12,-1
 417 -144 l 1,13,-1
 653 -144 l 2,14,15
 679 -144 679 -144 698 -160.5 c 128,-1,16
 717 -177 717 -177 717 -200 c 2,17,-1
 717 -266 l 2,18,19
 717 -289 717 -289 698 -305 c 128,-1,20
 679 -321 679 -321 653 -321 c 2,21,-1
 262 -321 l 2,22,23
 239 -321 239 -321 223 -302 c 128,-1,24
 207 -283 207 -283 207 -257 c 2,25,-1
 207 1833 l 2,0,1
EndSplineSet
EndChar

StartChar: backslash
Encoding: 92 92 82
Width: 853
GlyphClass: 2
Flags: W
LayerCount: 2
Fore
SplineSet
275 1586 m 2,0,1
 265 1628 265 1628 214 1628 c 0,2,3
 204 1628 204 1628 199 1627 c 2,4,-1
 114 1609 l 2,5,6
 66 1599 66 1599 66 1552 c 0,7,8
 66 1546 66 1546 68 1536 c 2,9,-1
 493 -88 l 2,10,11
 503 -130 503 -130 551 -130 c 2,12,-1
 560 -130 l 2,13,14
 563 -130 563 -130 568 -128 c 2,15,-1
 648 -106 l 2,16,17
 694 -94 694 -94 694 -46 c 0,18,19
 694 -33 694 -33 691 -22 c 2,20,-1
 275 1586 l 2,0,1
EndSplineSet
EndChar

StartChar: bracketright
Encoding: 93 93 83
Width: 854
GlyphClass: 2
Flags: W
LayerCount: 2
Fore
SplineSet
647 1833 m 2,0,1
 647 1859 647 1859 630.5 1878 c 128,-1,2
 614 1897 614 1897 591 1897 c 2,3,-1
 201 1897 l 2,4,5
 175 1897 175 1897 156 1880.5 c 128,-1,6
 137 1864 137 1864 137 1841 c 2,7,-1
 137 1774 l 2,8,9
 137 1751 137 1751 156 1735 c 128,-1,10
 175 1719 175 1719 201 1719 c 2,11,-1
 437 1719 l 1,12,-1
 437 -144 l 1,13,-1
 201 -144 l 2,14,15
 175 -144 175 -144 156 -160.5 c 128,-1,16
 137 -177 137 -177 137 -200 c 2,17,-1
 137 -266 l 2,18,19
 137 -289 137 -289 156 -305 c 128,-1,20
 175 -321 175 -321 201 -321 c 2,21,-1
 592 -321 l 2,22,23
 615 -321 615 -321 631 -302 c 128,-1,24
 647 -283 647 -283 647 -257 c 2,25,-1
 647 1833 l 2,0,1
EndSplineSet
EndChar

StartChar: asciicircum
Encoding: 94 94 84
Width: 1022
GlyphClass: 2
Flags: W
LayerCount: 2
Fore
SplineSet
79 535 m 2,0,1
 41 549 41 549 41 576.5 c 128,-1,2
 41 604 41 604 50 627 c 2,3,-1
 385 1479 l 2,4,5
 405 1529 405 1529 452 1533 c 0,6,7
 465 1534 465 1534 476 1534 c 2,8,-1
 528 1534 l 2,9,10
 581 1534 581 1534 600.5 1516 c 128,-1,11
 620 1498 620 1498 629 1476 c 2,12,-1
 971 627 l 2,13,14
 981 602 981 602 981 586 c 0,15,16
 981 550 981 550 946 538 c 2,17,-1
 868 509 l 2,18,19
 851 502 851 502 834 502 c 0,20,21
 795 502 795 502 779 546 c 2,22,-1
 509 1277 l 1,23,-1
 239 548 l 2,24,25
 223 502 223 502 183 502 c 0,26,27
 167 502 167 502 156 507 c 2,28,-1
 79 535 l 2,0,1
EndSplineSet
EndChar

StartChar: underscore
Encoding: 95 95 85
Width: 1533
GlyphClass: 2
Flags: W
LayerCount: 2
Fore
SplineSet
1536 -170 m 2,0,1
 1559 -170 1559 -170 1575.5 -184.5 c 128,-1,2
 1592 -199 1592 -199 1592 -219 c 2,3,-1
 1592 -314 l 2,4,5
 1592 -334 1592 -334 1575.5 -348 c 128,-1,6
 1559 -362 1559 -362 1536 -362 c 2,7,-1
 -3 -362 l 2,8,9
 -26 -362 -26 -362 -42 -347.5 c 128,-1,10
 -58 -333 -58 -333 -58 -313 c 2,11,-1
 -58 -218 l 2,12,13
 -58 -198 -58 -198 -42 -184 c 128,-1,14
 -26 -170 -26 -170 -3 -170 c 2,15,-1
 1536 -170 l 2,0,1
EndSplineSet
EndChar

StartChar: grave
Encoding: 96 96 86
Width: 687
GlyphClass: 2
Flags: W
LayerCount: 2
Fore
SplineSet
53 1510 m 2,0,1
 16 1533 16 1533 14.5 1561.5 c 128,-1,2
 13 1590 13 1590 25 1605 c 2,3,-1
 100 1700 l 2,4,5
 117 1722 117 1722 137 1722 c 0,6,7
 174 1722 174 1722 199 1699 c 2,8,-1
 508 1418 l 2,9,10
 528 1400 528 1400 528 1386.5 c 128,-1,11
 528 1373 528 1373 521 1363 c 2,12,-1
 472 1295 l 2,13,14
 463 1281 463 1281 446 1281 c 128,-1,15
 429 1281 429 1281 416 1289 c 2,16,-1
 53 1510 l 2,0,1
EndSplineSet
EndChar

StartChar: a
Encoding: 97 97 87
Width: 1195
GlyphClass: 2
Flags: W
LayerCount: 2
Fore
SplineSet
1091 53 m 1,0,1
 1091 0 1091 0 1039 0 c 2,2,-1
 942 0 l 2,3,4
 903 0 903 0 895 15.5 c 128,-1,5
 887 31 887 31 886 43.5 c 128,-1,6
 885 56 885 56 882 74 c 0,7,8
 876 123 876 123 865 180 c 1,9,10
 787 37 787 37 620 -9 c 0,11,12
 561 -25 561 -25 490 -25 c 128,-1,13
 419 -25 419 -25 348 -1.5 c 128,-1,14
 277 22 277 22 222 68 c 0,15,16
 98 172 98 172 98 341 c 0,17,18
 98 526 98 526 234 624 c 1,19,20
 346 703 346 703 522 703 c 128,-1,21
 698 703 698 703 820 600 c 1,22,23
 823 634 823 634 823 685 c 128,-1,24
 823 736 823 736 803 787 c 128,-1,25
 783 838 783 838 746 872 c 1,26,27
 670 939 670 939 534 939 c 0,28,29
 412 939 412 939 286 872 c 0,30,31
 262 859 262 859 244 859 c 0,32,33
 217 859 217 859 192 912 c 1,34,35
 165 966 165 966 165 990 c 0,36,37
 165 1034 165 1034 231 1075 c 0,38,39
 357 1153 357 1153 568 1153 c 0,40,41
 760 1153 760 1153 886 1048 c 1,42,43
 1035 922 1035 922 1035 692 c 0,44,45
 1035 590 1035 590 1002 435 c 1,46,47
 1087 193 1087 193 1091 53 c 1,0,1
362.5 417 m 128,-1,49
 345 387 345 387 345 346.5 c 128,-1,50
 345 306 345 306 359.5 274.5 c 128,-1,51
 374 243 374 243 400 222 c 0,52,53
 455 179 455 179 523.5 179 c 128,-1,54
 592 179 592 179 636 195 c 128,-1,55
 680 211 680 211 712 236 c 0,56,57
 781 290 781 290 781 350 c 1,58,59
 775 425 775 425 698 468 c 1,60,61
 629 508 629 508 535 508 c 0,62,63
 462 508 462 508 421 477.5 c 128,-1,48
 380 447 380 447 362.5 417 c 128,-1,49
EndSplineSet
EndChar

StartChar: b
Encoding: 98 98 88
Width: 1365
GlyphClass: 2
Flags: W
LayerCount: 2
Fore
SplineSet
263 0 m 2,0,1
 203 0 203 0 203 77 c 2,2,-1
 203 1708 l 2,3,4
 203 1735 203 1735 218 1754 c 128,-1,5
 233 1773 233 1773 256 1773 c 2,6,-1
 392 1773 l 2,7,8
 415 1773 415 1773 430.5 1754 c 128,-1,9
 446 1735 446 1735 446 1708 c 2,10,-1
 446 977 l 1,11,12
 574 1153 574 1153 812 1153 c 0,13,14
 1030 1153 1030 1153 1146 992 c 0,15,16
 1251 846 1251 846 1251 603 c 0,17,18
 1251 319 1251 319 1114 146 c 0,19,20
 979 -24 979 -24 772 -24 c 0,21,22
 660 -24 660 -24 564.5 26.5 c 128,-1,23
 469 77 469 77 410 181 c 1,24,25
 408 150 408 150 404.5 120 c 128,-1,26
 401 90 401 90 400 62 c 0,27,28
 396 0 396 0 319 0 c 2,29,-1
 263 0 l 2,0,1
453 713.5 m 128,-1,31
 431 645 431 645 431 570.5 c 128,-1,32
 431 496 431 496 453 426.5 c 128,-1,33
 475 357 475 357 514 302 c 0,34,35
 600 182 600 182 727 182 c 0,36,37
 869 182 869 182 940 306 c 0,38,39
 998 409 998 409 998 572 c 0,40,41
 998 841 998 841 860 918 c 0,42,43
 812 945 812 945 743 945 c 128,-1,44
 674 945 674 945 616 915 c 128,-1,45
 558 885 558 885 516.5 833.5 c 128,-1,30
 475 782 475 782 453 713.5 c 128,-1,31
EndSplineSet
EndChar

StartChar: c
Encoding: 99 99 89
Width: 1193
GlyphClass: 2
Flags: W
LayerCount: 2
Fore
SplineSet
935 683 m 2,0,1
 853 683 853 683 853 764 c 0,2,3
 853 857 853 857 796 906 c 0,4,5
 747 949 747 949 664.5 949 c 128,-1,6
 582 949 582 949 528 915 c 128,-1,7
 474 881 474 881 440 828 c 0,8,9
 374 724 374 724 374 578 c 0,10,11
 374 305 374 305 540 220 c 0,12,13
 600 189 600 189 673 189 c 128,-1,14
 746 189 746 189 793 205 c 128,-1,15
 840 221 840 221 877 240 c 128,-1,16
 914 259 914 259 941.5 275 c 128,-1,17
 969 291 969 291 987 291 c 0,18,19
 1023 291 1023 291 1044 258 c 1,20,-1
 1066 221 l 2,21,22
 1081 195 1081 195 1081 170.5 c 128,-1,23
 1081 146 1081 146 1061 119.5 c 128,-1,24
 1041 93 1041 93 1007.5 71 c 128,-1,25
 974 49 974 49 931 31 c 128,-1,26
 888 13 888 13 842 0 c 0,27,28
 622 -59 622 -59 440 18 c 0,29,30
 236 104 236 104 159 326 c 0,31,32
 121 436 121 436 121 572 c 128,-1,33
 121 708 121 708 161.5 816 c 128,-1,34
 202 924 202 924 274 999 c 0,35,36
 423 1153 423 1153 663 1153 c 0,37,38
 875 1153 875 1153 988 1042 c 1,39,40
 1083 947 1083 947 1083 804 c 0,41,42
 1083 683 1083 683 959 683 c 2,43,-1
 935 683 l 2,0,1
EndSplineSet
EndChar

StartChar: d
Encoding: 100 100 90
Width: 1364
GlyphClass: 2
Flags: W
LayerCount: 2
Fore
SplineSet
931 987 m 1,0,-1
 931 1710 l 2,1,2
 931 1736 931 1736 946.5 1754.5 c 128,-1,3
 962 1773 962 1773 985 1773 c 2,4,-1
 1124 1773 l 2,5,6
 1147 1773 1147 1773 1162 1754.5 c 128,-1,7
 1177 1736 1177 1736 1177 1710 c 2,8,-1
 1177 428 l 2,9,10
 1177 226 1177 226 1209 93 c 0,11,12
 1212 79 1212 79 1212 57.5 c 128,-1,13
 1212 36 1212 36 1193.5 18 c 128,-1,14
 1175 0 1175 0 1146 0 c 2,15,-1
 1097 0 l 2,16,17
 1038 0 1038 0 1018 48 c 0,18,19
 992 109 992 109 975 209 c 1,20,21
 898 46 898 46 716 -8 c 0,22,23
 656 -25 656 -25 566.5 -25 c 128,-1,24
 477 -25 477 -25 388.5 21 c 128,-1,25
 300 67 300 67 238 146 c 0,26,27
 111 310 111 310 111 554 c 0,28,29
 111 806 111 806 234 972 c 0,30,31
 367 1153 367 1153 589 1153 c 128,-1,32
 811 1153 811 1153 931 987 c 1,0,-1
367 547 m 0,33,34
 367 479 367 479 383.5 414 c 128,-1,35
 400 349 400 349 434 298 c 0,36,37
 510 182 510 182 644 182 c 0,38,39
 766 182 766 182 858 288 c 1,40,41
 956 398 956 398 956 548 c 0,42,43
 956 730 956 730 861 840 c 0,44,45
 770 945 770 945 637 945 c 0,46,47
 498 945 498 945 426 814 c 1,48,49
 367 704 367 704 367 547 c 0,33,34
EndSplineSet
EndChar

StartChar: e
Encoding: 101 101 91
Width: 1195
GlyphClass: 2
Flags: W
LayerCount: 2
Fore
SplineSet
352 509 m 1,0,-1
 351 490 l 1,1,2
 351 353 351 353 438 270 c 0,3,4
 529 182 529 182 685 182 c 0,5,6
 827 182 827 182 949 267 c 0,7,8
 972 283 972 283 990 283 c 0,9,10
 1027 283 1027 283 1046 246 c 1,11,-1
 1073 190 l 2,12,13
 1082 170 1082 170 1082 147 c 128,-1,14
 1082 124 1082 124 1061.5 99.5 c 128,-1,15
 1041 75 1041 75 1008 55 c 128,-1,16
 975 35 975 35 931.5 20 c 128,-1,17
 888 5 888 5 842 -5 c 0,18,19
 750 -25 750 -25 650 -25 c 128,-1,20
 550 -25 550 -25 448.5 13 c 128,-1,21
 347 51 347 51 273 124 c 0,22,23
 114 279 114 279 114 543 c 0,24,25
 114 1006 114 1006 440 1119 c 0,26,27
 542 1154 542 1154 649.5 1154 c 128,-1,28
 757 1154 757 1154 832.5 1131 c 128,-1,29
 908 1108 908 1108 963 1063 c 0,30,31
 1079 968 1079 968 1079 798 c 0,32,33
 1079 631 1079 631 943 543 c 0,34,35
 824 466 824 466 629 466 c 0,36,37
 509 466 509 466 352 509 c 1,0,-1
844 801 m 0,38,39
 844 944 844 944 652 944 c 0,40,41
 469 944 469 944 396 810 c 0,42,43
 370 763 370 763 362 694 c 1,44,45
 448 651 448 651 581 651 c 0,46,47
 844 651 844 651 844 801 c 0,38,39
EndSplineSet
EndChar

StartChar: f
Encoding: 102 102 92
Width: 851
GlyphClass: 2
Flags: W
LayerCount: 2
Fore
SplineSet
826 976 m 2,0,1
 826 920 826 920 763 920 c 2,2,-1
 519 920 l 1,3,-1
 519 71 l 2,4,5
 519 39 519 39 501 19.5 c 128,-1,6
 483 0 483 0 451 0 c 2,7,-1
 353 0 l 2,8,9
 318 0 318 0 299 19.5 c 128,-1,10
 280 39 280 39 280 71 c 2,11,-1
 280 920 l 1,12,-1
 139 920 l 2,13,14
 76 920 76 920 76 977 c 2,15,-1
 76 1033 l 2,16,17
 76 1056 76 1056 88.5 1067.5 c 128,-1,18
 101 1079 101 1079 135 1089 c 1,19,-1
 284 1113 l 1,20,21
 233 1247 233 1247 224.5 1311.5 c 128,-1,22
 216 1376 216 1376 216 1434.5 c 128,-1,23
 216 1493 216 1493 242 1557 c 128,-1,24
 268 1621 268 1621 318 1670 c 0,25,26
 430 1780 430 1780 616 1780 c 0,27,28
 763 1780 763 1780 869 1717 c 0,29,30
 928 1681 928 1681 928 1652.5 c 128,-1,31
 928 1624 928 1624 910 1599 c 2,32,-1
 862 1531 l 2,33,34
 842 1504 842 1504 824.5 1504 c 128,-1,35
 807 1504 807 1504 791 1514 c 128,-1,36
 775 1524 775 1524 753 1536 c 0,37,38
 694 1568 694 1568 617 1568 c 0,39,40
 448 1568 448 1568 448 1355 c 0,41,42
 448 1252 448 1252 494 1128 c 1,43,-1
 763 1128 l 2,44,45
 826 1128 826 1128 826 1073 c 2,46,-1
 826 976 l 2,0,1
EndSplineSet
EndChar

StartChar: g
Encoding: 103 103 93
Width: 1193
GlyphClass: 2
Flags: W
LayerCount: 2
Fore
SplineSet
459 107 m 1,0,1
 553 153 553 153 658.5 153 c 128,-1,2
 764 153 764 153 846.5 133.5 c 128,-1,3
 929 114 929 114 995 72 c 0,4,5
 1143 -22 1143 -22 1143 -191 c 0,6,7
 1143 -367 1143 -367 975 -474 c 0,8,9
 826 -568 826 -568 617 -568 c 0,10,11
 404 -568 404 -568 262 -476 c 0,12,13
 109 -376 109 -376 109 -204 c 0,14,15
 109 5 109 5 330 200 c 0,16,17
 416 275 416 275 520 335 c 1,18,19
 357 350 357 350 242 450 c 0,20,21
 113 563 113 563 113 731 c 0,22,23
 113 924 113 924 258 1044 c 0,24,25
 391 1153 391 1153 575 1153 c 0,26,27
 773 1153 773 1153 886 1046 c 0,28,29
 921 1013 921 1013 942 971 c 1,30,31
 942 1063 942 1063 918.5 1161.5 c 128,-1,32
 895 1260 895 1260 895 1279 c 128,-1,33
 895 1298 895 1298 902.5 1309.5 c 128,-1,34
 910 1321 910 1321 920 1327 c 0,35,36
 935 1336 935 1336 954 1336 c 2,37,-1
 1040 1336 l 2,38,39
 1123 1336 1123 1336 1123 1105 c 0,40,41
 1123 920 1123 920 1049 764 c 1,42,43
 1051 742 1051 742 1051 706 c 128,-1,44
 1051 670 1051 670 1035 622 c 128,-1,45
 1019 574 1019 574 992.5 532.5 c 128,-1,46
 966 491 966 491 931.5 456 c 128,-1,47
 897 421 897 421 858.5 391 c 128,-1,48
 820 361 820 361 781 336 c 0,49,50
 562 197 562 197 519 162.5 c 128,-1,51
 476 128 476 128 459 107 c 1,0,1
492.5 526.5 m 128,-1,53
 538 511 538 511 589.5 511 c 128,-1,54
 641 511 641 511 684 526.5 c 128,-1,55
 727 542 727 542 760 572 c 0,56,57
 830 635 830 635 830 734 c 0,58,59
 830 835 830 835 752 893 c 0,60,61
 683 944 683 944 582 944 c 0,62,63
 422 944 422 944 361 825 c 0,64,65
 341 786 341 786 341 734.5 c 128,-1,66
 341 683 341 683 360 642 c 128,-1,67
 379 601 379 601 413 571.5 c 128,-1,52
 447 542 447 542 492.5 526.5 c 128,-1,53
365 -78 m 1,68,69
 328 -120 328 -120 328 -171 c 128,-1,70
 328 -222 328 -222 353 -258 c 128,-1,71
 378 -294 378 -294 419 -318 c 0,72,73
 498 -363 498 -363 617 -363 c 0,74,75
 805 -363 805 -363 879 -270 c 0,76,77
 903 -239 903 -239 903 -192 c 128,-1,78
 903 -145 903 -145 873.5 -112 c 128,-1,79
 844 -79 844 -79 800 -61 c 0,80,81
 727 -31 727 -31 610 -31 c 0,82,83
 430 -31 430 -31 365 -78 c 1,68,69
EndSplineSet
EndChar

StartChar: h
Encoding: 104 104 94
Width: 1364
GlyphClass: 2
Flags: W
LayerCount: 2
Fore
SplineSet
214 1710 m 2,0,1
 214 1737 214 1737 229.5 1755 c 128,-1,2
 245 1773 245 1773 267 1773 c 2,3,-1
 404 1773 l 2,4,5
 427 1773 427 1773 442 1755 c 128,-1,6
 457 1737 457 1737 457 1710 c 2,7,-1
 457 953 l 1,8,9
 543 1099 543 1099 710 1140 c 0,10,11
 763 1153 763 1153 844.5 1153 c 128,-1,12
 926 1153 926 1153 997 1117.5 c 128,-1,13
 1068 1082 1068 1082 1110 1020 c 0,14,15
 1185 907 1185 907 1185 687 c 2,16,-1
 1185 66 l 2,17,18
 1185 36 1185 36 1167 18 c 128,-1,19
 1149 0 1149 0 1114 0 c 2,20,-1
 1016 0 l 2,21,22
 978 0 978 0 960 19 c 128,-1,23
 942 38 942 38 942 66 c 2,24,-1
 942 688 l 2,25,26
 942 944 942 944 754 944 c 0,27,28
 649 944 649 944 556 852 c 1,29,30
 457 752 457 752 457 622 c 2,31,-1
 457 66 l 2,32,33
 457 38 457 38 440 19 c 128,-1,34
 423 0 423 0 385 0 c 2,35,-1
 276 0 l 2,36,37
 247 0 247 0 230.5 19 c 128,-1,38
 214 38 214 38 214 66 c 2,39,-1
 214 1710 l 2,0,1
EndSplineSet
EndChar

StartChar: i
Encoding: 105 105 95
Width: 683
GlyphClass: 2
Flags: W
LayerCount: 2
Fore
SplineSet
306 1321 m 0,0,1
 238 1321 238 1321 190 1368 c 0,2,3
 142 1414 142 1414 142 1484 c 0,4,5
 142 1552 142 1552 190 1600 c 0,6,7
 236 1646 236 1646 306 1646 c 0,8,9
 413 1646 413 1646 456 1548 c 0,10,11
 469 1519 469 1519 469 1484 c 0,12,13
 469 1414 469 1414 421 1368 c 0,14,15
 373 1321 373 1321 306 1321 c 0,0,1
423 275 m 2,16,17
 423 204 423 204 470 204 c 0,18,19
 486 204 486 204 506 213 c 0,20,21
 545 230 545 230 559 230 c 0,22,23
 580 230 580 230 593 201 c 2,24,-1
 624 131 l 2,25,26
 632 114 632 114 632 99 c 0,27,28
 632 56 632 56 558 19 c 0,29,30
 488 -17 488 -17 419.5 -17 c 128,-1,31
 351 -17 351 -17 310 -2 c 128,-1,32
 269 13 269 13 240 48 c 0,33,34
 182 120 182 120 182 282 c 2,35,-1
 182 1062 l 2,36,37
 182 1090 182 1090 198 1109 c 128,-1,38
 214 1128 214 1128 236 1128 c 2,39,-1
 370 1128 l 2,40,41
 393 1128 393 1128 408 1109 c 128,-1,42
 423 1090 423 1090 423 1062 c 2,43,-1
 423 275 l 2,16,17
EndSplineSet
EndChar

StartChar: j
Encoding: 106 106 96
Width: 683
GlyphClass: 2
Flags: W
LayerCount: 2
Fore
SplineSet
349 1321 m 0,0,1
 281 1321 281 1321 233 1368 c 0,2,3
 185 1414 185 1414 185 1484 c 0,4,5
 185 1552 185 1552 233 1600 c 0,6,7
 279 1646 279 1646 349 1646 c 0,8,9
 456 1646 456 1646 499 1548 c 0,10,11
 512 1519 512 1519 512 1484 c 0,12,13
 512 1414 512 1414 464 1368 c 0,14,15
 416 1321 416 1321 349 1321 c 0,0,1
127 -360 m 0,16,17
 230 -360 230 -360 230 -171 c 2,18,-1
 230 1062 l 2,19,20
 230 1091 230 1091 245 1109.5 c 128,-1,21
 260 1128 260 1128 283 1128 c 2,22,-1
 420 1128 l 2,23,24
 442 1128 442 1128 458 1109.5 c 128,-1,25
 474 1091 474 1091 474 1062 c 2,26,-1
 474 -131 l 2,27,28
 474 -343 474 -343 388 -458 c 0,29,30
 306 -568 306 -568 165 -568 c 0,31,32
 48 -568 48 -568 -21 -516 c 1,33,34
 -58 -485 -58 -485 -58 -452 c 0,35,36
 -58 -436 -58 -436 -45.5 -393.5 c 128,-1,37
 -33 -351 -33 -351 -21.5 -333 c 128,-1,38
 -10 -315 -10 -315 8.5 -315 c 128,-1,39
 27 -315 27 -315 40 -322 c 128,-1,40
 53 -329 53 -329 66 -338 c 0,41,42
 102 -360 102 -360 127 -360 c 0,16,17
EndSplineSet
EndChar

StartChar: k
Encoding: 107 107 97
Width: 1196
GlyphClass: 2
Flags: W
LayerCount: 2
Fore
SplineSet
1025 204 m 1,0,-1
 1109 220 l 1,1,2
 1144 220 1144 220 1153 173 c 2,3,-1
 1167 101 l 2,4,5
 1168 96 1168 96 1168 79.5 c 128,-1,6
 1168 63 1168 63 1155.5 44 c 128,-1,7
 1143 25 1143 25 1122 12 c 0,8,9
 1076 -17 1076 -17 1005 -17 c 0,10,11
 864 -17 864 -17 770 120 c 1,12,13
 753 143 753 143 732 180 c 2,14,-1
 594 424 l 1,15,-1
 534 342 l 1,16,17
 411 169 411 169 386 65 c 0,18,19
 379 38 379 38 366.5 19 c 128,-1,20
 354 0 354 0 323 0 c 2,21,-1
 243 0 l 2,22,23
 221 0 221 0 205.5 18.5 c 128,-1,24
 190 37 190 37 190 65 c 2,25,-1
 190 1710 l 2,26,27
 190 1737 190 1737 205.5 1755 c 128,-1,28
 221 1773 221 1773 243 1773 c 2,29,-1
 381 1773 l 2,30,31
 404 1773 404 1773 419 1755 c 128,-1,32
 434 1737 434 1737 434 1710 c 2,33,-1
 437 867 l 2,34,35
 437 757 437 757 419.5 612 c 128,-1,36
 402 467 402 467 397 422 c 1,37,-1
 397 418 l 2,38,39
 397 410 397 410 401 410 c 0,40,41
 410 410 410 410 425 436 c 0,42,43
 624 797 624 797 924 1125 c 0,44,45
 953 1156 953 1156 978 1156 c 0,46,47
 1016 1156 1016 1156 1046 1124 c 2,48,-1
 1091 1074 l 1,49,50
 1124 1034 1124 1034 1124 1015 c 1,51,52
 1126 981 1126 981 1098 955 c 1,53,-1
 918 778 l 1,54,55
 826 684 826 684 743 581 c 1,56,-1
 818 452 l 1,57,58
 960 204 960 204 1025 204 c 1,0,-1
EndSplineSet
EndChar

StartChar: l
Encoding: 108 108 98
Width: 683
GlyphClass: 2
Flags: W
LayerCount: 2
Fore
SplineSet
428 275 m 2,0,1
 428 204 428 204 478 204 c 0,2,3
 494 204 494 204 519 213 c 0,4,5
 565 230 565 230 575 230 c 0,6,7
 598 230 598 230 611 201 c 2,8,-1
 642 130 l 2,9,10
 648 115 648 115 648 102 c 0,11,12
 648 79 648 79 610 46 c 1,13,14
 534 -17 534 -17 411 -17 c 0,15,16
 187 -17 187 -17 187 282 c 2,17,-1
 187 1708 l 2,18,19
 187 1735 187 1735 203 1754 c 128,-1,20
 219 1773 219 1773 241 1773 c 2,21,-1
 375 1773 l 2,22,23
 398 1773 398 1773 413 1754 c 128,-1,24
 428 1735 428 1735 428 1708 c 2,25,-1
 428 275 l 2,0,1
EndSplineSet
EndChar

StartChar: m
Encoding: 109 109 99
Width: 2043
GlyphClass: 2
Flags: W
LayerCount: 2
Fore
SplineSet
800 1153 m 0,0,1
 1052 1153 1052 1153 1119 928 c 1,2,3
 1219 1089 1219 1089 1384 1138 c 0,4,5
 1440 1154 1440 1154 1525 1154 c 128,-1,6
 1610 1154 1610 1154 1689.5 1112 c 128,-1,7
 1769 1070 1769 1070 1807.5 1002.5 c 128,-1,8
 1846 935 1846 935 1856.5 854 c 128,-1,9
 1867 773 1867 773 1867 680 c 2,10,-1
 1867 66 l 2,11,12
 1867 38 1867 38 1849 19 c 128,-1,13
 1831 0 1831 0 1796 0 c 2,14,-1
 1698 0 l 2,15,16
 1660 0 1660 0 1642 19 c 128,-1,17
 1624 38 1624 38 1624 66 c 2,18,-1
 1624 689 l 2,19,20
 1624 818 1624 818 1579.5 881 c 128,-1,21
 1535 944 1535 944 1439 944 c 0,22,23
 1330 944 1330 944 1248 848 c 1,24,25
 1160 748 1160 748 1160 600 c 2,26,-1
 1160 66 l 2,27,28
 1160 38 1160 38 1142 19 c 128,-1,29
 1124 0 1124 0 1089 0 c 2,30,-1
 991 0 l 2,31,32
 953 0 953 0 935 19 c 128,-1,33
 917 38 917 38 917 66 c 2,34,-1
 917 689 l 2,35,36
 917 818 917 818 872.5 881 c 128,-1,37
 828 944 828 944 732 944 c 0,38,39
 623 944 623 944 540 848 c 0,40,41
 453 748 453 748 453 600 c 2,42,-1
 453 66 l 2,43,44
 453 38 453 38 436 19 c 128,-1,45
 419 0 419 0 384 0 c 2,46,-1
 281 0 l 2,47,48
 246 0 246 0 228 19 c 128,-1,49
 210 38 210 38 210 66 c 2,50,-1
 210 680 l 2,51,52
 210 881 210 881 197 960.5 c 128,-1,53
 184 1040 184 1040 184 1056 c 0,54,55
 184 1128 184 1128 253 1128 c 2,56,-1
 308 1128 l 2,57,58
 364 1128 364 1128 384 1086 c 0,59,60
 408 1035 408 1035 430 928 c 1,61,62
 517 1085 517 1085 682 1136 c 0,63,64
 738 1153 738 1153 800 1153 c 0,0,1
EndSplineSet
EndChar

StartChar: n
Encoding: 110 110 100
Width: 1364
GlyphClass: 2
Flags: W
LayerCount: 2
Fore
SplineSet
184 1056 m 0,0,1
 184 1128 184 1128 253 1128 c 2,2,-1
 308 1128 l 2,3,4
 364 1128 364 1128 384 1086 c 0,5,6
 412 1026 412 1026 432 928 c 1,7,8
 522 1092 522 1092 700 1138 c 0,9,10
 756 1153 756 1153 839.5 1153 c 128,-1,11
 923 1153 923 1153 994 1117.5 c 128,-1,12
 1065 1082 1065 1082 1106 1020 c 0,13,14
 1182 907 1182 907 1182 687 c 2,15,-1
 1182 66 l 2,16,17
 1182 38 1182 38 1164 19 c 128,-1,18
 1146 0 1146 0 1111 0 c 2,19,-1
 1013 0 l 2,20,21
 975 0 975 0 957 19 c 128,-1,22
 939 38 939 38 939 66 c 2,23,-1
 939 688 l 2,24,25
 939 944 939 944 751 944 c 0,26,27
 641 944 641 944 550 852 c 0,28,29
 453 753 453 753 453 622 c 2,30,-1
 453 66 l 2,31,32
 453 38 453 38 436 19 c 128,-1,33
 419 0 419 0 384 0 c 2,34,-1
 281 0 l 2,35,36
 246 0 246 0 228 19 c 128,-1,37
 210 38 210 38 210 66 c 2,38,-1
 210 680 l 2,39,40
 210 881 210 881 197 960.5 c 128,-1,41
 184 1040 184 1040 184 1056 c 0,0,1
EndSplineSet
EndChar

StartChar: o
Encoding: 111 111 101
Width: 1366
GlyphClass: 2
Flags: W
LayerCount: 2
Fore
SplineSet
120 568 m 0,0,1
 120 698 120 698 163.5 806.5 c 128,-1,2
 207 915 207 915 283 992 c 0,3,4
 442 1153 442 1153 684 1153 c 0,5,6
 955 1153 955 1153 1104 992 c 0,7,8
 1248 837 1248 837 1248 566 c 0,9,10
 1248 304 1248 304 1085 138 c 0,11,12
 926 -25 926 -25 684 -25 c 0,13,14
 429 -25 429 -25 274 142 c 1,15,16
 120 305 120 305 120 568 c 0,0,1
387 696.5 m 128,-1,18
 370 626 370 626 370 553.5 c 128,-1,19
 370 481 370 481 389.5 414.5 c 128,-1,20
 409 348 409 348 448 296 c 0,21,22
 534 182 534 182 688 182 c 0,23,24
 845 182 845 182 926 294 c 0,25,26
 998 392 998 392 998 561 c 0,27,28
 998 814 998 814 832 910 c 0,29,30
 771 945 771 945 684.5 945 c 128,-1,31
 598 945 598 945 538.5 911.5 c 128,-1,32
 479 878 479 878 441.5 822.5 c 128,-1,17
 404 767 404 767 387 696.5 c 128,-1,18
EndSplineSet
EndChar

StartChar: p
Encoding: 112 112 102
Width: 1365
GlyphClass: 2
Flags: W
LayerCount: 2
Fore
SplineSet
434 173 m 1,0,1
 444 73 444 73 444 -77 c 2,2,-1
 444 -490 l 2,3,4
 444 -564 444 -564 385 -564 c 2,5,-1
 261 -564 l 2,6,7
 198 -564 198 -564 198 -486 c 2,8,-1
 198 621 l 2,9,10
 198 902 198 902 168 1031 c 0,11,12
 165 1044 165 1044 165 1067 c 128,-1,13
 165 1090 165 1090 183.5 1109 c 128,-1,14
 202 1128 202 1128 231 1128 c 2,15,-1
 292 1128 l 2,16,17
 347 1128 347 1128 370 1080 c 0,18,19
 397 1024 397 1024 411 935 c 1,20,21
 481 1057 481 1057 602 1113 c 0,22,23
 688 1153 688 1153 797.5 1153 c 128,-1,24
 907 1153 907 1153 993 1110.5 c 128,-1,25
 1079 1068 1079 1068 1136 994 c 0,26,27
 1249 847 1249 847 1249 600 c 0,28,29
 1249 342 1249 342 1122 164 c 0,30,31
 988 -25 988 -25 771 -25 c 0,32,33
 545 -25 545 -25 434 173 c 1,0,1
421 528 m 2,34,35
 421 384 421 384 517 280 c 0,36,37
 608 182 608 182 723 182 c 0,38,39
 868 182 868 182 938 323 c 0,40,41
 994 435 994 435 994 606 c 0,42,43
 994 744 994 744 928 840 c 0,44,45
 857 944 857 944 739 944 c 0,46,47
 606 944 606 944 512 834 c 0,48,49
 421 726 421 726 421 583 c 2,50,-1
 421 528 l 2,34,35
EndSplineSet
EndChar

StartChar: q
Encoding: 113 113 103
Width: 1365
GlyphClass: 2
Flags: W
LayerCount: 2
Fore
SplineSet
1104 1128 m 2,0,1
 1167 1128 1167 1128 1167 1050 c 2,2,-1
 1167 -498 l 2,3,4
 1167 -524 1167 -524 1152 -544 c 128,-1,5
 1137 -564 1137 -564 1114 -564 c 2,6,-1
 975 -564 l 2,7,8
 952 -564 952 -564 936.5 -544 c 128,-1,9
 921 -524 921 -524 921 -498 c 2,10,-1
 921 -78 l 2,11,12
 921 3 921 3 932 179 c 1,13,14
 852 35 852 35 691 -10 c 0,15,16
 637 -25 637 -25 552 -25 c 128,-1,17
 467 -25 467 -25 381.5 23.5 c 128,-1,18
 296 72 296 72 238 154 c 0,19,20
 119 320 119 320 119 576 c 0,21,22
 119 818 119 818 260 986 c 0,23,24
 400 1153 400 1153 590 1153 c 0,25,26
 714 1153 714 1153 799.5 1104 c 128,-1,27
 885 1055 885 1055 948 958 c 1,28,-1
 972 1054 l 1,29,-1
 981 1087 l 2,30,31
 989 1115 989 1115 1005.5 1121.5 c 128,-1,32
 1022 1128 1022 1128 1042 1128 c 2,33,-1
 1104 1128 l 2,0,1
642 182 m 0,34,35
 708 182 708 182 763 214 c 128,-1,36
 818 246 818 246 858 300 c 0,37,38
 942 416 942 416 942 570 c 0,39,40
 942 736 942 736 848 842 c 0,41,42
 758 944 758 944 633 944 c 0,43,44
 509 944 509 944 439 830 c 0,45,46
 376 728 376 728 376 570 c 0,47,48
 376 408 376 408 441 302 c 0,49,50
 514 182 514 182 642 182 c 0,34,35
EndSplineSet
EndChar

StartChar: r
Encoding: 114 114 104
Width: 853
GlyphClass: 2
Flags: W
LayerCount: 2
Fore
SplineSet
159 1056 m 0,0,1
 159 1128 159 1128 222 1128 c 2,2,-1
 276 1128 l 2,3,4
 331 1128 331 1128 354 1080 c 0,5,6
 387 1010 387 1010 402 887 c 0,7,8
 402 885 402 885 403.5 885 c 128,-1,9
 405 885 405 885 410 919 c 128,-1,10
 415 953 415 953 439 1002.5 c 128,-1,11
 463 1052 463 1052 498 1086 c 0,12,13
 569 1153 569 1153 672 1153 c 0,14,15
 787 1153 787 1153 832 1115 c 0,16,17
 853 1098 853 1098 849 1068 c 2,18,-1
 833 942 l 2,19,20
 827 891 827 891 781 891 c 0,21,22
 759 891 759 891 727 900 c 0,23,24
 665 916 665 916 629 916 c 128,-1,25
 593 916 593 916 553 884.5 c 128,-1,26
 513 853 513 853 484 806 c 0,27,28
 425 708 425 708 425 597 c 2,29,-1
 425 66 l 2,30,31
 425 38 425 38 409 19 c 128,-1,32
 393 0 393 0 363 0 c 2,33,-1
 247 0 l 2,34,35
 215 0 215 0 198.5 19 c 128,-1,36
 182 38 182 38 182 66 c 2,37,-1
 182 755 l 2,38,39
 182 931 182 931 170.5 987.5 c 128,-1,40
 159 1044 159 1044 159 1056 c 0,0,1
EndSplineSet
EndChar

StartChar: s
Encoding: 115 115 105
Width: 1024
GlyphClass: 2
Flags: W
LayerCount: 2
Fore
SplineSet
497 180 m 0,0,1
 689 180 689 180 689 309 c 0,2,3
 689 380 689 380 580 429 c 0,4,5
 534 450 534 450 479.5 468 c 128,-1,6
 425 486 425 486 375 511 c 128,-1,7
 325 536 325 536 281.5 565.5 c 128,-1,8
 238 595 238 595 206 633 c 0,9,10
 140 713 140 713 140 836 c 0,11,12
 140 986 140 986 265 1074 c 0,13,14
 376 1153 376 1153 538 1153 c 0,15,16
 712 1153 712 1153 829 1085 c 0,17,18
 869 1061 869 1061 869 1030 c 0,19,20
 869 986 869 986 845.5 933.5 c 128,-1,21
 822 881 822 881 790.5 881 c 128,-1,22
 759 881 759 881 733.5 894 c 128,-1,23
 708 907 708 907 687.5 916.5 c 128,-1,24
 667 926 667 926 644 932 c 0,25,26
 594 947 594 947 551.5 947 c 128,-1,27
 509 947 509 947 483 941 c 128,-1,28
 457 935 457 935 436 922 c 0,29,30
 385 891 385 891 385 846 c 128,-1,31
 385 801 385 801 405.5 777 c 128,-1,32
 426 753 426 753 462 733 c 128,-1,33
 498 713 498 713 548 693 c 2,34,-1
 656 648 l 1,35,36
 787 591 787 591 833 545 c 0,37,38
 923 453 923 453 923 332 c 0,39,40
 923 180 923 180 819 82 c 0,41,42
 704 -25 704 -25 492 -25 c 0,43,44
 277 -25 277 -25 169 58 c 0,45,46
 116 98 116 98 116 130 c 128,-1,47
 116 162 116 162 127.5 187.5 c 128,-1,48
 139 213 139 213 157.5 247.5 c 128,-1,49
 176 282 176 282 207.5 282 c 128,-1,50
 239 282 239 282 274.5 253.5 c 128,-1,51
 310 225 310 225 372 202.5 c 128,-1,52
 434 180 434 180 497 180 c 0,0,1
EndSplineSet
EndChar

StartChar: t
Encoding: 116 116 106
Width: 851
GlyphClass: 2
Flags: W
LayerCount: 2
Fore
SplineSet
795 976 m 2,0,1
 795 920 795 920 732 920 c 2,2,-1
 450 920 l 1,3,-1
 450 292 l 2,4,5
 450 190 450 190 551 190 c 0,6,7
 615 190 615 190 718 254 c 0,8,9
 738 267 738 267 761.5 267 c 128,-1,10
 785 267 785 267 799 234 c 2,11,-1
 822 182 l 2,12,13
 835 152 835 152 835 131 c 128,-1,14
 835 110 835 110 803.5 82.5 c 128,-1,15
 772 55 772 55 723 33 c 0,16,17
 612 -17 612 -17 522 -17 c 128,-1,18
 432 -17 432 -17 379.5 1.5 c 128,-1,19
 327 20 327 20 290 57 c 0,20,21
 210 135 210 135 210 282 c 2,22,-1
 210 920 l 1,23,-1
 126 920 l 2,24,25
 63 920 63 920 63 977 c 2,26,-1
 63 1034 l 2,27,28
 63 1057 63 1057 75 1070 c 128,-1,29
 87 1083 87 1083 122 1090 c 1,30,-1
 222 1119 l 1,31,-1
 260 1354 l 2,32,33
 271 1420 271 1420 314 1420 c 2,34,-1
 397 1420 l 2,35,36
 420 1420 420 1420 435 1401.5 c 128,-1,37
 450 1383 450 1383 450 1354 c 2,38,-1
 450 1128 l 1,39,-1
 732 1128 l 2,40,41
 795 1128 795 1128 795 1073 c 2,42,-1
 795 976 l 2,0,1
EndSplineSet
EndChar

StartChar: u
Encoding: 117 117 107
Width: 1364
GlyphClass: 2
Flags: W
LayerCount: 2
Fore
SplineSet
1195 68 m 0,0,1
 1195 0 1195 0 1133 0 c 2,2,-1
 1088 0 l 2,3,4
 1028 0 1028 0 1009 48 c 0,5,6
 988 103 988 103 964 201 c 1,7,8
 922 96 922 96 821.5 35.5 c 128,-1,9
 721 -25 721 -25 571 -25 c 0,10,11
 375 -25 375 -25 282 97.5 c 128,-1,12
 189 220 189 220 189 459 c 2,13,-1
 189 1062 l 2,14,15
 189 1090 189 1090 206.5 1109 c 128,-1,16
 224 1128 224 1128 256 1128 c 2,17,-1
 366 1128 l 2,18,19
 432 1128 432 1128 432 1062 c 2,20,-1
 432 470 l 2,21,22
 432 231 432 231 543 194 c 0,23,24
 579 182 579 182 628.5 182 c 128,-1,25
 678 182 678 182 730.5 205 c 128,-1,26
 783 228 783 228 825 266 c 0,27,28
 919 353 919 353 919 465 c 2,29,-1
 919 1062 l 2,30,31
 919 1090 919 1090 936 1109 c 128,-1,32
 953 1128 953 1128 990 1128 c 2,33,-1
 1095 1128 l 2,34,35
 1130 1128 1130 1128 1146 1109 c 128,-1,36
 1162 1090 1162 1090 1162 1062 c 2,37,-1
 1162 437 l 2,38,39
 1162 226 1162 226 1192 97 c 0,40,41
 1195 86 1195 86 1195 68 c 0,0,1
EndSplineSet
EndChar

StartChar: v
Encoding: 118 118 108
Width: 1196
GlyphClass: 2
Flags: W
LayerCount: 2
Fore
SplineSet
1106 1060 m 1,0,1
 1094 890 1094 890 1016 620 c 0,2,3
 906 235 906 235 770 71 c 1,4,5
 723 16 723 16 675 2 c 128,-1,6
 627 -12 627 -12 578 -12 c 128,-1,7
 529 -12 529 -12 493 -1 c 128,-1,8
 457 10 457 10 433 33 c 0,9,10
 393 72 393 72 361 179 c 0,11,12
 295 399 295 399 224 609 c 1,13,-1
 79 1027 l 2,14,15
 71 1051 71 1051 71 1068 c 0,16,17
 71 1128 71 1128 149 1128 c 2,18,-1
 240 1128 l 2,19,20
 275 1128 275 1128 296.5 1112.5 c 128,-1,21
 318 1097 318 1097 333 1053 c 0,22,23
 463 667 463 667 554 272 c 0,24,25
 565 221 565 221 598 221 c 0,26,27
 624 221 624 221 646 263 c 0,28,29
 754 464 754 464 820 864 c 0,30,31
 838 969 838 969 846.5 1025 c 128,-1,32
 855 1081 855 1081 863.5 1094 c 128,-1,33
 872 1107 872 1107 883 1114 c 0,34,35
 903 1128 903 1128 927 1128 c 2,36,-1
 1042 1128 l 2,37,38
 1106 1128 1106 1128 1106 1060 c 1,0,1
EndSplineSet
EndChar

StartChar: w
Encoding: 119 119 109
Width: 1871
GlyphClass: 2
Flags: W
LayerCount: 2
Fore
SplineSet
1696 1128 m 2,0,1
 1761 1128 1761 1128 1761 1068 c 0,2,3
 1759 827 1759 827 1663 499 c 0,4,5
 1588 242 1588 242 1470 90 c 0,6,7
 1391 -12 1391 -12 1297.5 -12 c 128,-1,8
 1204 -12 1204 -12 1154 33 c 128,-1,9
 1104 78 1104 78 1084 164 c 0,10,11
 1030 389 1030 389 1008 471 c 2,12,-1
 970 610 l 2,13,14
 954 667 954 667 945 696 c 1,15,16
 943 687 943 687 939.5 669 c 128,-1,17
 936 651 936 651 931 630 c 2,18,-1
 910 543 l 1,19,20
 851 331 851 331 818.5 258 c 128,-1,21
 786 185 786 185 763 144.5 c 128,-1,22
 740 104 740 104 709 69 c 0,23,24
 637 -12 637 -12 551 -12 c 0,25,26
 371 -12 371 -12 327 179 c 1,27,28
 276 394 276 394 212 605 c 1,29,-1
 79 1027 l 2,30,31
 72 1047 72 1047 72 1067 c 0,32,33
 72 1128 72 1128 140 1128 c 2,34,-1
 258 1128 l 2,35,36
 318 1128 318 1128 340 1053 c 0,37,38
 399 848 399 848 442 650 c 2,39,-1
 528 256 l 2,40,41
 537 219 537 219 556 219 c 0,42,43
 577 219 577 219 596.5 258 c 128,-1,44
 616 297 616 297 638.5 353.5 c 128,-1,45
 661 410 661 410 682 474.5 c 128,-1,46
 703 539 703 539 723 608.5 c 128,-1,47
 743 678 743 678 760 748 c 0,48,49
 794 887 794 887 815 1008 c 2,50,-1
 822 1050 l 1,51,52
 834 1110 834 1110 927 1110 c 0,53,54
 988 1110 988 1110 1008 1102 c 0,55,56
 1046 1085 1046 1085 1071 1018.5 c 128,-1,57
 1096 952 1096 952 1125 855 c 128,-1,58
 1154 758 1154 758 1181 655 c 0,59,60
 1248 390 1248 390 1280 247 c 0,61,62
 1287 218 1287 218 1301 218 c 0,63,64
 1320 218 1320 218 1349 270.5 c 128,-1,65
 1378 323 1378 323 1409 416 c 128,-1,66
 1440 509 1440 509 1463 616 c 0,67,68
 1510 832 1510 832 1516 1062 c 1,69,70
 1516 1113 1516 1113 1560 1125 c 0,71,72
 1571 1128 1571 1128 1581 1128 c 2,73,-1
 1696 1128 l 2,0,1
EndSplineSet
EndChar

StartChar: x
Encoding: 120 120 110
Width: 1023
GlyphClass: 2
Flags: W
LayerCount: 2
Fore
SplineSet
42.5 24 m 128,-1,1
 25 48 25 48 25 69 c 0,2,3
 25 109 25 109 54.5 137 c 128,-1,4
 84 165 84 165 125 214.5 c 128,-1,5
 166 264 166 264 206 320 c 2,6,-1
 285 434 l 1,7,-1
 360 549 l 1,8,-1
 37 1025 l 2,9,10
 26 1042 26 1042 26 1056.5 c 128,-1,11
 26 1071 26 1071 32.5 1084 c 128,-1,12
 39 1097 39 1097 49 1106 c 0,13,14
 72 1128 72 1128 99 1128 c 2,15,-1
 189 1128 l 2,16,17
 264 1128 264 1128 305 1049 c 1,18,19
 478 741 478 741 505 698 c 1,20,-1
 614 911 l 1,21,22
 676 1029 676 1029 706.5 1068.5 c 128,-1,23
 737 1108 737 1108 760.5 1118 c 128,-1,24
 784 1128 784 1128 811 1128 c 2,25,-1
 901 1128 l 2,26,27
 934 1128 934 1128 954.5 1106 c 128,-1,28
 975 1084 975 1084 975 1057 c 0,29,30
 975 1004 975 1004 933 963 c 128,-1,31
 891 922 891 922 853 876 c 1,32,-1
 778 780 l 2,33,34
 740 730 740 730 704 677 c 2,35,-1
 636 574 l 1,36,-1
 976 103 l 2,37,38
 988 85 988 85 988 62 c 128,-1,39
 988 39 988 39 969.5 19.5 c 128,-1,40
 951 0 951 0 925 0 c 2,41,-1
 814 0 l 2,42,43
 755 0 755 0 724 38 c 0,44,45
 711 54 711 54 694 85 c 2,46,-1
 548 344 l 1,47,-1
 504 418 l 1,48,-1
 392 202 l 1,49,-1
 344 116 l 1,50,51
 276 0 276 0 184 0 c 2,52,-1
 94 0 l 2,53,0
 60 0 60 0 42.5 24 c 128,-1,1
EndSplineSet
EndChar

StartChar: y
Encoding: 121 121 111
Width: 1193
GlyphClass: 2
Flags: W
LayerCount: 2
Fore
SplineSet
1046 1128 m 2,0,1
 1110 1128 1110 1128 1110 1065 c 0,2,3
 1110 992 1110 992 1034 742 c 1,4,-1
 972 551 l 1,5,6
 753 -77 753 -77 429 -483 c 2,7,-1
 409 -508 l 2,8,9
 363 -567 363 -567 315 -567 c 0,10,11
 264 -567 264 -567 197 -496 c 0,12,13
 178 -476 178 -476 178 -450 c 0,14,15
 178 -408 178 -408 223 -361.5 c 128,-1,16
 268 -315 268 -315 306 -268.5 c 128,-1,17
 344 -222 344 -222 378 -175 c 0,18,19
 440 -90 440 -90 490 4 c 1,20,21
 334 425 334 425 301 508 c 2,22,-1
 192 779 l 1,23,-1
 115 954 l 2,24,25
 72 1054 72 1054 72 1075.5 c 128,-1,26
 72 1097 72 1097 90.5 1112.5 c 128,-1,27
 109 1128 109 1128 143 1128 c 2,28,-1
 269 1128 l 2,29,30
 313 1128 313 1128 337 1078 c 0,31,32
 355 1041 355 1041 386 956 c 1,33,34
 449 772 449 772 478 683 c 1,35,-1
 559 418 l 2,36,37
 571 378 571 378 577 354 c 2,38,-1
 586 318 l 2,39,40
 589 306 589 306 593 288 c 2,41,-1
 602 250 l 2,42,43
 607 230 607 230 613 230 c 128,-1,44
 619 230 619 230 626.5 242 c 128,-1,45
 634 254 634 254 642 273 c 2,46,-1
 659 315 l 1,47,48
 763 582 763 582 856 1063 c 0,49,50
 868 1128 868 1128 931 1128 c 2,51,-1
 1046 1128 l 2,0,1
EndSplineSet
EndChar

StartChar: z
Encoding: 122 122 112
Width: 1023
GlyphClass: 2
Flags: W
LayerCount: 2
Fore
SplineSet
395 196 m 2,0,-1
 516 206 l 1,1,-1
 884 206 l 2,2,3
 907 206 907 206 923.5 191.5 c 128,-1,4
 940 177 940 177 940 156 c 2,5,-1
 940 84 l 2,6,7
 940 32 940 32 923 20 c 0,8,9
 897 0 897 0 840 0 c 2,10,-1
 185 0 l 2,11,12
 121 0 121 0 96 62 c 0,13,14
 87 83 87 83 87 112 c 0,15,16
 87 156 87 156 144 239 c 2,17,-1
 538 805 l 1,18,-1
 620 915 l 2,19,20
 626 922 626 922 626 927 c 128,-1,21
 626 932 626 932 613 932 c 2,22,-1
 467 922 l 1,23,-1
 182 922 l 2,24,25
 134 922 134 922 120 936 c 0,26,27
 96 960 96 960 96 1014 c 2,28,-1
 96 1079 l 2,29,30
 96 1099 96 1099 112 1113.5 c 128,-1,31
 128 1128 128 1128 151 1128 c 2,32,-1
 831 1128 l 2,33,34
 872 1128 872 1128 890 1104 c 1,35,36
 920 1067 920 1067 920 1032.5 c 128,-1,37
 920 998 920 998 913 977 c 128,-1,38
 906 956 906 956 896 938 c 128,-1,39
 886 920 886 920 874 904 c 128,-1,40
 862 888 862 888 853 874 c 2,41,-1
 486 320 l 1,42,-1
 392 210 l 2,43,44
 388 205 388 205 388 200.5 c 128,-1,45
 388 196 388 196 395 196 c 2,0,-1
EndSplineSet
EndChar

StartChar: braceleft
Encoding: 123 123 113
Width: 1024
GlyphClass: 2
Flags: W
LayerCount: 2
Fore
SplineSet
312 630 m 0,0,1
 241 630 241 630 241 734 c 2,2,-1
 241 812 l 2,3,4
 241 860 241 860 255.5 890 c 128,-1,5
 270 920 270 920 304 920 c 128,-1,6
 338 920 338 920 361 928.5 c 128,-1,7
 384 937 384 937 400 951 c 0,8,9
 436 983 436 983 436 1031 c 128,-1,10
 436 1079 436 1079 429.5 1128.5 c 128,-1,11
 423 1178 423 1178 415 1229 c 0,12,13
 394 1365 394 1365 394 1459.5 c 128,-1,14
 394 1554 394 1554 418 1640.5 c 128,-1,15
 442 1727 442 1727 494 1789 c 0,16,17
 603 1917 603 1917 820 1917 c 0,18,19
 869 1917 869 1917 883 1863 c 2,20,-1
 897 1809 l 2,21,22
 899 1799 899 1799 899 1786 c 128,-1,23
 899 1773 899 1773 888.5 1761.5 c 128,-1,24
 878 1750 878 1750 864 1745 c 128,-1,25
 850 1740 850 1740 835.5 1738.5 c 128,-1,26
 821 1737 821 1737 782.5 1733 c 128,-1,27
 744 1729 744 1729 705 1709 c 128,-1,28
 666 1689 666 1689 646 1655 c 1,29,30
 617 1602 617 1602 617 1500 c 128,-1,31
 617 1398 617 1398 622.5 1338.5 c 128,-1,32
 628 1279 628 1279 634 1221 c 2,33,-1
 646 1109 l 2,34,35
 651 1054 651 1054 651 1007.5 c 128,-1,36
 651 961 651 961 627.5 924.5 c 128,-1,37
 604 888 604 888 570 861 c 0,38,39
 498 804 498 804 428 804 c 0,40,41
 408 804 408 804 408 773 c 128,-1,42
 408 742 408 742 428 742 c 0,43,44
 499 742 499 742 570 689 c 0,45,46
 651 628 651 628 651 548 c 0,47,48
 651 499 651 499 646 443 c 2,49,-1
 634 329 l 2,50,51
 617 163 617 163 617 97.5 c 128,-1,52
 617 32 617 32 622 -20 c 128,-1,53
 627 -72 627 -72 648 -109 c 0,54,55
 691 -188 691 -188 818 -188 c 0,56,57
 899 -188 899 -188 899 -245 c 0,58,59
 899 -251 899 -251 897 -261 c 2,60,-1
 883 -324 l 2,61,62
 872 -378 872 -378 812 -378 c 1,63,64
 394 -355 394 -355 394 90 c 0,65,66
 394 174 394 174 408 269 c 0,67,68
 436 449 436 449 436 494 c 128,-1,69
 436 539 436 539 427 559.5 c 128,-1,70
 418 580 418 580 402 596 c 0,71,72
 366 630 366 630 312 630 c 0,0,1
EndSplineSet
EndChar

StartChar: bar
Encoding: 124 124 114
Width: 683
GlyphClass: 2
Flags: W
LayerCount: 2
Fore
SplineSet
235 1813 m 2,0,1
 235 1839 235 1839 251.5 1858 c 128,-1,2
 268 1877 268 1877 291 1877 c 2,3,-1
 393 1877 l 2,4,5
 416 1877 416 1877 432 1858 c 128,-1,6
 448 1839 448 1839 448 1813 c 2,7,-1
 448 -260 l 2,8,9
 448 -286 448 -286 431.5 -305 c 128,-1,10
 415 -324 415 -324 392 -324 c 2,11,-1
 290 -324 l 2,12,13
 267 -324 267 -324 251 -305 c 128,-1,14
 235 -286 235 -286 235 -260 c 2,15,-1
 235 1813 l 2,0,1
EndSplineSet
EndChar

StartChar: braceright
Encoding: 125 125 115
Width: 1024
GlyphClass: 2
Flags: W
LayerCount: 2
Fore
SplineSet
712 909 m 0,0,1
 783 909 783 909 783 805 c 2,2,-1
 783 727 l 2,3,4
 783 679 783 679 768.5 649 c 128,-1,5
 754 619 754 619 720 619 c 128,-1,6
 686 619 686 619 663 610.5 c 128,-1,7
 640 602 640 602 624 588 c 0,8,9
 588 556 588 556 588 508 c 128,-1,10
 588 460 588 460 594.5 410.5 c 128,-1,11
 601 361 601 361 609 310 c 0,12,13
 630 174 630 174 630 79.5 c 128,-1,14
 630 -15 630 -15 606 -101.5 c 128,-1,15
 582 -188 582 -188 530 -250 c 0,16,17
 421 -378 421 -378 204 -378 c 0,18,19
 155 -378 155 -378 141 -324 c 2,20,-1
 127 -270 l 2,21,22
 125 -260 125 -260 125 -247 c 128,-1,23
 125 -234 125 -234 135.5 -222.5 c 128,-1,24
 146 -211 146 -211 160 -206 c 128,-1,25
 174 -201 174 -201 188.5 -199.5 c 128,-1,26
 203 -198 203 -198 241.5 -194 c 128,-1,27
 280 -190 280 -190 319 -170 c 128,-1,28
 358 -150 358 -150 378 -116 c 1,29,30
 407 -63 407 -63 407 39 c 128,-1,31
 407 141 407 141 401.5 200.5 c 128,-1,32
 396 260 396 260 390 318 c 2,33,-1
 378 430 l 2,34,35
 373 485 373 485 373 531.5 c 128,-1,36
 373 578 373 578 396.5 614.5 c 128,-1,37
 420 651 420 651 454 678 c 0,38,39
 526 735 526 735 596 735 c 0,40,41
 616 735 616 735 616 766 c 128,-1,42
 616 797 616 797 596 797 c 0,43,44
 525 797 525 797 454 850 c 0,45,46
 373 911 373 911 373 991 c 0,47,48
 373 1040 373 1040 378 1096 c 2,49,-1
 390 1210 l 2,50,51
 407 1376 407 1376 407 1441.5 c 128,-1,52
 407 1507 407 1507 402 1559 c 128,-1,53
 397 1611 397 1611 376 1648 c 0,54,55
 333 1727 333 1727 206 1727 c 0,56,57
 125 1727 125 1727 125 1784 c 0,58,59
 125 1790 125 1790 127 1800 c 2,60,-1
 141 1863 l 2,61,62
 152 1917 152 1917 212 1917 c 1,63,64
 630 1894 630 1894 630 1449 c 0,65,66
 630 1365 630 1365 616 1270 c 0,67,68
 588 1090 588 1090 588 1045 c 128,-1,69
 588 1000 588 1000 597 979.5 c 128,-1,70
 606 959 606 959 622 943 c 0,71,72
 658 909 658 909 712 909 c 0,0,1
EndSplineSet
EndChar

StartChar: asciitilde
Encoding: 126 126 116
Width: 1707
GlyphClass: 2
Flags: W
LayerCount: 2
Fore
SplineSet
266 473 m 1,0,1
 246 490 246 490 246 506 c 0,2,3
 246 534 246 534 257 554 c 0,4,5
 331 702 331 702 454 766 c 0,6,7
 539 811 539 811 616.5 811 c 128,-1,8
 694 811 694 811 738 798.5 c 128,-1,9
 782 786 782 786 821 767 c 128,-1,10
 860 748 860 748 894 726 c 1,11,-1
 962 686 l 2,12,13
 1038 642 1038 642 1098 642 c 0,14,15
 1206 642 1206 642 1336 807 c 0,16,17
 1360 839 1360 839 1382 839 c 128,-1,18
 1404 839 1404 839 1421 825 c 2,19,-1
 1467 788 l 2,20,21
 1486 773 1486 773 1486 749.5 c 128,-1,22
 1486 726 1486 726 1478.5 710 c 128,-1,23
 1471 694 1471 694 1468 687 c 0,24,25
 1394 541 1394 541 1272 476 c 0,26,27
 1184 429 1184 429 1109 429 c 128,-1,28
 1034 429 1034 429 990.5 441.5 c 128,-1,29
 947 454 947 454 909 473 c 128,-1,30
 871 492 871 492 836.5 514 c 128,-1,31
 802 536 802 536 769 555 c 0,32,33
 693 599 693 599 633 599 c 0,34,35
 512 599 512 599 394 446 c 0,36,37
 372 418 372 418 357 418 c 0,38,39
 327 418 327 418 305 437 c 2,40,-1
 266 473 l 1,0,1
EndSplineSet
EndChar

StartChar: exclamdown
Encoding: 161 161 118
Width: 684
GlyphClass: 2
Flags: W
LayerCount: 2
Fore
SplineSet
385 573 m 2,0,1
 408 573 408 573 424 554.5 c 128,-1,2
 440 536 440 536 440 510 c 1,3,-1
 491 -442 l 1,4,5
 491 -468 491 -468 474.5 -486.5 c 128,-1,6
 458 -505 458 -505 435 -505 c 2,7,-1
 265 -505 l 2,8,9
 240 -505 240 -505 224.5 -486.5 c 128,-1,10
 209 -468 209 -468 210 -442 c 2,11,-1
 249 510 l 1,12,13
 249 536 249 536 265.5 554.5 c 128,-1,14
 282 573 282 573 305 573 c 2,15,-1
 385 573 l 2,0,1
517 934 m 0,16,17
 517 863 517 863 466 811 c 0,18,19
 417 760 417 760 345 760 c 0,20,21
 274 760 274 760 225 811 c 0,22,23
 175 863 175 863 175 934 c 0,24,25
 175 1006 175 1006 225 1058 c 128,-1,26
 275 1110 275 1110 345 1110 c 0,27,28
 416 1110 416 1110 466 1058 c 0,29,30
 517 1006 517 1006 517 934 c 0,16,17
EndSplineSet
EndChar

StartChar: cent
Encoding: 162 162 119
Width: 1193
GlyphClass: 2
Flags: W
LayerCount: 2
Fore
SplineSet
945 683 m 2,0,1
 853 683 853 683 853 764 c 0,2,3
 853 857 853 857 796 906 c 0,4,5
 747 949 747 949 668 949 c 128,-1,6
 589 949 589 949 536 917 c 128,-1,7
 483 885 483 885 448 833 c 0,8,9
 376 728 376 728 376 578 c 0,10,11
 376 411 376 411 455 306 c 0,12,13
 539 194 539 194 686 194 c 0,14,15
 798 194 798 194 931 276 c 0,16,17
 956 292 956 292 974 292 c 0,18,19
 1013 292 1013 292 1034 253 c 2,20,-1
 1059 207 l 2,21,22
 1068 191 1068 191 1068 162.5 c 128,-1,23
 1068 134 1068 134 1039 102.5 c 128,-1,24
 1010 71 1010 71 964 47 c 0,25,26
 876 0 876 0 753 -18 c 1,27,-1
 753 -251 l 2,28,29
 753 -277 753 -277 736.5 -295.5 c 128,-1,30
 720 -314 720 -314 696 -314 c 2,31,-1
 595 -314 l 2,32,33
 572 -314 572 -314 555.5 -295 c 128,-1,34
 539 -276 539 -276 539 -250 c 2,35,-1
 539 -10 l 1,36,37
 351 32 351 32 236 192 c 0,38,39
 121 351 121 351 121 580 c 0,40,41
 121 800 121 800 238 952 c 0,42,43
 352 1099 352 1099 540 1140 c 1,44,-1
 540 1402 l 2,45,46
 540 1428 540 1428 556.5 1447 c 128,-1,47
 573 1466 573 1466 597 1466 c 2,48,-1
 698 1466 l 2,49,50
 721 1466 721 1466 737 1447 c 128,-1,51
 753 1428 753 1428 753 1402 c 2,52,-1
 753 1147 l 1,53,54
 919 1125 919 1125 1008 1020 c 0,55,56
 1083 930 1083 930 1083 804 c 0,57,58
 1083 734 1083 734 1068 714 c 0,59,60
 1045 683 1045 683 992 683 c 2,61,-1
 945 683 l 2,0,1
EndSplineSet
EndChar

StartChar: sterling
Encoding: 163 163 120
Width: 1019
GlyphClass: 2
Flags: W
LayerCount: 2
Fore
SplineSet
511 555 m 1,0,1
 504 388 504 388 426 216 c 1,2,-1
 921 216 l 2,3,4
 952 216 952 216 968 202.5 c 128,-1,5
 984 189 984 189 984 146 c 2,6,-1
 984 67 l 2,7,8
 984 35 984 35 971.5 17.5 c 128,-1,9
 959 0 959 0 921 0 c 2,10,-1
 236 0 l 2,11,12
 200 0 200 0 180 21 c 0,13,14
 145 58 145 58 145 86 c 0,15,16
 145 132 145 132 166 164 c 0,17,18
 292 360 292 360 294 555 c 1,19,-1
 166 555 l 2,20,21
 143 555 143 555 127 569.5 c 128,-1,22
 111 584 111 584 111 604 c 2,23,-1
 111 698 l 2,24,25
 111 718 111 718 127 732 c 128,-1,26
 143 746 143 746 166 746 c 2,27,-1
 259 746 l 1,28,29
 245 785 245 785 229.5 823.5 c 128,-1,30
 214 862 214 862 200 902 c 0,31,32
 169 995 169 995 169 1068 c 128,-1,33
 169 1141 169 1141 193.5 1208 c 128,-1,34
 218 1275 218 1275 272 1329 c 0,35,36
 394 1451 394 1451 624 1451 c 0,37,38
 756 1451 756 1451 868 1388 c 1,39,40
 962 1337 962 1337 962 1289 c 0,41,42
 962 1253 962 1253 936 1216 c 1,43,44
 887 1150 887 1150 850 1150 c 0,45,46
 830 1150 830 1150 813 1163 c 128,-1,47
 796 1176 796 1176 776 1190 c 128,-1,48
 756 1204 756 1204 731.5 1214 c 128,-1,49
 707 1224 707 1224 685 1229 c 0,50,51
 650 1237 650 1237 603 1237 c 128,-1,52
 556 1237 556 1237 517.5 1221.5 c 128,-1,53
 479 1206 479 1206 454 1179 c 0,54,55
 406 1127 406 1127 406 1039 c 256,56,57
 406 951 406 951 467 803 c 0,58,59
 481 769 481 769 488 746 c 1,60,-1
 774 746 l 2,61,62
 797 746 797 746 813.5 731.5 c 128,-1,63
 830 717 830 717 830 697 c 2,64,-1
 830 603 l 2,65,66
 830 583 830 583 813.5 569 c 128,-1,67
 797 555 797 555 774 555 c 2,68,-1
 511 555 l 1,0,1
EndSplineSet
EndChar

StartChar: currency
Encoding: 164 164 121
Width: 1193
GlyphClass: 2
Flags: W
LayerCount: 2
Fore
SplineSet
790 259 m 1,0,1
 701 210 701 210 596 210 c 128,-1,2
 491 210 491 210 396 265 c 1,3,-1
 234 105 l 2,4,5
 215 86 215 86 195.5 86 c 128,-1,6
 176 86 176 86 160 102 c 2,7,-1
 84 180 l 1,8,9
 70 196 70 196 70 214.5 c 128,-1,10
 70 233 70 233 88 251 c 2,11,-1
 255 417 l 1,12,13
 214 502 214 502 214 600.5 c 128,-1,14
 214 699 214 699 263 787 c 1,15,-1
 87 964 l 2,16,17
 69 982 69 982 69 1001 c 128,-1,18
 69 1020 69 1020 84 1037 c 1,19,-1
 162 1116 l 2,20,21
 176 1130 176 1130 190 1130 c 0,22,23
 212 1130 212 1130 234 1110 c 1,24,-1
 411 933 l 1,25,26
 497 980 497 980 596.5 980 c 128,-1,27
 696 980 696 980 776 939 c 1,28,-1
 948 1113 l 2,29,30
 967 1132 967 1132 987 1132 c 128,-1,31
 1007 1132 1007 1132 1019 1119 c 2,32,-1
 1101 1035 l 1,33,34
 1113 1021 1113 1021 1113 1002.5 c 128,-1,35
 1113 984 1113 984 1095 966 c 2,36,-1
 929 798 l 1,37,38
 984 705 984 705 984 597.5 c 128,-1,39
 984 490 984 490 938 407 c 1,40,-1
 1096 249 l 1,41,42
 1111 232 1111 232 1111 213 c 128,-1,43
 1111 194 1111 194 1095 178 c 2,44,-1
 1016 99 l 2,45,46
 1004 87 1004 87 985 87 c 128,-1,47
 966 87 966 87 947 106 c 2,48,-1
 790 259 l 1,0,1
399 596 m 0,49,50
 399 551 399 551 414.5 514 c 128,-1,51
 430 477 430 477 457 450 c 0,52,53
 515 394 515 394 600 394 c 0,54,55
 683 394 683 394 741 450 c 0,56,57
 799 507 799 507 799 596 c 0,58,59
 799 684 799 684 741 740 c 0,60,61
 684 796 684 796 600 796 c 0,62,63
 514 796 514 796 457 740 c 0,64,65
 399 684 399 684 399 596 c 0,49,50
EndSplineSet
EndChar

StartChar: yen
Encoding: 165 165 122
Width: 1363
GlyphClass: 2
Flags: W
LayerCount: 2
Fore
SplineSet
164 322.5 m 128,-1,1
 153 332 153 332 153 346 c 2,2,-1
 153 452 l 2,3,4
 153 466 153 466 164 475 c 128,-1,5
 175 484 175 484 190 484 c 2,6,-1
 563 484 l 1,7,-1
 457 666 l 1,8,-1
 160 666 l 2,9,10
 145 666 145 666 134 675.5 c 128,-1,11
 123 685 123 685 123 699 c 2,12,-1
 123 805 l 2,13,14
 123 819 123 819 134 828 c 128,-1,15
 145 837 145 837 160 837 c 2,16,-1
 356 837 l 1,17,-1
 58 1345 l 2,18,19
 49 1360 49 1360 49 1377.5 c 128,-1,20
 49 1395 49 1395 62 1411 c 128,-1,21
 75 1427 75 1427 92 1427 c 2,22,-1
 245 1427 l 2,23,24
 286 1427 286 1427 302 1400 c 0,25,26
 306 1392 306 1392 311 1384 c 2,27,-1
 688 679 l 2,28,29
 692 670 692 670 695 670 c 128,-1,30
 698 670 698 670 728 718 c 128,-1,31
 758 766 758 766 804.5 851.5 c 128,-1,32
 851 937 851 937 893.5 1023.5 c 128,-1,33
 936 1110 936 1110 976 1200 c 1,34,-1
 1054 1384 l 2,35,36
 1072 1427 1072 1427 1123 1427 c 2,37,-1
 1262 1427 l 2,38,39
 1284 1427 1284 1427 1297.5 1411.5 c 128,-1,40
 1311 1396 1311 1396 1311 1384 c 0,41,42
 1311 1365 1311 1365 1303 1347 c 2,43,-1
 1174 1082 l 1,44,45
 1111 958 1111 958 1040 837 c 1,46,-1
 1198 837 l 2,47,48
 1213 837 1213 837 1224 828 c 128,-1,49
 1235 819 1235 819 1235 805 c 2,50,-1
 1235 698 l 2,51,52
 1235 685 1235 685 1224 675.5 c 128,-1,53
 1213 666 1213 666 1198 666 c 2,54,-1
 936 666 l 1,55,-1
 814 484 l 1,56,-1
 1168 484 l 2,57,58
 1183 484 1183 484 1194 475 c 128,-1,59
 1205 466 1205 466 1205 452 c 2,60,-1
 1205 345 l 2,61,62
 1205 332 1205 332 1194 322.5 c 128,-1,63
 1183 313 1183 313 1168 313 c 2,64,-1
 818 313 l 1,65,-1
 818 64 l 2,66,67
 818 37 818 37 801.5 18.5 c 128,-1,68
 785 0 785 0 762 0 c 2,69,-1
 624 0 l 2,70,71
 601 0 601 0 585 19 c 128,-1,72
 569 38 569 38 569 64 c 2,73,-1
 569 313 l 1,74,-1
 190 313 l 2,75,0
 175 313 175 313 164 322.5 c 128,-1,1
EndSplineSet
EndChar

StartChar: brokenbar
Encoding: 166 166 123
Width: 683
GlyphClass: 2
Flags: W
LayerCount: 2
Fore
SplineSet
290 928 m 2,0,1
 267 928 267 928 251 947 c 128,-1,2
 235 966 235 966 235 992 c 2,3,-1
 235 1813 l 2,4,5
 235 1839 235 1839 251.5 1858 c 128,-1,6
 268 1877 268 1877 291 1877 c 2,7,-1
 393 1877 l 2,8,9
 416 1877 416 1877 432 1858 c 128,-1,10
 448 1839 448 1839 448 1813 c 2,11,-1
 448 992 l 2,12,13
 448 966 448 966 431.5 947 c 128,-1,14
 415 928 415 928 392 928 c 2,15,-1
 290 928 l 2,0,1
235 579 m 2,16,17
 235 605 235 605 251.5 624 c 128,-1,18
 268 643 268 643 291 643 c 2,19,-1
 393 643 l 2,20,21
 416 643 416 643 432 624 c 128,-1,22
 448 605 448 605 448 579 c 2,23,-1
 448 -250 l 2,24,25
 448 -276 448 -276 431.5 -295 c 128,-1,26
 415 -314 415 -314 392 -314 c 2,27,-1
 290 -314 l 2,28,29
 267 -314 267 -314 251 -295 c 128,-1,30
 235 -276 235 -276 235 -250 c 2,31,-1
 235 579 l 2,16,17
EndSplineSet
EndChar

StartChar: section
Encoding: 167 167 124
Width: 1363
GlyphClass: 2
Flags: W
LayerCount: 2
Fore
SplineSet
391 1060 m 1,0,1
 222 1219 222 1219 222 1396 c 0,2,3
 222 1578 222 1578 370 1694 c 1,4,5
 506 1802 506 1802 701 1802 c 0,6,7
 843 1802 843 1802 990 1741 c 0,8,9
 1080 1704 1080 1704 1108.5 1672.5 c 128,-1,10
 1137 1641 1137 1641 1137 1629 c 128,-1,11
 1137 1617 1137 1617 1135.5 1610.5 c 128,-1,12
 1134 1604 1134 1604 1129 1591.5 c 128,-1,13
 1124 1579 1124 1579 1114 1560 c 2,14,-1
 1089 1509 l 2,15,16
 1066 1462 1066 1462 1036 1462 c 0,17,18
 1020 1462 1020 1462 994 1478 c 128,-1,19
 968 1494 968 1494 932.5 1513 c 128,-1,20
 897 1532 897 1532 858 1546 c 0,21,22
 772 1579 772 1579 709 1579 c 128,-1,23
 646 1579 646 1579 604 1567.5 c 128,-1,24
 562 1556 562 1556 531 1533 c 0,25,26
 465 1484 465 1484 465 1391 c 0,27,28
 465 1256 465 1256 660 1167 c 0,29,30
 713 1143 713 1143 776.5 1118 c 128,-1,31
 840 1093 840 1093 918.5 1053.5 c 128,-1,32
 997 1014 997 1014 1060 958 c 0,33,34
 1200 834 1200 834 1200 651 c 0,35,36
 1200 461 1200 461 1067 336 c 0,37,38
 1026 298 1026 298 977 270 c 1,39,40
 1049 201 1049 201 1075 157 c 0,41,42
 1126 73 1126 73 1126 -23.5 c 128,-1,43
 1126 -120 1126 -120 1083.5 -203.5 c 128,-1,44
 1041 -287 1041 -287 972 -344 c 0,45,46
 831 -463 831 -463 641 -463 c 0,47,48
 430 -463 430 -463 258 -382 c 0,49,50
 149 -331 149 -331 149 -273 c 0,51,52
 149 -261 149 -261 155 -247 c 2,53,-1
 198 -156 l 2,54,55
 214 -122 214 -122 252 -122 c 0,56,57
 268 -122 268 -122 291 -135 c 128,-1,58
 314 -148 314 -148 352.5 -167.5 c 128,-1,59
 391 -187 391 -187 435 -204 c 0,60,61
 536 -243 536 -243 611.5 -243 c 128,-1,62
 687 -243 687 -243 734 -229 c 128,-1,63
 781 -215 781 -215 814 -187 c 0,64,65
 884 -128 884 -128 884 -26 c 0,66,67
 884 95 884 95 682 180 c 1,68,-1
 567 226 l 1,69,70
 283 338 283 338 186 536 c 0,71,72
 150 611 150 611 150 689 c 128,-1,73
 150 767 150 767 167.5 821 c 128,-1,74
 185 875 185 875 217 920 c 0,75,76
 279 1007 279 1007 391 1060 c 1,0,1
793 378 m 1,77,78
 858 392 858 392 908 468 c 0,79,80
 961 548 961 548 961 620.5 c 128,-1,81
 961 693 961 693 931 735 c 128,-1,82
 901 777 901 777 852 810 c 0,83,84
 777 861 777 861 617 919 c 2,85,-1
 565 938 l 1,86,87
 447 905 447 905 404 792 c 0,88,89
 388 751 388 751 388 700 c 128,-1,90
 388 649 388 649 411 611.5 c 128,-1,91
 434 574 434 574 470.5 544.5 c 128,-1,92
 507 515 507 515 553 492 c 1,93,-1
 793 378 l 1,77,78
EndSplineSet
EndChar

StartChar: dieresis
Encoding: 168 168 125
Width: 1040
GlyphClass: 2
Flags: W
LayerCount: 2
Fore
SplineSet
769 1317 m 0,0,1
 708 1317 708 1317 664 1362 c 1,2,3
 620 1405 620 1405 620 1470 c 0,4,5
 620 1569 620 1569 711 1609 c 0,6,7
 738 1621 738 1621 769 1621 c 0,8,9
 830 1621 830 1621 874 1577 c 128,-1,10
 918 1533 918 1533 918 1485.5 c 128,-1,11
 918 1438 918 1438 906 1410 c 128,-1,12
 894 1382 894 1382 874 1362 c 0,13,14
 831 1317 831 1317 769 1317 c 0,0,1
273 1317 m 0,15,16
 212 1317 212 1317 168 1362 c 1,17,18
 124 1405 124 1405 124 1470 c 0,19,20
 124 1569 124 1569 215 1609 c 0,21,22
 242 1621 242 1621 273 1621 c 0,23,24
 334 1621 334 1621 378 1577 c 128,-1,25
 422 1533 422 1533 422 1485.5 c 128,-1,26
 422 1438 422 1438 410 1410 c 128,-1,27
 398 1382 398 1382 378 1362 c 0,28,29
 335 1317 335 1317 273 1317 c 0,15,16
EndSplineSet
EndChar

StartChar: copyright
Encoding: 169 169 126
Width: 1704
GlyphClass: 2
Flags: W
LayerCount: 2
Fore
SplineSet
145.5 459.5 m 128,-1,1
 85 600 85 600 85 766.5 c 128,-1,2
 85 933 85 933 145.5 1073.5 c 128,-1,3
 206 1214 206 1214 310.5 1316.5 c 128,-1,4
 415 1419 415 1419 555 1476.5 c 128,-1,5
 695 1534 695 1534 827 1534 c 128,-1,6
 959 1534 959 1534 1057 1508 c 128,-1,7
 1155 1482 1155 1482 1240 1433.5 c 128,-1,8
 1325 1385 1325 1385 1395 1316.5 c 128,-1,9
 1465 1248 1465 1248 1515 1162 c 0,10,11
 1620 983 1620 983 1620 767 c 0,12,13
 1620 550 1620 550 1515 370 c 0,14,15
 1415 199 1415 199 1240 100 c 1,16,17
 1064 -1 1064 -1 879.5 -1 c 128,-1,18
 695 -1 695 -1 555 56.5 c 128,-1,19
 415 114 415 114 310.5 216.5 c 128,-1,0
 206 319 206 319 145.5 459.5 c 128,-1,1
268 766 m 0,20,21
 268 637 268 637 313.5 529 c 128,-1,22
 359 421 359 421 438 343 c 0,23,24
 607 178 607 178 854 178 c 0,25,26
 1100 178 1100 178 1267 343 c 0,27,28
 1437 511 1437 511 1437 767 c 0,29,30
 1437 1022 1437 1022 1267 1190 c 0,31,32
 1100 1355 1100 1355 854 1355 c 0,33,34
 607 1355 607 1355 438 1190 c 0,35,36
 268 1023 268 1023 268 766 c 0,20,21
1038 834 m 2,37,38
 972 834 972 834 972 898 c 0,39,40
 972 957 972 957 941.5 981.5 c 128,-1,41
 911 1006 911 1006 867.5 1006 c 128,-1,42
 824 1006 824 1006 792.5 986.5 c 128,-1,43
 761 967 761 967 740 936 c 0,44,45
 696 872 696 872 696 801.5 c 128,-1,46
 696 731 696 731 708 688.5 c 128,-1,47
 720 646 720 646 744 614 c 0,48,49
 796 545 796 545 883 545 c 0,50,51
 937 545 937 545 978 566.5 c 128,-1,52
 1019 588 1019 588 1036.5 598 c 128,-1,53
 1054 608 1054 608 1069 608 c 0,54,55
 1100 608 1100 608 1118 578 c 1,56,57
 1142 530 1142 530 1142 507.5 c 128,-1,58
 1142 485 1142 485 1114 459.5 c 128,-1,59
 1086 434 1086 434 1045 416 c 0,60,61
 961 379 961 379 876 379 c 128,-1,62
 791 379 791 379 724 408.5 c 128,-1,63
 657 438 657 438 609 491 c 0,64,65
 507 604 507 604 507 781 c 0,66,67
 507 951 507 951 610 1058 c 0,68,69
 711 1162 711 1162 868 1162 c 0,70,71
 1012 1162 1012 1162 1086 1086 c 1,72,73
 1151 1021 1151 1021 1151 927.5 c 128,-1,74
 1151 834 1151 834 1059 834 c 2,75,-1
 1038 834 l 2,37,38
EndSplineSet
EndChar

StartChar: ordfeminine
Encoding: 170 170 127
Width: 1195
GlyphClass: 2
Flags: W
LayerCount: 2
Fore
SplineSet
735 744 m 1,0,1
 637 600 637 600 442 600 c 0,2,3
 312 600 312 600 220 676 c 0,4,5
 119 759 119 759 119 899 c 0,6,7
 119 1054 119 1054 228 1133 c 0,8,9
 319 1198 319 1198 460 1198 c 128,-1,10
 601 1198 601 1198 695 1123 c 1,11,12
 696 1131 696 1131 696 1144 c 2,13,-1
 696 1161 l 2,14,15
 696 1265 696 1265 637.5 1315.5 c 128,-1,16
 579 1366 579 1366 494.5 1366 c 128,-1,17
 410 1366 410 1366 365 1349.5 c 128,-1,18
 320 1333 320 1333 299 1322 c 0,19,20
 260 1303 260 1303 244 1303 c 128,-1,21
 228 1303 228 1303 213.5 1320.5 c 128,-1,22
 199 1338 199 1338 190 1360 c 0,23,24
 172 1402 172 1402 172 1427.5 c 128,-1,25
 172 1453 172 1453 207 1478.5 c 128,-1,26
 242 1504 242 1504 293 1522 c 0,27,28
 396 1557 396 1557 490 1557 c 128,-1,29
 584 1557 584 1557 654 1532 c 128,-1,30
 724 1507 724 1507 776 1459 c 0,31,32
 885 1357 885 1357 885 1179 c 0,33,34
 885 1104 885 1104 859 976 c 1,35,36
 926 808 926 808 926 669 c 0,37,38
 926 617 926 617 874 617 c 2,39,-1
 801 617 l 2,40,41
 753 617 753 617 748 650 c 0,42,43
 747 660 747 660 746 677 c 0,44,45
 743 708 743 708 735 744 c 1,0,1
375.5 811 m 128,-1,47
 417 779 417 779 468 779 c 128,-1,48
 519 779 519 779 552.5 791 c 128,-1,49
 586 803 586 803 612 822 c 0,50,51
 664 859 664 859 668 905 c 1,52,53
 656 956 656 956 598 990 c 0,54,55
 542 1023 542 1023 497 1023 c 128,-1,56
 452 1023 452 1023 427 1015.5 c 128,-1,57
 402 1008 402 1008 381 993 c 0,58,59
 334 959 334 959 334 901 c 128,-1,46
 334 843 334 843 375.5 811 c 128,-1,47
EndSplineSet
EndChar

StartChar: guillemotleft
Encoding: 171 171 128
Width: 1534
GlyphClass: 2
Flags: W
LayerCount: 2
Fore
SplineSet
193 482 m 2,0,1
 157 518 157 518 157 560.5 c 128,-1,2
 157 603 157 603 195 641 c 2,3,-1
 587 1034 l 2,4,5
 617 1064 617 1064 642.5 1064 c 128,-1,6
 668 1064 668 1064 688 1046 c 2,7,-1
 759 978 l 2,8,9
 778 959 778 959 778 939 c 0,10,11
 778 901 778 901 752 877 c 2,12,-1
 425 562 l 1,13,-1
 744 250 l 2,14,15
 765 229 765 229 765 212 c 0,16,17
 765 178 765 178 741 154 c 1,18,-1
 678 85 l 2,19,20
 661 66 661 66 633 66 c 128,-1,21
 605 66 605 66 589 84 c 1,22,-1
 193 482 l 2,0,1
791 482 m 2,23,24
 755 518 755 518 755 560.5 c 128,-1,25
 755 603 755 603 793 641 c 2,26,-1
 1185 1034 l 2,27,28
 1215 1064 1215 1064 1240.5 1064 c 128,-1,29
 1266 1064 1266 1064 1286 1046 c 2,30,-1
 1357 978 l 2,31,32
 1376 959 1376 959 1376 939 c 0,33,34
 1376 901 1376 901 1350 877 c 2,35,-1
 1023 562 l 1,36,-1
 1342 250 l 2,37,38
 1363 229 1363 229 1363 212 c 0,39,40
 1363 178 1363 178 1339 154 c 1,41,-1
 1276 85 l 2,42,43
 1259 66 1259 66 1231 66 c 128,-1,44
 1203 66 1203 66 1187 84 c 1,45,-1
 791 482 l 2,23,24
EndSplineSet
EndChar

StartChar: logicalnot
Encoding: 172 172 129
Width: 1533
GlyphClass: 2
Flags: W
LayerCount: 2
Fore
SplineSet
148 687.5 m 128,-1,1
 132 702 132 702 132 722 c 2,2,-1
 132 812 l 2,3,4
 132 832 132 832 148 846 c 128,-1,5
 164 860 164 860 187 860 c 2,6,-1
 1272 860 l 2,7,8
 1295 860 1295 860 1311.5 845 c 128,-1,9
 1328 830 1328 830 1328 807 c 2,10,-1
 1328 290 l 2,11,12
 1328 267 1328 267 1313 250.5 c 128,-1,13
 1298 234 1298 234 1275 234 c 2,14,-1
 1192 234 l 2,15,16
 1167 234 1167 234 1152 250.5 c 128,-1,17
 1137 267 1137 267 1137 290 c 2,18,-1
 1137 673 l 1,19,-1
 187 673 l 2,20,0
 164 673 164 673 148 687.5 c 128,-1,1
EndSplineSet
EndChar

StartChar: registered
Encoding: 174 174 131
Width: 1704
GlyphClass: 2
Flags: W
LayerCount: 2
Fore
SplineSet
145.5 459.5 m 128,-1,1
 85 600 85 600 85 766.5 c 128,-1,2
 85 933 85 933 145.5 1073.5 c 128,-1,3
 206 1214 206 1214 310.5 1316.5 c 128,-1,4
 415 1419 415 1419 555 1476.5 c 128,-1,5
 695 1534 695 1534 827 1534 c 128,-1,6
 959 1534 959 1534 1057 1508 c 128,-1,7
 1155 1482 1155 1482 1240 1433.5 c 128,-1,8
 1325 1385 1325 1385 1395 1316.5 c 128,-1,9
 1465 1248 1465 1248 1515 1162 c 0,10,11
 1620 983 1620 983 1620 767 c 0,12,13
 1620 550 1620 550 1515 370 c 0,14,15
 1415 199 1415 199 1240 100 c 1,16,17
 1064 -1 1064 -1 879.5 -1 c 128,-1,18
 695 -1 695 -1 555 56.5 c 128,-1,19
 415 114 415 114 310.5 216.5 c 128,-1,0
 206 319 206 319 145.5 459.5 c 128,-1,1
268 766 m 0,20,21
 268 637 268 637 313.5 529 c 128,-1,22
 359 421 359 421 438 343 c 0,23,24
 607 178 607 178 854 178 c 0,25,26
 1100 178 1100 178 1267 343 c 0,27,28
 1437 511 1437 511 1437 767 c 0,29,30
 1437 1022 1437 1022 1267 1190 c 0,31,32
 1100 1355 1100 1355 854 1355 c 0,33,34
 607 1355 607 1355 438 1190 c 0,35,36
 268 1023 268 1023 268 766 c 0,20,21
1076 379 m 0,37,38
 890 379 890 379 734 668 c 1,39,-1
 734 438 l 2,40,41
 734 422 734 422 721.5 405 c 128,-1,42
 709 388 709 388 678 388 c 2,43,-1
 631 388 l 2,44,45
 588 388 588 388 576 422 c 0,46,47
 573 431 573 431 573 438 c 2,48,-1
 573 1091 l 2,49,50
 573 1155 573 1155 631 1155 c 2,51,-1
 860 1155 l 2,52,53
 1080 1155 1080 1155 1148 1020 c 0,54,55
 1172 973 1172 973 1172 913 c 128,-1,56
 1172 853 1172 853 1150.5 808 c 128,-1,57
 1129 763 1129 763 1093 730 c 0,58,59
 1016 659 1016 659 910 659 c 2,60,-1
 899 659 l 2,61,62
 894 659 894 659 888 660 c 1,63,64
 982 543 982 543 1082 543 c 1,65,-1
 1141 550 l 1,66,67
 1174 550 1174 550 1186 477 c 0,68,69
 1188 461 1188 461 1188 455 c 0,70,71
 1188 424 1188 424 1156.5 401.5 c 128,-1,72
 1125 379 1125 379 1076 379 c 0,37,38
992 902 m 0,73,74
 992 1008 992 1008 840 1008 c 2,75,-1
 734 1008 l 1,76,-1
 734 787 l 1,77,78
 750 785 750 785 772 779.5 c 128,-1,79
 794 774 794 774 829.5 774 c 128,-1,80
 865 774 865 774 894 780.5 c 128,-1,81
 923 787 923 787 944 802 c 0,82,83
 992 835 992 835 992 902 c 0,73,74
EndSplineSet
EndChar

StartChar: macron
Encoding: 175 175 132
Width: 683
GlyphClass: 2
Flags: W
LayerCount: 2
Fore
SplineSet
52 1381.5 m 128,-1,1
 39 1392 39 1392 39 1409 c 2,2,-1
 39 1539 l 2,3,4
 39 1555 39 1555 52 1565.5 c 128,-1,5
 65 1576 65 1576 82 1576 c 2,6,-1
 600 1576 l 2,7,8
 618 1576 618 1576 631 1565.5 c 128,-1,9
 644 1555 644 1555 644 1538 c 2,10,-1
 644 1408 l 2,11,12
 644 1392 644 1392 631 1381.5 c 128,-1,13
 618 1371 618 1371 600 1371 c 2,14,-1
 82 1371 l 2,15,0
 65 1371 65 1371 52 1381.5 c 128,-1,1
EndSplineSet
EndChar

StartChar: degree
Encoding: 176 176 133
Width: 853
GlyphClass: 2
Flags: W
LayerCount: 2
Fore
SplineSet
426 911 m 0,0,1
 349 911 349 911 280.5 940.5 c 128,-1,2
 212 970 212 970 161 1021 c 0,3,4
 51 1131 51 1131 51 1290 c 0,5,6
 51 1448 51 1448 161 1558 c 0,7,8
 270 1667 270 1667 426 1667 c 0,9,10
 580 1667 580 1667 689 1558 c 0,11,12
 799 1448 799 1448 799 1290 c 0,13,14
 799 1131 799 1131 689 1021 c 128,-1,15
 579 911 579 911 426 911 c 0,0,1
426 1103 m 0,16,17
 462 1103 462 1103 494.5 1117 c 128,-1,18
 527 1131 527 1131 552 1156 c 0,19,20
 604 1210 604 1210 604 1290 c 0,21,22
 604 1368 604 1368 552 1422 c 0,23,24
 500 1475 500 1475 426 1475 c 0,25,26
 350 1475 350 1475 298 1422 c 0,27,28
 246 1368 246 1368 246 1290 c 0,29,30
 246 1210 246 1210 298 1156 c 0,31,32
 350 1103 350 1103 426 1103 c 0,16,17
EndSplineSet
EndChar

StartChar: plusminus
Encoding: 177 177 134
Width: 1363
GlyphClass: 2
Flags: W
LayerCount: 2
Fore
SplineSet
581 684 m 1,0,-1
 187 684 l 2,1,2
 164 684 164 684 148 698.5 c 128,-1,3
 132 713 132 713 132 733 c 2,4,-1
 132 828 l 2,5,6
 132 848 132 848 148 862 c 128,-1,7
 164 876 164 876 187 876 c 2,8,-1
 581 876 l 1,9,-1
 581 1166 l 2,10,11
 581 1189 581 1189 595.5 1205 c 128,-1,12
 610 1221 610 1221 630 1221 c 2,13,-1
 734 1221 l 2,14,15
 754 1221 754 1221 768 1205 c 128,-1,16
 782 1189 782 1189 782 1166 c 2,17,-1
 782 876 l 1,18,-1
 1175 876 l 2,19,20
 1198 876 1198 876 1214.5 861 c 128,-1,21
 1231 846 1231 846 1231 823 c 2,22,-1
 1231 739 l 2,23,24
 1231 714 1231 714 1214.5 699 c 128,-1,25
 1198 684 1198 684 1175 684 c 2,26,-1
 782 684 l 1,27,-1
 782 381 l 2,28,29
 782 358 782 358 767 341.5 c 128,-1,30
 752 325 752 325 729 325 c 2,31,-1
 636 325 l 2,32,33
 611 325 611 325 596 341.5 c 128,-1,34
 581 358 581 358 581 381 c 2,35,-1
 581 684 l 1,0,-1
148 19.5 m 128,-1,37
 132 34 132 34 132 54 c 2,38,-1
 132 149 l 2,39,40
 132 169 132 169 148 183 c 128,-1,41
 164 197 164 197 187 197 c 2,42,-1
 1175 197 l 2,43,44
 1198 197 1198 197 1214.5 182 c 128,-1,45
 1231 167 1231 167 1231 144 c 2,46,-1
 1231 60 l 2,47,48
 1231 35 1231 35 1214.5 20 c 128,-1,49
 1198 5 1198 5 1175 5 c 2,50,-1
 187 5 l 2,51,36
 164 5 164 5 148 19.5 c 128,-1,37
EndSplineSet
EndChar

StartChar: twosuperior
Encoding: 178 178 135
Width: 1019
GlyphClass: 2
Flags: W
LayerCount: 2
Fore
SplineSet
176 854 m 2,0,1
 119 854 119 854 119 904 c 2,2,-1
 119 980 l 2,3,4
 119 1035 119 1035 132 1045.5 c 128,-1,5
 145 1056 145 1056 171 1069 c 128,-1,6
 197 1082 197 1082 246.5 1112.5 c 128,-1,7
 296 1143 296 1143 348.5 1181 c 128,-1,8
 401 1219 401 1219 451.5 1262.5 c 128,-1,9
 502 1306 502 1306 542 1352 c 1,10,11
 630 1457 630 1457 630 1537 c 0,12,13
 630 1619 630 1619 574 1658 c 0,14,15
 529 1689 529 1689 482.5 1689 c 128,-1,16
 436 1689 436 1689 407.5 1682 c 128,-1,17
 379 1675 379 1675 354 1660 c 0,18,19
 301 1630 301 1630 283.5 1584 c 128,-1,20
 266 1538 266 1538 250 1528 c 128,-1,21
 234 1518 234 1518 216 1518 c 0,22,23
 100 1518 100 1518 100 1592 c 0,24,25
 100 1716 100 1716 224 1794 c 0,26,27
 336 1865 336 1865 474 1865 c 0,28,29
 708 1865 708 1865 805 1704 c 0,30,31
 841 1644 841 1644 841 1567 c 128,-1,32
 841 1490 841 1490 820 1433.5 c 128,-1,33
 799 1377 799 1377 764.5 1328 c 128,-1,34
 730 1279 730 1279 686 1237 c 128,-1,35
 642 1195 642 1195 595 1159.5 c 128,-1,36
 548 1124 548 1124 502 1096 c 2,37,-1
 418 1044 l 1,38,-1
 388 1028 l 1,39,-1
 824 1044 l 2,40,41
 856 1046 856 1046 865 1029.5 c 128,-1,42
 874 1013 874 1013 874 987 c 2,43,-1
 874 901 l 2,44,45
 874 873 874 873 859.5 863.5 c 128,-1,46
 845 854 845 854 817 854 c 2,47,-1
 176 854 l 2,0,1
EndSplineSet
EndChar

StartChar: threesuperior
Encoding: 179 179 136
Width: 1020
GlyphClass: 2
Flags: W
LayerCount: 2
Fore
SplineSet
822 1603 m 0,0,1
 822 1448 822 1448 642 1377 c 1,2,3
 741 1364 741 1364 805 1294 c 0,4,5
 865 1229 865 1229 865 1142.5 c 128,-1,6
 865 1056 865 1056 829.5 996.5 c 128,-1,7
 794 937 794 937 738 900 c 0,8,9
 631 830 631 830 468 830 c 0,10,11
 325 830 325 830 216 876 c 0,12,13
 155 901 155 901 122 947 c 0,14,15
 111 963 111 963 111 979 c 128,-1,16
 111 995 111 995 120 1009 c 2,17,-1
 149 1052 l 1,18,19
 171 1090 171 1090 195.5 1090 c 128,-1,20
 220 1090 220 1090 242 1073 c 128,-1,21
 264 1056 264 1056 291.5 1044.5 c 128,-1,22
 319 1033 319 1033 350 1025 c 0,23,24
 412 1009 412 1009 461 1009 c 128,-1,25
 510 1009 510 1009 543.5 1017 c 128,-1,26
 577 1025 577 1025 602 1042 c 0,27,28
 656 1079 656 1079 656 1146 c 0,29,30
 656 1207 656 1207 591 1242 c 0,31,32
 534 1272 534 1272 457 1272 c 2,33,-1
 415 1272 l 2,34,35
 392 1272 392 1272 384 1284.5 c 128,-1,36
 376 1297 376 1297 374 1322 c 1,37,-1
 373 1390 l 1,38,39
 370 1426 370 1426 405 1430 c 1,40,41
 608 1460 608 1460 608 1580 c 0,42,43
 608 1633 608 1633 558 1663 c 0,44,45
 516 1689 516 1689 461 1689 c 0,46,47
 335 1689 335 1689 259 1598 c 1,48,49
 227 1554 227 1554 162 1626 c 0,50,51
 152 1637 152 1637 140 1648 c 128,-1,52
 128 1659 128 1659 128 1684 c 0,53,54
 128 1723 128 1723 169 1759.5 c 128,-1,55
 210 1796 210 1796 245 1813 c 128,-1,56
 280 1830 280 1830 318 1841 c 0,57,58
 397 1864 397 1864 462 1864 c 128,-1,59
 527 1864 527 1864 590 1851.5 c 128,-1,60
 653 1839 653 1839 704 1808 c 1,61,62
 822 1739 822 1739 822 1603 c 0,0,1
EndSplineSet
EndChar

StartChar: acute
Encoding: 180 180 137
Width: 687
GlyphClass: 2
Flags: W
LayerCount: 2
Fore
SplineSet
286 1289 m 2,0,1
 273 1281 273 1281 256 1281 c 128,-1,2
 239 1281 239 1281 230 1295 c 2,3,-1
 181 1363 l 2,4,5
 174 1373 174 1373 174 1386.5 c 128,-1,6
 174 1400 174 1400 194 1418 c 2,7,-1
 503 1699 l 2,8,9
 528 1722 528 1722 550 1722 c 0,10,11
 585 1722 585 1722 602 1700 c 2,12,-1
 677 1605 l 2,13,14
 689 1590 689 1590 688 1574 c 0,15,16
 687 1533 687 1533 649 1510 c 2,17,-1
 286 1289 l 2,0,1
EndSplineSet
EndChar

StartChar: mu
Encoding: 181 181 138
Width: 1364
GlyphClass: 2
Flags: W
LayerCount: 2
Fore
SplineSet
414 41 m 1,0,-1
 435 -472 l 1,1,2
 439 -542 439 -542 376 -542 c 2,3,-1
 252 -542 l 2,4,5
 189 -542 189 -542 189 -468 c 2,6,-1
 189 1062 l 2,7,8
 189 1090 189 1090 206.5 1109 c 128,-1,9
 224 1128 224 1128 256 1128 c 2,10,-1
 366 1128 l 2,11,12
 432 1128 432 1128 432 1062 c 2,13,-1
 432 470 l 2,14,15
 432 232 432 232 550 194 c 0,16,17
 587 182 587 182 634.5 182 c 128,-1,18
 682 182 682 182 733 205 c 128,-1,19
 784 228 784 228 826 266 c 0,20,21
 919 353 919 353 919 465 c 2,22,-1
 919 1062 l 2,23,24
 919 1090 919 1090 936 1109 c 128,-1,25
 953 1128 953 1128 990 1128 c 2,26,-1
 1095 1128 l 2,27,28
 1130 1128 1130 1128 1146 1109 c 128,-1,29
 1162 1090 1162 1090 1162 1062 c 2,30,-1
 1162 437 l 2,31,32
 1162 226 1162 226 1192 97 c 0,33,34
 1195 86 1195 86 1195 68 c 0,35,36
 1195 0 1195 0 1133 0 c 2,37,-1
 1088 0 l 2,38,39
 1028 0 1028 0 1009 48 c 0,40,41
 988 103 988 103 964 201 c 1,42,43
 925 103 925 103 826 39 c 0,44,45
 728 -24 728 -24 620 -24 c 128,-1,46
 512 -24 512 -24 414 41 c 1,0,-1
EndSplineSet
EndChar

StartChar: paragraph
Encoding: 182 182 139
Width: 1536
GlyphClass: 2
Flags: W
LayerCount: 2
Fore
SplineSet
1096 1479 m 2,0,1
 1096 1502 1096 1502 1110 1517.5 c 128,-1,2
 1124 1533 1124 1533 1144 1533 c 2,3,-1
 1259 1533 l 2,4,5
 1278 1533 1278 1533 1291.5 1517.5 c 128,-1,6
 1305 1502 1305 1502 1305 1479 c 2,7,-1
 1305 54 l 2,8,9
 1305 32 1305 32 1291.5 16 c 128,-1,10
 1278 0 1278 0 1258 0 c 2,11,-1
 1143 0 l 2,12,13
 1123 0 1123 0 1109.5 16 c 128,-1,14
 1096 32 1096 32 1096 54 c 2,15,-1
 1096 1479 l 2,0,1
832 1533 m 2,16,17
 911 1533 911 1533 911 1462 c 2,18,-1
 911 50 l 2,19,20
 911 30 911 30 899 15 c 128,-1,21
 887 0 887 0 859 0 c 2,22,-1
 756 0 l 2,23,24
 725 0 725 0 713.5 16 c 128,-1,25
 702 32 702 32 702 50 c 2,26,-1
 702 657 l 1,27,28
 485 657 485 657 348 774 c 0,29,30
 209 893 209 893 209 1086 c 0,31,32
 209 1283 209 1283 351 1410 c 0,33,34
 489 1533 489 1533 703 1533 c 2,35,-1
 832 1533 l 2,16,17
EndSplineSet
EndChar

StartChar: periodcentered
Encoding: 183 183 140
Width: 513
GlyphClass: 2
Flags: W
LayerCount: 2
Fore
SplineSet
86 597 m 0,0,1
 86 668 86 668 136 720 c 0,2,3
 186 771 186 771 258 771 c 0,4,5
 329 771 329 771 378 720 c 0,6,7
 428 668 428 668 428 597 c 0,8,9
 428 525 428 525 378 473 c 128,-1,10
 328 421 328 421 258 421 c 0,11,12
 187 421 187 421 136 473 c 0,13,14
 86 525 86 525 86 597 c 0,0,1
EndSplineSet
EndChar

StartChar: cedilla
Encoding: 184 184 141
Width: 507
GlyphClass: 2
Flags: W
LayerCount: 2
Fore
SplineSet
11 46 m 1,0,-1
 103 46 l 1,1,2
 103 46 103 46 168 -2 c 0,3,4
 314 -111 314 -111 314 -251 c 0,5,6
 314 -349 314 -349 244 -412 c 1,7,8
 169 -477 169 -477 44 -477 c 0,9,10
 -38 -477 -38 -477 -90 -455 c 0,11,12
 -183 -416 -183 -416 -183 -368 c 0,13,14
 -183 -357 -183 -357 -179 -348 c 128,-1,15
 -175 -339 -175 -339 -168 -320 c 0,16,17
 -149 -271 -149 -271 -121 -271 c 0,18,19
 -109 -271 -109 -271 -94 -276 c 2,20,-1
 -61 -286 l 2,21,22
 -10 -302 -10 -302 26.5 -302 c 128,-1,23
 63 -302 63 -302 92 -275 c 128,-1,24
 121 -248 121 -248 121 -207.5 c 128,-1,25
 121 -167 121 -167 104 -135 c 128,-1,26
 87 -103 87 -103 64 -76 c 128,-1,27
 41 -49 41 -49 17 -27 c 128,-1,28
 -7 -5 -7 -5 -22 10 c 1,29,-1
 11 46 l 1,0,-1
EndSplineSet
EndChar

StartChar: onesuperior
Encoding: 185 185 142
Width: 679
GlyphClass: 2
Flags: W
LayerCount: 2
Fore
SplineSet
305 872.5 m 128,-1,1
 291 890 291 890 291 916 c 2,2,-1
 291 1550 l 1,3,-1
 296 1623 l 1,4,5
 232 1591 232 1591 175.5 1579.5 c 128,-1,6
 119 1568 119 1568 101 1568 c 128,-1,7
 83 1568 83 1568 72 1572.5 c 128,-1,8
 61 1577 61 1577 54 1586 c 0,9,10
 43 1600 43 1600 36 1630 c 128,-1,11
 29 1660 29 1660 29 1677 c 0,12,13
 29 1715 29 1715 90 1729 c 0,14,15
 226 1760 226 1760 323 1826 c 0,16,17
 348 1843 348 1843 368 1853.5 c 128,-1,18
 388 1864 388 1864 422 1864 c 128,-1,19
 456 1864 456 1864 478.5 1840.5 c 128,-1,20
 501 1817 501 1817 501 1775 c 2,21,-1
 501 916 l 2,22,23
 501 890 501 890 485.5 872.5 c 128,-1,24
 470 855 470 855 448 855 c 2,25,-1
 342 855 l 2,26,0
 319 855 319 855 305 872.5 c 128,-1,1
EndSplineSet
EndChar

StartChar: ordmasculine
Encoding: 186 186 143
Width: 1023
GlyphClass: 2
Flags: W
LayerCount: 2
Fore
SplineSet
509 600 m 0,0,1
 315 600 315 600 199 734 c 0,2,3
 85 866 85 866 85 1078 c 0,4,5
 85 1297 85 1297 196 1425 c 0,6,7
 310 1557 310 1557 513 1557 c 0,8,9
 717 1557 717 1557 832 1425 c 1,10,11
 943 1296 943 1296 943 1078 c 0,12,13
 943 864 943 864 824 732 c 256,14,15
 705 600 705 600 509 600 c 0,0,1
411 809 m 0,16,17
 452 782 452 782 512.5 782 c 128,-1,18
 573 782 573 782 614 806.5 c 128,-1,19
 655 831 655 831 680 872 c 0,20,21
 728 951 728 951 728 1076 c 0,22,23
 728 1281 728 1281 612 1351 c 0,24,25
 571 1376 571 1376 511.5 1376 c 128,-1,26
 452 1376 452 1376 411.5 1351 c 128,-1,27
 371 1326 371 1326 346 1285 c 0,28,29
 300 1210 300 1210 300 1078 c 0,30,31
 300 882 300 882 411 809 c 0,16,17
EndSplineSet
EndChar

StartChar: guillemotright
Encoding: 187 187 144
Width: 1534
GlyphClass: 2
Flags: W
LayerCount: 2
Fore
SplineSet
735 666 m 2,0,1
 771 630 771 630 771 587.5 c 128,-1,2
 771 545 771 545 733 507 c 2,3,-1
 341 114 l 2,4,5
 311 84 311 84 285.5 84 c 128,-1,6
 260 84 260 84 240 102 c 2,7,-1
 169 170 l 2,8,9
 150 189 150 189 150 209 c 0,10,11
 150 247 150 247 176 271 c 2,12,-1
 503 586 l 1,13,-1
 184 898 l 2,14,15
 163 919 163 919 163 936 c 0,16,17
 163 970 163 970 187 994 c 1,18,-1
 250 1063 l 2,19,20
 267 1082 267 1082 295 1082 c 128,-1,21
 323 1082 323 1082 339 1064 c 1,22,-1
 735 666 l 2,0,1
1349 666 m 2,23,24
 1385 630 1385 630 1385 587.5 c 128,-1,25
 1385 545 1385 545 1347 507 c 2,26,-1
 955 114 l 2,27,28
 925 84 925 84 899.5 84 c 128,-1,29
 874 84 874 84 854 102 c 2,30,-1
 783 170 l 2,31,32
 764 189 764 189 764 209 c 0,33,34
 764 247 764 247 790 271 c 2,35,-1
 1117 586 l 1,36,-1
 798 898 l 2,37,38
 777 919 777 919 777 936 c 0,39,40
 777 970 777 970 801 994 c 1,41,-1
 864 1063 l 2,42,43
 881 1082 881 1082 909 1082 c 128,-1,44
 937 1082 937 1082 953 1064 c 1,45,-1
 1349 666 l 2,23,24
EndSplineSet
EndChar

StartChar: onequarter
Encoding: 188 188 145
Width: 2213
GlyphClass: 2
Flags: W
LayerCount: 2
Fore
SplineSet
1214 381 m 1,0,-1
 1684 946 l 1,1,2
 1735 1004 1735 1004 1778 1010 c 0,3,4
 1791 1011 1791 1011 1804 1011 c 2,5,-1
 1837 1011 l 2,6,7
 1887 1011 1887 1011 1905 998 c 0,8,9
 1940 973 1940 973 1940 900 c 2,10,-1
 1940 366 l 1,11,-1
 2026 350 l 2,12,13
 2056 345 2056 345 2067 333 c 128,-1,14
 2078 321 2078 321 2078 298 c 2,15,-1
 2078 253 l 2,16,17
 2078 232 2078 232 2065.5 215.5 c 128,-1,18
 2053 199 2053 199 2020 199 c 2,19,-1
 1939 199 l 1,20,-1
 1939 59 l 2,21,22
 1939 34 1939 34 1923 17 c 128,-1,23
 1907 0 1907 0 1887 0 c 2,24,-1
 1795 0 l 2,25,26
 1774 0 1774 0 1760 17 c 128,-1,27
 1746 34 1746 34 1746 60 c 2,28,-1
 1746 198 l 1,29,-1
 1270 198 l 2,30,31
 1239 198 1239 198 1217 218 c 1,32,33
 1179 255 1179 255 1179 298.5 c 128,-1,34
 1179 342 1179 342 1214 381 c 1,0,-1
1748 376 m 1,35,-1
 1748 692 l 1,36,-1
 1749 774 l 1,37,-1
 1694 698 l 1,38,-1
 1420 376 l 1,39,-1
 1748 376 l 1,35,-1
425 641.5 m 128,-1,41
 411 659 411 659 411 685 c 2,42,-1
 411 1319 l 1,43,-1
 416 1392 l 1,44,45
 352 1360 352 1360 295.5 1348.5 c 128,-1,46
 239 1337 239 1337 221 1337 c 128,-1,47
 203 1337 203 1337 192 1341.5 c 128,-1,48
 181 1346 181 1346 174 1355 c 0,49,50
 163 1369 163 1369 156 1399 c 128,-1,51
 149 1429 149 1429 149 1446 c 0,52,53
 149 1484 149 1484 210 1498 c 0,54,55
 346 1529 346 1529 443 1595 c 0,56,57
 468 1612 468 1612 488 1622.5 c 128,-1,58
 508 1633 508 1633 542 1633 c 128,-1,59
 576 1633 576 1633 598.5 1609.5 c 128,-1,60
 621 1586 621 1586 621 1544 c 2,61,-1
 621 685 l 2,62,63
 621 659 621 659 605.5 641.5 c 128,-1,64
 590 624 590 624 568 624 c 2,65,-1
 462 624 l 2,66,40
 439 624 439 624 425 641.5 c 128,-1,41
453 28 m 1,67,68
 424 47 424 47 424 69.5 c 128,-1,69
 424 92 424 92 435 107 c 2,70,-1
 1472 1582 l 2,71,72
 1493 1613 1493 1613 1521 1613 c 0,73,74
 1536 1613 1536 1613 1549 1605 c 2,75,-1
 1622 1558 l 2,76,77
 1645 1544 1645 1544 1645 1520.5 c 128,-1,78
 1645 1497 1645 1497 1632 1480 c 2,79,-1
 599 5 l 2,80,81
 574 -29 574 -29 558 -29 c 0,82,83
 533 -29 533 -29 512 -14 c 2,84,-1
 453 28 l 1,67,68
EndSplineSet
EndChar

StartChar: onehalf
Encoding: 189 189 146
Width: 2381
GlyphClass: 2
Flags: W
LayerCount: 2
Fore
SplineSet
425 642.5 m 128,-1,1
 411 660 411 660 411 686 c 2,2,-1
 411 1320 l 1,3,-1
 416 1393 l 1,4,5
 352 1361 352 1361 295.5 1349.5 c 128,-1,6
 239 1338 239 1338 221 1338 c 128,-1,7
 203 1338 203 1338 192 1342.5 c 128,-1,8
 181 1347 181 1347 174 1356 c 0,9,10
 163 1370 163 1370 156 1400 c 128,-1,11
 149 1430 149 1430 149 1447 c 0,12,13
 149 1485 149 1485 210 1499 c 0,14,15
 346 1530 346 1530 443 1596 c 0,16,17
 468 1613 468 1613 488 1623.5 c 128,-1,18
 508 1634 508 1634 542 1634 c 128,-1,19
 576 1634 576 1634 598.5 1610.5 c 128,-1,20
 621 1587 621 1587 621 1545 c 2,21,-1
 621 686 l 2,22,23
 621 660 621 660 605.5 642.5 c 128,-1,24
 590 625 590 625 568 625 c 2,25,-1
 462 625 l 2,26,0
 439 625 439 625 425 642.5 c 128,-1,1
1383 0 m 2,27,28
 1326 0 1326 0 1326 50 c 2,29,-1
 1326 126 l 2,30,31
 1326 181 1326 181 1339 191.5 c 128,-1,32
 1352 202 1352 202 1378 215 c 128,-1,33
 1404 228 1404 228 1453.5 258.5 c 128,-1,34
 1503 289 1503 289 1555.5 327 c 128,-1,35
 1608 365 1608 365 1658.5 408.5 c 128,-1,36
 1709 452 1709 452 1749 498 c 1,37,38
 1837 603 1837 603 1837 683 c 0,39,40
 1837 765 1837 765 1781 804 c 0,41,42
 1736 835 1736 835 1689.5 835 c 128,-1,43
 1643 835 1643 835 1614.5 828 c 128,-1,44
 1586 821 1586 821 1561 806 c 0,45,46
 1508 776 1508 776 1490.5 730 c 128,-1,47
 1473 684 1473 684 1457 674 c 128,-1,48
 1441 664 1441 664 1423 664 c 0,49,50
 1307 664 1307 664 1307 738 c 0,51,52
 1307 862 1307 862 1431 940 c 0,53,54
 1543 1011 1543 1011 1681 1011 c 0,55,56
 1915 1011 1915 1011 2012 850 c 0,57,58
 2048 790 2048 790 2048 713 c 128,-1,59
 2048 636 2048 636 2027 579.5 c 128,-1,60
 2006 523 2006 523 1971.5 474 c 128,-1,61
 1937 425 1937 425 1893 383 c 128,-1,62
 1849 341 1849 341 1802 305.5 c 128,-1,63
 1755 270 1755 270 1709 242 c 2,64,-1
 1625 190 l 1,65,-1
 1595 174 l 1,66,-1
 2031 190 l 2,67,68
 2063 192 2063 192 2072 175.5 c 128,-1,69
 2081 159 2081 159 2081 133 c 2,70,-1
 2081 47 l 2,71,72
 2081 19 2081 19 2066.5 9.5 c 128,-1,73
 2052 0 2052 0 2024 0 c 2,74,-1
 1383 0 l 2,27,28
433 28 m 1,75,76
 404 47 404 47 404 69.5 c 128,-1,77
 404 92 404 92 415 107 c 2,78,-1
 1452 1582 l 2,79,80
 1473 1613 1473 1613 1501 1613 c 0,81,82
 1516 1613 1516 1613 1529 1605 c 2,83,-1
 1602 1558 l 2,84,85
 1625 1544 1625 1544 1625 1520.5 c 128,-1,86
 1625 1497 1625 1497 1612 1480 c 2,87,-1
 579 5 l 2,88,89
 554 -29 554 -29 538 -29 c 0,90,91
 513 -29 513 -29 492 -14 c 2,92,-1
 433 28 l 1,75,76
EndSplineSet
EndChar

StartChar: threequarters
Encoding: 190 190 147
Width: 2383
GlyphClass: 2
Flags: W
LayerCount: 2
Fore
SplineSet
1374 381 m 1,0,-1
 1844 946 l 1,1,2
 1895 1004 1895 1004 1938 1010 c 0,3,4
 1951 1011 1951 1011 1964 1011 c 2,5,-1
 1997 1011 l 2,6,7
 2047 1011 2047 1011 2065 998 c 0,8,9
 2100 973 2100 973 2100 900 c 2,10,-1
 2100 366 l 1,11,-1
 2186 350 l 2,12,13
 2216 345 2216 345 2227 333 c 128,-1,14
 2238 321 2238 321 2238 298 c 2,15,-1
 2238 253 l 2,16,17
 2238 232 2238 232 2225.5 215.5 c 128,-1,18
 2213 199 2213 199 2180 199 c 2,19,-1
 2099 199 l 1,20,-1
 2099 59 l 2,21,22
 2099 34 2099 34 2083 17 c 128,-1,23
 2067 0 2067 0 2047 0 c 2,24,-1
 1955 0 l 2,25,26
 1934 0 1934 0 1920 17 c 128,-1,27
 1906 34 1906 34 1906 60 c 2,28,-1
 1906 198 l 1,29,-1
 1430 198 l 2,30,31
 1399 198 1399 198 1377 218 c 1,32,33
 1339 255 1339 255 1339 298.5 c 128,-1,34
 1339 342 1339 342 1374 381 c 1,0,-1
1908 376 m 1,35,-1
 1908 692 l 1,36,-1
 1909 774 l 1,37,-1
 1854 698 l 1,38,-1
 1580 376 l 1,39,-1
 1908 376 l 1,35,-1
822 1372 m 0,40,41
 822 1217 822 1217 642 1146 c 1,42,43
 741 1133 741 1133 805 1064 c 0,44,45
 865 998 865 998 865 911.5 c 128,-1,46
 865 825 865 825 829.5 765.5 c 128,-1,47
 794 706 794 706 738 669 c 0,48,49
 631 599 631 599 468 599 c 0,50,51
 325 599 325 599 216 645 c 0,52,53
 155 670 155 670 122 716 c 0,54,55
 111 732 111 732 111 748 c 128,-1,56
 111 764 111 764 120 778 c 2,57,-1
 149 821 l 1,58,59
 171 859 171 859 195.5 859 c 128,-1,60
 220 859 220 859 242 842 c 128,-1,61
 264 825 264 825 291.5 813.5 c 128,-1,62
 319 802 319 802 350 794 c 0,63,64
 412 778 412 778 461 778 c 128,-1,65
 510 778 510 778 543.5 786 c 128,-1,66
 577 794 577 794 602 811 c 0,67,68
 656 848 656 848 656 915 c 0,69,70
 656 976 656 976 591 1010 c 1,71,72
 534 1041 534 1041 457 1041 c 2,73,-1
 415 1041 l 2,74,75
 392 1041 392 1041 384 1053.5 c 128,-1,76
 376 1066 376 1066 374 1091 c 1,77,-1
 373 1159 l 1,78,79
 370 1195 370 1195 405 1199 c 1,80,81
 608 1229 608 1229 608 1349 c 0,82,83
 608 1402 608 1402 558 1432 c 0,84,85
 516 1458 516 1458 461 1458 c 0,86,87
 335 1458 335 1458 259 1367 c 1,88,89
 227 1323 227 1323 162 1396 c 0,90,91
 152 1406 152 1406 140 1417 c 128,-1,92
 128 1428 128 1428 128 1454 c 0,93,94
 128 1492 128 1492 169 1528.5 c 128,-1,95
 210 1565 210 1565 245 1582 c 128,-1,96
 280 1599 280 1599 318 1610 c 0,97,98
 397 1633 397 1633 462 1633 c 128,-1,99
 527 1633 527 1633 590 1620.5 c 128,-1,100
 653 1608 653 1608 704 1578 c 0,101,102
 822 1508 822 1508 822 1372 c 0,40,41
611 28 m 1,103,104
 582 47 582 47 582 69.5 c 128,-1,105
 582 92 582 92 593 107 c 2,106,-1
 1630 1582 l 2,107,108
 1651 1613 1651 1613 1679 1613 c 0,109,110
 1694 1613 1694 1613 1707 1605 c 2,111,-1
 1780 1558 l 2,112,113
 1803 1544 1803 1544 1803 1520.5 c 128,-1,114
 1803 1497 1803 1497 1790 1480 c 2,115,-1
 757 5 l 2,116,117
 732 -29 732 -29 716 -29 c 0,118,119
 691 -29 691 -29 670 -14 c 2,120,-1
 611 28 l 1,103,104
EndSplineSet
EndChar

StartChar: questiondown
Encoding: 191 191 148
Width: 1199
GlyphClass: 2
Flags: W
LayerCount: 2
Fore
SplineSet
957 -18 m 2,0,1
 1065 -18 1065 -18 1065 -139 c 0,2,3
 1065 -318 1065 -318 938 -424 c 0,4,5
 813 -528 813 -528 616 -528 c 0,6,7
 378 -528 378 -528 251 -397 c 0,8,9
 134 -276 134 -276 134 -67 c 0,10,11
 134 147 134 147 295 329 c 1,12,13
 435 485 435 485 650 575 c 0,14,15
 666 582 666 582 676.5 582 c 128,-1,16
 687 582 687 582 695.5 579 c 128,-1,17
 704 576 704 576 714 566 c 0,18,19
 738 542 738 542 754 505 c 128,-1,20
 770 468 770 468 770 447.5 c 128,-1,21
 770 427 770 427 747 407.5 c 128,-1,22
 724 388 724 388 687 365 c 0,23,24
 573 294 573 294 524.5 242.5 c 128,-1,25
 476 191 476 191 451.5 151.5 c 128,-1,26
 427 112 427 112 413 75 c 0,27,28
 387 9 387 9 387 -49.5 c 128,-1,29
 387 -108 387 -108 400 -154.5 c 128,-1,30
 413 -201 413 -201 441 -238 c 0,31,32
 505 -322 505 -322 611 -322 c 0,33,34
 832 -322 832 -322 832 -105 c 0,35,36
 832 -59 832 -59 839 -45 c 0,37,38
 853 -18 853 -18 894 -18 c 2,39,-1
 957 -18 l 2,0,1
816 934 m 0,40,41
 816 863 816 863 765 811 c 0,42,43
 716 760 716 760 644 760 c 0,44,45
 573 760 573 760 524 811 c 0,46,47
 474 863 474 863 474 934 c 0,48,49
 474 1006 474 1006 524 1058 c 128,-1,50
 574 1110 574 1110 644 1110 c 0,51,52
 715 1110 715 1110 765 1058 c 0,53,54
 816 1006 816 1006 816 934 c 0,40,41
EndSplineSet
EndChar

StartChar: Agrave
Encoding: 192 192 149
Width: 1536
GlyphClass: 2
Flags: W
LayerCount: 2
Fore
SplineSet
83 18.5 m 128,-1,1
 68 37 68 37 68 50.5 c 128,-1,2
 68 64 68 64 71 72 c 2,3,-1
 576 1430 l 2,4,5
 610 1519 610 1519 685 1530 c 0,6,7
 711 1533 711 1533 747 1533 c 2,8,-1
 764 1533 l 2,9,10
 832 1533 832 1533 858 1516 c 0,11,12
 900 1490 900 1490 923 1433 c 2,13,-1
 1466 71 l 2,14,15
 1469 63 1469 63 1469 48.5 c 128,-1,16
 1469 34 1469 34 1457 17 c 128,-1,17
 1445 0 1445 0 1417 0 c 2,18,-1
 1277 0 l 2,19,20
 1231 0 1231 0 1213 43 c 1,21,-1
 1089 368 l 1,22,-1
 432 368 l 1,23,-1
 317 43 l 1,24,25
 303 0 303 0 256 0 c 2,26,-1
 127 0 l 2,27,0
 98 0 98 0 83 18.5 c 128,-1,1
1005 584 m 1,28,-1
 766 1234 l 2,29,30
 763 1244 763 1244 754 1244 c 128,-1,31
 745 1244 745 1244 742 1234 c 2,32,-1
 510 584 l 1,33,-1
 1005 584 l 1,28,-1
415 1769 m 2,34,35
 372 1784 372 1784 372 1821 c 0,36,37
 372 1835 372 1835 380 1851 c 2,38,-1
 434 1966 l 1,39,40
 445 1992 445 1992 475.5 1992 c 128,-1,41
 506 1992 506 1992 530 1976 c 1,42,-1
 897 1765 l 2,43,44
 927 1748 927 1748 912 1718 c 1,45,-1
 881 1651 l 1,46,47
 864 1617 864 1617 824 1631 c 2,48,-1
 415 1769 l 2,34,35
EndSplineSet
EndChar

StartChar: Aacute
Encoding: 193 193 150
Width: 1536
GlyphClass: 2
Flags: W
LayerCount: 2
Fore
SplineSet
83 18.5 m 128,-1,1
 68 37 68 37 68 50.5 c 128,-1,2
 68 64 68 64 71 72 c 2,3,-1
 576 1430 l 2,4,5
 610 1519 610 1519 685 1530 c 0,6,7
 711 1533 711 1533 747 1533 c 2,8,-1
 764 1533 l 2,9,10
 832 1533 832 1533 858 1516 c 0,11,12
 900 1490 900 1490 923 1433 c 2,13,-1
 1466 71 l 2,14,15
 1469 63 1469 63 1469 48.5 c 128,-1,16
 1469 34 1469 34 1457 17 c 128,-1,17
 1445 0 1445 0 1417 0 c 2,18,-1
 1277 0 l 2,19,20
 1231 0 1231 0 1213 43 c 1,21,-1
 1089 368 l 1,22,-1
 432 368 l 1,23,-1
 317 43 l 1,24,25
 303 0 303 0 256 0 c 2,26,-1
 127 0 l 2,27,0
 98 0 98 0 83 18.5 c 128,-1,1
1005 584 m 1,28,-1
 766 1234 l 2,29,30
 763 1244 763 1244 754 1244 c 128,-1,31
 745 1244 745 1244 742 1234 c 2,32,-1
 510 584 l 1,33,-1
 1005 584 l 1,28,-1
650 1631 m 2,34,35
 610 1617 610 1617 593 1651 c 1,36,-1
 562 1718 l 1,37,38
 547 1748 547 1748 577 1765 c 2,39,-1
 944 1976 l 1,40,41
 968 1992 968 1992 989 1992 c 0,42,43
 1029 1992 1029 1992 1040 1966 c 1,44,-1
 1094 1851 l 2,45,46
 1102 1835 1102 1835 1102 1821 c 0,47,48
 1102 1784 1102 1784 1059 1769 c 2,49,-1
 650 1631 l 2,34,35
EndSplineSet
EndChar

StartChar: Acircumflex
Encoding: 194 194 151
Width: 1536
GlyphClass: 2
Flags: W
LayerCount: 2
Fore
SplineSet
83 18.5 m 128,-1,1
 68 37 68 37 68 50.5 c 128,-1,2
 68 64 68 64 71 72 c 2,3,-1
 576 1430 l 2,4,5
 610 1519 610 1519 685 1530 c 0,6,7
 711 1533 711 1533 747 1533 c 2,8,-1
 764 1533 l 2,9,10
 832 1533 832 1533 858 1516 c 0,11,12
 900 1490 900 1490 923 1433 c 2,13,-1
 1466 71 l 2,14,15
 1469 63 1469 63 1469 48.5 c 128,-1,16
 1469 34 1469 34 1457 17 c 128,-1,17
 1445 0 1445 0 1417 0 c 2,18,-1
 1277 0 l 2,19,20
 1231 0 1231 0 1213 43 c 1,21,-1
 1089 368 l 1,22,-1
 432 368 l 1,23,-1
 317 43 l 1,24,25
 303 0 303 0 256 0 c 2,26,-1
 127 0 l 2,27,0
 98 0 98 0 83 18.5 c 128,-1,1
1005 584 m 1,28,-1
 766 1234 l 2,29,30
 763 1244 763 1244 754 1244 c 128,-1,31
 745 1244 745 1244 742 1234 c 2,32,-1
 510 584 l 1,33,-1
 1005 584 l 1,28,-1
492 1663 m 2,34,35
 481 1655 481 1655 466 1655 c 128,-1,36
 451 1655 451 1655 439 1668 c 2,37,-1
 386 1725 l 2,38,39
 377 1735 377 1735 377 1751.5 c 128,-1,40
 377 1768 377 1768 390 1779 c 2,41,-1
 590 1959 l 2,42,43
 615 1982 615 1982 643 1982 c 2,44,-1
 826 1982 l 2,45,46
 856 1982 856 1982 881 1959 c 2,47,-1
 1079 1781 l 1,48,49
 1096 1768 1096 1768 1096 1749.5 c 128,-1,50
 1096 1731 1096 1731 1082 1716 c 2,51,-1
 1042 1672 l 2,52,53
 1027 1656 1027 1656 1011.5 1656 c 128,-1,54
 996 1656 996 1656 986 1663 c 2,55,-1
 733 1829 l 1,56,-1
 492 1663 l 2,34,35
EndSplineSet
EndChar

StartChar: Atilde
Encoding: 195 195 152
Width: 1536
GlyphClass: 2
Flags: W
LayerCount: 2
Fore
SplineSet
83 18.5 m 128,-1,1
 68 37 68 37 68 50.5 c 128,-1,2
 68 64 68 64 71 72 c 2,3,-1
 576 1430 l 2,4,5
 610 1519 610 1519 685 1530 c 0,6,7
 711 1533 711 1533 747 1533 c 2,8,-1
 764 1533 l 2,9,10
 832 1533 832 1533 858 1516 c 0,11,12
 900 1490 900 1490 923 1433 c 2,13,-1
 1466 71 l 2,14,15
 1469 63 1469 63 1469 48.5 c 128,-1,16
 1469 34 1469 34 1457 17 c 128,-1,17
 1445 0 1445 0 1417 0 c 2,18,-1
 1277 0 l 2,19,20
 1231 0 1231 0 1213 43 c 1,21,-1
 1089 368 l 1,22,-1
 432 368 l 1,23,-1
 317 43 l 1,24,25
 303 0 303 0 256 0 c 2,26,-1
 127 0 l 2,27,0
 98 0 98 0 83 18.5 c 128,-1,1
1005 584 m 1,28,-1
 766 1234 l 2,29,30
 763 1244 763 1244 754 1244 c 128,-1,31
 745 1244 745 1244 742 1234 c 2,32,-1
 510 584 l 1,33,-1
 1005 584 l 1,28,-1
388 1691 m 1,34,35
 345 1702 345 1702 355.5 1744.5 c 128,-1,36
 366 1787 366 1787 386 1825.5 c 128,-1,37
 406 1864 406 1864 436 1896 c 1,38,39
 502 1970 502 1970 585 1970 c 0,40,41
 654 1970 654 1970 738 1910 c 2,42,-1
 798 1868 l 2,43,44
 825 1849 825 1849 845 1849 c 128,-1,45
 865 1849 865 1849 877 1856.5 c 128,-1,46
 889 1864 889 1864 898 1875 c 0,47,48
 918 1897 918 1897 925 1922.5 c 128,-1,49
 932 1948 932 1948 943 1969.5 c 128,-1,50
 954 1991 954 1991 971 1991 c 128,-1,51
 988 1991 988 1991 999 1988 c 2,52,-1
 1074 1969 l 1,53,54
 1108 1958 1108 1958 1112.5 1944 c 128,-1,55
 1117 1930 1117 1930 1111.5 1890 c 128,-1,56
 1106 1850 1106 1850 1084.5 1805.5 c 128,-1,57
 1063 1761 1063 1761 1032 1728 c 0,58,59
 963 1655 963 1655 878 1655 c 0,60,61
 801 1655 801 1655 716 1712 c 1,62,-1
 658 1753 l 1,63,64
 589 1800 589 1800 542 1730 c 0,65,66
 533 1717 533 1717 527.5 1699.5 c 128,-1,67
 522 1682 522 1682 503.5 1670.5 c 128,-1,68
 485 1659 485 1659 456 1666 c 1,69,-1
 388 1691 l 1,34,35
EndSplineSet
EndChar

StartChar: Adieresis
Encoding: 196 196 153
Width: 1536
GlyphClass: 2
Flags: W
LayerCount: 2
Fore
SplineSet
83 18.5 m 128,-1,1
 68 37 68 37 68 50.5 c 128,-1,2
 68 64 68 64 71 72 c 2,3,-1
 576 1430 l 2,4,5
 610 1519 610 1519 685 1530 c 0,6,7
 711 1533 711 1533 747 1533 c 2,8,-1
 764 1533 l 2,9,10
 832 1533 832 1533 858 1516 c 0,11,12
 900 1490 900 1490 923 1433 c 2,13,-1
 1466 71 l 2,14,15
 1469 63 1469 63 1469 48.5 c 128,-1,16
 1469 34 1469 34 1457 17 c 128,-1,17
 1445 0 1445 0 1417 0 c 2,18,-1
 1277 0 l 2,19,20
 1231 0 1231 0 1213 43 c 1,21,-1
 1089 368 l 1,22,-1
 432 368 l 1,23,-1
 317 43 l 1,24,25
 303 0 303 0 256 0 c 2,26,-1
 127 0 l 2,27,0
 98 0 98 0 83 18.5 c 128,-1,1
1005 584 m 1,28,-1
 766 1234 l 2,29,30
 763 1244 763 1244 754 1244 c 128,-1,31
 745 1244 745 1244 742 1234 c 2,32,-1
 510 584 l 1,33,-1
 1005 584 l 1,28,-1
983 1668 m 0,34,35
 922 1668 922 1668 877 1712 c 1,36,37
 834 1756 834 1756 834 1821 c 0,38,39
 834 1920 834 1920 925 1960 c 0,40,41
 952 1972 952 1972 983 1972 c 0,42,43
 1044 1972 1044 1972 1088 1928 c 128,-1,44
 1132 1884 1132 1884 1132 1836.5 c 128,-1,45
 1132 1789 1132 1789 1120 1761 c 128,-1,46
 1108 1733 1108 1733 1088 1712 c 0,47,48
 1045 1668 1045 1668 983 1668 c 0,34,35
535.5 1680 m 128,-1,50
 509 1668 509 1668 478 1668 c 128,-1,51
 447 1668 447 1668 419.5 1680 c 128,-1,52
 392 1692 392 1692 372 1712 c 0,53,54
 328 1758 328 1758 328 1805 c 128,-1,55
 328 1852 328 1852 340 1880 c 128,-1,56
 352 1908 352 1908 372 1928 c 0,57,58
 416 1972 416 1972 479 1972 c 0,59,60
 537 1972 537 1972 583 1928 c 0,61,62
 626 1886 626 1886 626 1837.5 c 128,-1,63
 626 1789 626 1789 614.5 1761 c 128,-1,64
 603 1733 603 1733 582.5 1712.5 c 128,-1,49
 562 1692 562 1692 535.5 1680 c 128,-1,50
EndSplineSet
EndChar

StartChar: Aring
Encoding: 197 197 154
Width: 1536
GlyphClass: 2
Flags: W
LayerCount: 2
Fore
SplineSet
83 18.5 m 128,-1,1
 68 37 68 37 68 50.5 c 128,-1,2
 68 64 68 64 71 72 c 2,3,-1
 576 1430 l 2,4,5
 610 1519 610 1519 685 1530 c 0,6,7
 711 1533 711 1533 747 1533 c 2,8,-1
 764 1533 l 2,9,10
 832 1533 832 1533 858 1516 c 0,11,12
 900 1490 900 1490 923 1433 c 2,13,-1
 1466 71 l 2,14,15
 1469 63 1469 63 1469 48.5 c 128,-1,16
 1469 34 1469 34 1457 17 c 128,-1,17
 1445 0 1445 0 1417 0 c 2,18,-1
 1277 0 l 2,19,20
 1231 0 1231 0 1213 43 c 1,21,-1
 1089 368 l 1,22,-1
 432 368 l 1,23,-1
 317 43 l 1,24,25
 303 0 303 0 256 0 c 2,26,-1
 127 0 l 2,27,0
 98 0 98 0 83 18.5 c 128,-1,1
1005 584 m 1,28,-1
 766 1234 l 2,29,30
 763 1244 763 1244 754 1244 c 128,-1,31
 745 1244 745 1244 742 1234 c 2,32,-1
 510 584 l 1,33,-1
 1005 584 l 1,28,-1
738 1426 m 0,34,35
 682 1426 682 1426 630.5 1446.5 c 128,-1,36
 579 1467 579 1467 539 1504 c 0,37,38
 454 1584 454 1584 454 1704 c 256,39,40
 454 1824 454 1824 539 1904 c 1,41,42
 622 1980 622 1980 739 1980 c 0,43,44
 854 1980 854 1980 936 1904 c 0,45,46
 1022 1823 1022 1823 1022 1704 c 0,47,48
 1022 1586 1022 1586 936 1504 c 0,49,50
 854 1426 854 1426 738 1426 c 0,34,35
694.5 1594.5 m 128,-1,52
 716 1587 716 1587 738.5 1587 c 128,-1,53
 761 1587 761 1587 782.5 1594.5 c 128,-1,54
 804 1602 804 1602 821 1617 c 0,55,56
 859 1651 859 1651 859 1691 c 128,-1,57
 859 1731 859 1731 848.5 1752.5 c 128,-1,58
 838 1774 838 1774 821 1789 c 0,59,60
 787 1819 787 1819 751.5 1819 c 128,-1,61
 716 1819 716 1819 694.5 1811.5 c 128,-1,62
 673 1804 673 1804 655 1789 c 0,63,64
 617 1756 617 1756 617 1716 c 128,-1,65
 617 1676 617 1676 627.5 1654 c 128,-1,66
 638 1632 638 1632 655.5 1617 c 128,-1,51
 673 1602 673 1602 694.5 1594.5 c 128,-1,52
EndSplineSet
EndChar

StartChar: AE
Encoding: 198 198 155
Width: 1873
GlyphClass: 2
Flags: W
LayerCount: 2
Fore
SplineSet
81 18.5 m 128,-1,1
 66 37 66 37 66 50.5 c 128,-1,2
 66 64 66 64 69 72 c 2,3,-1
 569 1430 l 2,4,5
 592 1494 592 1494 628 1515 c 0,6,7
 659 1533 659 1533 734 1533 c 2,8,-1
 1680 1533 l 2,9,10
 1706 1533 1706 1533 1719.5 1516.5 c 128,-1,11
 1733 1500 1733 1500 1733 1476 c 2,12,-1
 1733 1368 l 2,13,14
 1733 1345 1733 1345 1719.5 1328.5 c 128,-1,15
 1706 1312 1706 1312 1680 1312 c 2,16,-1
 970 1312 l 1,17,-1
 1084 899 l 1,18,-1
 1614 899 l 2,19,20
 1640 899 1640 899 1653.5 882.5 c 128,-1,21
 1667 866 1667 866 1667 842 c 2,22,-1
 1667 734 l 2,23,24
 1667 711 1667 711 1653.5 694.5 c 128,-1,25
 1640 678 1640 678 1614 678 c 2,26,-1
 1145 678 l 1,27,-1
 1270 221 l 1,28,-1
 1685 221 l 2,29,30
 1711 221 1711 221 1724.5 204.5 c 128,-1,31
 1738 188 1738 188 1738 164 c 2,32,-1
 1738 56 l 2,33,34
 1738 33 1738 33 1724.5 16.5 c 128,-1,35
 1711 0 1711 0 1685 0 c 2,36,-1
 1148 0 l 2,37,38
 1099 0 1099 0 1084 43 c 1,39,-1
 995 368 l 1,40,-1
 430 368 l 1,41,-1
 318 43 l 2,42,43
 304 0 304 0 257 0 c 2,44,-1
 125 0 l 2,45,0
 96 0 96 0 81 18.5 c 128,-1,1
926 584 m 1,46,-1
 756 1254 l 2,47,48
 753 1264 753 1264 743.5 1264 c 128,-1,49
 734 1264 734 1264 731 1254 c 2,50,-1
 504 584 l 1,51,-1
 926 584 l 1,46,-1
EndSplineSet
EndChar

StartChar: Ccedilla
Encoding: 199 199 156
Width: 1531
GlyphClass: 2
Flags: W
LayerCount: 2
Fore
SplineSet
885 -24 m 1,0,1
 1004 -127 1004 -127 1004 -251 c 0,2,3
 1004 -349 1004 -349 934 -412 c 1,4,5
 859 -477 859 -477 734 -477 c 0,6,7
 652 -477 652 -477 600 -455 c 0,8,9
 507 -416 507 -416 507 -368 c 0,10,11
 507 -357 507 -357 511 -348 c 128,-1,12
 515 -339 515 -339 522 -320 c 0,13,14
 541 -271 541 -271 569 -271 c 0,15,16
 581 -271 581 -271 596 -276 c 2,17,-1
 629 -286 l 2,18,19
 680 -302 680 -302 716.5 -302 c 128,-1,20
 753 -302 753 -302 782 -275 c 128,-1,21
 811 -248 811 -248 811 -211 c 128,-1,22
 811 -174 811 -174 799 -147 c 128,-1,23
 787 -120 787 -120 769.5 -96 c 128,-1,24
 752 -72 752 -72 732 -52 c 2,25,-1
 694 -15 l 1,26,27
 417 28 417 28 261 248 c 0,28,29
 111 460 111 460 111 782 c 0,30,31
 111 1134 111 1134 298 1344 c 0,32,33
 489 1560 489 1560 824 1560 c 0,34,35
 1008 1560 1008 1560 1150 1478 c 0,36,37
 1314 1384 1314 1384 1314 1208 c 0,38,39
 1314 1084 1314 1084 1204 1084 c 2,40,-1
 1135 1084 l 2,41,42
 1103 1084 1103 1084 1085.5 1107.5 c 128,-1,43
 1068 1131 1068 1131 1065.5 1172.5 c 128,-1,44
 1063 1214 1063 1214 1040 1248.5 c 128,-1,45
 1017 1283 1017 1283 981 1304 c 0,46,47
 914 1343 914 1343 803 1343 c 128,-1,48
 692 1343 692 1343 610 1296.5 c 128,-1,49
 528 1250 528 1250 478 1172 c 1,50,51
 382 1026 382 1026 382 782 c 0,52,53
 382 343 382 343 668 230 c 0,54,55
 756 196 756 196 840 196 c 0,56,57
 992 196 992 196 1108 251 c 1,58,-1
 1164 277 l 2,59,60
 1191 289 1191 289 1212 289 c 128,-1,61
 1233 289 1233 289 1246 279 c 128,-1,62
 1259 269 1259 269 1278.5 231.5 c 128,-1,63
 1298 194 1298 194 1298 166.5 c 128,-1,64
 1298 139 1298 139 1279 112.5 c 128,-1,65
 1260 86 1260 86 1232 66 c 1,66,67
 1183 34 1183 34 1120 15 c 0,68,69
 1010 -18 1010 -18 885 -24 c 1,0,1
EndSplineSet
EndChar

StartChar: Egrave
Encoding: 200 200 157
Width: 1362
GlyphClass: 2
Flags: W
LayerCount: 2
Fore
SplineSet
234 1469 m 2,0,1
 234 1495 234 1495 250.5 1514 c 128,-1,2
 267 1533 267 1533 290 1533 c 2,3,-1
 1169 1533 l 2,4,5
 1195 1533 1195 1533 1208.5 1516.5 c 128,-1,6
 1222 1500 1222 1500 1222 1476 c 2,7,-1
 1222 1368 l 2,8,9
 1222 1345 1222 1345 1208.5 1328.5 c 128,-1,10
 1195 1312 1195 1312 1169 1312 c 2,11,-1
 485 1312 l 1,12,-1
 485 874 l 1,13,-1
 1029 874 l 2,14,15
 1055 874 1055 874 1068.5 857.5 c 128,-1,16
 1082 841 1082 841 1082 817 c 2,17,-1
 1082 709 l 2,18,19
 1082 686 1082 686 1068.5 669.5 c 128,-1,20
 1055 653 1055 653 1029 653 c 2,21,-1
 485 653 l 1,22,-1
 485 221 l 1,23,-1
 1174 221 l 2,24,25
 1200 221 1200 221 1213.5 204.5 c 128,-1,26
 1227 188 1227 188 1227 164 c 2,27,-1
 1227 56 l 2,28,29
 1227 33 1227 33 1213.5 16.5 c 128,-1,30
 1200 0 1200 0 1174 0 c 2,31,-1
 289 0 l 2,32,33
 266 0 266 0 250 19 c 128,-1,34
 234 38 234 38 234 64 c 2,35,-1
 234 1469 l 2,0,1
390 1769 m 2,36,37
 347 1784 347 1784 347 1821 c 0,38,39
 347 1835 347 1835 355 1851 c 2,40,-1
 409 1966 l 1,41,42
 420 1992 420 1992 450.5 1992 c 128,-1,43
 481 1992 481 1992 505 1976 c 1,44,-1
 872 1765 l 2,45,46
 902 1748 902 1748 887 1718 c 1,47,-1
 856 1651 l 1,48,49
 839 1617 839 1617 799 1631 c 2,50,-1
 390 1769 l 2,36,37
EndSplineSet
EndChar

StartChar: Eacute
Encoding: 201 201 158
Width: 1362
GlyphClass: 2
Flags: W
LayerCount: 2
Fore
SplineSet
234 1469 m 2,0,1
 234 1495 234 1495 250.5 1514 c 128,-1,2
 267 1533 267 1533 290 1533 c 2,3,-1
 1169 1533 l 2,4,5
 1195 1533 1195 1533 1208.5 1516.5 c 128,-1,6
 1222 1500 1222 1500 1222 1476 c 2,7,-1
 1222 1368 l 2,8,9
 1222 1345 1222 1345 1208.5 1328.5 c 128,-1,10
 1195 1312 1195 1312 1169 1312 c 2,11,-1
 485 1312 l 1,12,-1
 485 874 l 1,13,-1
 1029 874 l 2,14,15
 1055 874 1055 874 1068.5 857.5 c 128,-1,16
 1082 841 1082 841 1082 817 c 2,17,-1
 1082 709 l 2,18,19
 1082 686 1082 686 1068.5 669.5 c 128,-1,20
 1055 653 1055 653 1029 653 c 2,21,-1
 485 653 l 1,22,-1
 485 221 l 1,23,-1
 1174 221 l 2,24,25
 1200 221 1200 221 1213.5 204.5 c 128,-1,26
 1227 188 1227 188 1227 164 c 2,27,-1
 1227 56 l 2,28,29
 1227 33 1227 33 1213.5 16.5 c 128,-1,30
 1200 0 1200 0 1174 0 c 2,31,-1
 289 0 l 2,32,33
 266 0 266 0 250 19 c 128,-1,34
 234 38 234 38 234 64 c 2,35,-1
 234 1469 l 2,0,1
650 1631 m 2,36,37
 610 1617 610 1617 593 1651 c 1,38,-1
 562 1718 l 1,39,40
 547 1748 547 1748 577 1765 c 2,41,-1
 944 1976 l 1,42,43
 968 1992 968 1992 989 1992 c 0,44,45
 1029 1992 1029 1992 1040 1966 c 1,46,-1
 1094 1851 l 2,47,48
 1102 1835 1102 1835 1102 1821 c 0,49,50
 1102 1784 1102 1784 1059 1769 c 2,51,-1
 650 1631 l 2,36,37
EndSplineSet
EndChar

StartChar: Ecircumflex
Encoding: 202 202 159
Width: 1362
GlyphClass: 2
Flags: W
LayerCount: 2
Fore
SplineSet
234 1469 m 2,0,1
 234 1495 234 1495 250.5 1514 c 128,-1,2
 267 1533 267 1533 290 1533 c 2,3,-1
 1169 1533 l 2,4,5
 1195 1533 1195 1533 1208.5 1516.5 c 128,-1,6
 1222 1500 1222 1500 1222 1476 c 2,7,-1
 1222 1368 l 2,8,9
 1222 1345 1222 1345 1208.5 1328.5 c 128,-1,10
 1195 1312 1195 1312 1169 1312 c 2,11,-1
 485 1312 l 1,12,-1
 485 874 l 1,13,-1
 1029 874 l 2,14,15
 1055 874 1055 874 1068.5 857.5 c 128,-1,16
 1082 841 1082 841 1082 817 c 2,17,-1
 1082 709 l 2,18,19
 1082 686 1082 686 1068.5 669.5 c 128,-1,20
 1055 653 1055 653 1029 653 c 2,21,-1
 485 653 l 1,22,-1
 485 221 l 1,23,-1
 1174 221 l 2,24,25
 1200 221 1200 221 1213.5 204.5 c 128,-1,26
 1227 188 1227 188 1227 164 c 2,27,-1
 1227 56 l 2,28,29
 1227 33 1227 33 1213.5 16.5 c 128,-1,30
 1200 0 1200 0 1174 0 c 2,31,-1
 289 0 l 2,32,33
 266 0 266 0 250 19 c 128,-1,34
 234 38 234 38 234 64 c 2,35,-1
 234 1469 l 2,0,1
481 1663 m 2,36,37
 470 1655 470 1655 455 1655 c 128,-1,38
 440 1655 440 1655 428 1668 c 2,39,-1
 375 1725 l 2,40,41
 366 1735 366 1735 366 1751.5 c 128,-1,42
 366 1768 366 1768 379 1779 c 2,43,-1
 579 1959 l 2,44,45
 604 1982 604 1982 632 1982 c 2,46,-1
 815 1982 l 2,47,48
 845 1982 845 1982 870 1959 c 2,49,-1
 1068 1781 l 1,50,51
 1085 1768 1085 1768 1085 1749.5 c 128,-1,52
 1085 1731 1085 1731 1071 1716 c 2,53,-1
 1031 1672 l 2,54,55
 1016 1656 1016 1656 1000.5 1656 c 128,-1,56
 985 1656 985 1656 975 1663 c 2,57,-1
 722 1829 l 1,58,-1
 481 1663 l 2,36,37
EndSplineSet
EndChar

StartChar: Edieresis
Encoding: 203 203 160
Width: 1362
GlyphClass: 2
Flags: W
LayerCount: 2
Fore
SplineSet
234 1469 m 2,0,1
 234 1495 234 1495 250.5 1514 c 128,-1,2
 267 1533 267 1533 290 1533 c 2,3,-1
 1169 1533 l 2,4,5
 1195 1533 1195 1533 1208.5 1516.5 c 128,-1,6
 1222 1500 1222 1500 1222 1476 c 2,7,-1
 1222 1368 l 2,8,9
 1222 1345 1222 1345 1208.5 1328.5 c 128,-1,10
 1195 1312 1195 1312 1169 1312 c 2,11,-1
 485 1312 l 1,12,-1
 485 874 l 1,13,-1
 1029 874 l 2,14,15
 1055 874 1055 874 1068.5 857.5 c 128,-1,16
 1082 841 1082 841 1082 817 c 2,17,-1
 1082 709 l 2,18,19
 1082 686 1082 686 1068.5 669.5 c 128,-1,20
 1055 653 1055 653 1029 653 c 2,21,-1
 485 653 l 1,22,-1
 485 221 l 1,23,-1
 1174 221 l 2,24,25
 1200 221 1200 221 1213.5 204.5 c 128,-1,26
 1227 188 1227 188 1227 164 c 2,27,-1
 1227 56 l 2,28,29
 1227 33 1227 33 1213.5 16.5 c 128,-1,30
 1200 0 1200 0 1174 0 c 2,31,-1
 289 0 l 2,32,33
 266 0 266 0 250 19 c 128,-1,34
 234 38 234 38 234 64 c 2,35,-1
 234 1469 l 2,0,1
985 1668 m 0,36,37
 924 1668 924 1668 879 1712 c 1,38,39
 836 1756 836 1756 836 1821 c 0,40,41
 836 1920 836 1920 927 1960 c 0,42,43
 954 1972 954 1972 985 1972 c 0,44,45
 1046 1972 1046 1972 1090 1928 c 128,-1,46
 1134 1884 1134 1884 1134 1836.5 c 128,-1,47
 1134 1789 1134 1789 1122 1761 c 128,-1,48
 1110 1733 1110 1733 1090 1712 c 0,49,50
 1047 1668 1047 1668 985 1668 c 0,36,37
537.5 1680 m 128,-1,52
 511 1668 511 1668 480 1668 c 128,-1,53
 449 1668 449 1668 421.5 1680 c 128,-1,54
 394 1692 394 1692 374 1712 c 0,55,56
 330 1758 330 1758 330 1805 c 128,-1,57
 330 1852 330 1852 342 1880 c 128,-1,58
 354 1908 354 1908 374 1928 c 0,59,60
 418 1972 418 1972 481 1972 c 0,61,62
 539 1972 539 1972 585 1928 c 0,63,64
 628 1886 628 1886 628 1837.5 c 128,-1,65
 628 1789 628 1789 616.5 1761 c 128,-1,66
 605 1733 605 1733 584.5 1712.5 c 128,-1,51
 564 1692 564 1692 537.5 1680 c 128,-1,52
EndSplineSet
EndChar

StartChar: Igrave
Encoding: 204 204 161
Width: 683
GlyphClass: 2
Flags: W
LayerCount: 2
Fore
SplineSet
216 1469 m 2,0,1
 216 1495 216 1495 232.5 1514 c 128,-1,2
 249 1533 249 1533 272 1533 c 2,3,-1
 412 1533 l 2,4,5
 435 1533 435 1533 451 1514 c 128,-1,6
 467 1495 467 1495 467 1469 c 2,7,-1
 467 64 l 2,8,9
 467 38 467 38 450.5 19 c 128,-1,10
 434 0 434 0 411 0 c 2,11,-1
 271 0 l 2,12,13
 248 0 248 0 232 19 c 128,-1,14
 216 38 216 38 216 64 c 2,15,-1
 216 1469 l 2,0,1
31 1769 m 2,16,17
 -12 1784 -12 1784 -12 1821 c 0,18,19
 -12 1835 -12 1835 -4 1851 c 2,20,-1
 50 1966 l 1,21,22
 61 1992 61 1992 91.5 1992 c 128,-1,23
 122 1992 122 1992 146 1976 c 1,24,-1
 513 1765 l 2,25,26
 543 1748 543 1748 528 1718 c 1,27,-1
 497 1651 l 1,28,29
 480 1617 480 1617 440 1631 c 2,30,-1
 31 1769 l 2,16,17
EndSplineSet
EndChar

StartChar: Iacute
Encoding: 205 205 162
Width: 683
GlyphClass: 2
Flags: W
LayerCount: 2
Fore
SplineSet
216 1469 m 2,0,1
 216 1495 216 1495 232.5 1514 c 128,-1,2
 249 1533 249 1533 272 1533 c 2,3,-1
 412 1533 l 2,4,5
 435 1533 435 1533 451 1514 c 128,-1,6
 467 1495 467 1495 467 1469 c 2,7,-1
 467 64 l 2,8,9
 467 38 467 38 450.5 19 c 128,-1,10
 434 0 434 0 411 0 c 2,11,-1
 271 0 l 2,12,13
 248 0 248 0 232 19 c 128,-1,14
 216 38 216 38 216 64 c 2,15,-1
 216 1469 l 2,0,1
262 1631 m 2,16,17
 222 1617 222 1617 205 1651 c 1,18,-1
 174 1718 l 1,19,20
 159 1748 159 1748 189 1765 c 2,21,-1
 556 1976 l 1,22,23
 580 1992 580 1992 601 1992 c 0,24,25
 641 1992 641 1992 652 1966 c 1,26,-1
 706 1851 l 2,27,28
 714 1835 714 1835 714 1821 c 0,29,30
 714 1784 714 1784 671 1769 c 2,31,-1
 262 1631 l 2,16,17
EndSplineSet
EndChar

StartChar: Icircumflex
Encoding: 206 206 163
Width: 683
GlyphClass: 2
Flags: W
LayerCount: 2
Fore
SplineSet
216 1469 m 2,0,1
 216 1495 216 1495 232.5 1514 c 128,-1,2
 249 1533 249 1533 272 1533 c 2,3,-1
 412 1533 l 2,4,5
 435 1533 435 1533 451 1514 c 128,-1,6
 467 1495 467 1495 467 1469 c 2,7,-1
 467 64 l 2,8,9
 467 38 467 38 450.5 19 c 128,-1,10
 434 0 434 0 411 0 c 2,11,-1
 271 0 l 2,12,13
 248 0 248 0 232 19 c 128,-1,14
 216 38 216 38 216 64 c 2,15,-1
 216 1469 l 2,0,1
100 1663 m 2,16,17
 89 1655 89 1655 74 1655 c 128,-1,18
 59 1655 59 1655 47 1668 c 2,19,-1
 -6 1725 l 2,20,21
 -15 1735 -15 1735 -15 1751.5 c 128,-1,22
 -15 1768 -15 1768 -2 1779 c 2,23,-1
 198 1959 l 2,24,25
 223 1982 223 1982 251 1982 c 2,26,-1
 434 1982 l 2,27,28
 464 1982 464 1982 489 1959 c 2,29,-1
 687 1781 l 1,30,31
 704 1768 704 1768 704 1749.5 c 128,-1,32
 704 1731 704 1731 690 1716 c 2,33,-1
 650 1672 l 2,34,35
 635 1656 635 1656 619.5 1656 c 128,-1,36
 604 1656 604 1656 594 1663 c 2,37,-1
 341 1829 l 1,38,-1
 100 1663 l 2,16,17
EndSplineSet
EndChar

StartChar: Idieresis
Encoding: 207 207 164
Width: 683
GlyphClass: 2
Flags: W
LayerCount: 2
Fore
SplineSet
216 1469 m 2,0,1
 216 1495 216 1495 232.5 1514 c 128,-1,2
 249 1533 249 1533 272 1533 c 2,3,-1
 412 1533 l 2,4,5
 435 1533 435 1533 451 1514 c 128,-1,6
 467 1495 467 1495 467 1469 c 2,7,-1
 467 64 l 2,8,9
 467 38 467 38 450.5 19 c 128,-1,10
 434 0 434 0 411 0 c 2,11,-1
 271 0 l 2,12,13
 248 0 248 0 232 19 c 128,-1,14
 216 38 216 38 216 64 c 2,15,-1
 216 1469 l 2,0,1
595 1668 m 0,16,17
 534 1668 534 1668 489 1712 c 1,18,19
 446 1756 446 1756 446 1821 c 0,20,21
 446 1920 446 1920 537 1960 c 0,22,23
 564 1972 564 1972 595 1972 c 0,24,25
 656 1972 656 1972 700 1928 c 128,-1,26
 744 1884 744 1884 744 1836.5 c 128,-1,27
 744 1789 744 1789 732 1761 c 128,-1,28
 720 1733 720 1733 700 1712 c 0,29,30
 657 1668 657 1668 595 1668 c 0,16,17
147.5 1680 m 128,-1,32
 121 1668 121 1668 90 1668 c 128,-1,33
 59 1668 59 1668 31.5 1680 c 128,-1,34
 4 1692 4 1692 -16 1712 c 0,35,36
 -60 1758 -60 1758 -60 1805 c 128,-1,37
 -60 1852 -60 1852 -48 1880 c 128,-1,38
 -36 1908 -36 1908 -16 1928 c 0,39,40
 28 1972 28 1972 91 1972 c 0,41,42
 149 1972 149 1972 195 1928 c 0,43,44
 238 1886 238 1886 238 1837.5 c 128,-1,45
 238 1789 238 1789 226.5 1761 c 128,-1,46
 215 1733 215 1733 194.5 1712.5 c 128,-1,31
 174 1692 174 1692 147.5 1680 c 128,-1,32
EndSplineSet
EndChar

StartChar: Eth
Encoding: 208 208 165
Width: 1533
GlyphClass: 2
Flags: W
LayerCount: 2
Fore
SplineSet
238 656 m 1,0,-1
 92 656 l 2,1,2
 75 656 75 656 62 666.5 c 128,-1,3
 49 677 49 677 49 694 c 2,4,-1
 49 828 l 2,5,6
 49 844 49 844 62 854.5 c 128,-1,7
 75 865 75 865 92 865 c 2,8,-1
 238 865 l 1,9,-1
 238 1446 l 2,10,11
 238 1481 238 1481 261.5 1507 c 128,-1,12
 285 1533 285 1533 327 1533 c 2,13,-1
 644 1533 l 2,14,15
 1040 1533 1040 1533 1240 1337 c 1,16,17
 1430 1149 1430 1149 1430 800 c 0,18,19
 1430 427 1430 427 1216.5 213.5 c 128,-1,20
 1003 0 1003 0 626 0 c 2,21,-1
 327 0 l 2,22,23
 285 0 285 0 261.5 26.5 c 128,-1,24
 238 53 238 53 238 88 c 2,25,-1
 238 656 l 1,0,-1
674 1313 m 2,26,-1
 624 1313 l 2,27,28
 591 1313 591 1313 489 1310 c 1,29,-1
 489 865 l 1,30,-1
 783 865 l 2,31,32
 801 865 801 865 814 854.5 c 128,-1,33
 827 844 827 844 827 827 c 2,34,-1
 827 704 l 2,35,36
 827 680 827 680 814 668 c 128,-1,37
 801 656 801 656 783 656 c 2,38,-1
 489 656 l 1,39,-1
 489 221 l 1,40,-1
 652 218 l 1,41,-1
 658 218 l 2,42,43
 1045 218 1045 218 1134 552 c 0,44,45
 1163 660 1163 660 1163 791.5 c 128,-1,46
 1163 923 1163 923 1131.5 1018.5 c 128,-1,47
 1100 1114 1100 1114 1038 1180 c 0,48,49
 913 1313 913 1313 674 1313 c 2,26,-1
EndSplineSet
EndChar

StartChar: Ntilde
Encoding: 209 209 166
Width: 1701
GlyphClass: 2
Flags: W
LayerCount: 2
Fore
SplineSet
241 1409 m 2,0,1
 241 1533 241 1533 349 1533 c 2,2,-1
 390 1533 l 2,3,4
 431 1533 431 1533 447 1523 c 0,5,6
 477 1505 477 1505 503 1466 c 2,7,-1
 1147 518 l 2,8,9
 1184 464 1184 464 1205 419 c 2,10,-1
 1246 333 l 2,11,12
 1247 331 1247 331 1249.5 331 c 128,-1,13
 1252 331 1252 331 1250 357 c 128,-1,14
 1248 383 1248 383 1240 432.5 c 128,-1,15
 1232 482 1232 482 1232 531 c 2,16,-1
 1232 1472 l 2,17,18
 1232 1498 1232 1498 1247.5 1515.5 c 128,-1,19
 1263 1533 1263 1533 1285 1533 c 2,20,-1
 1417 1533 l 2,21,22
 1438 1533 1438 1533 1453.5 1515.5 c 128,-1,23
 1469 1498 1469 1498 1469 1472 c 2,24,-1
 1469 100 l 2,25,26
 1469 60 1469 60 1444 38 c 0,27,28
 1402 0 1402 0 1368 0 c 2,29,-1
 1307 0 l 2,30,31
 1257 0 1257 0 1234 16 c 1,32,33
 1200 42 1200 42 1150 114 c 0,34,35
 579 949 579 949 538 1016 c 2,36,-1
 455 1155 l 2,37,38
 453 1158 453 1158 449.5 1158 c 128,-1,39
 446 1158 446 1158 449 1143 c 128,-1,40
 452 1128 452 1128 457.5 1092.5 c 128,-1,41
 463 1057 463 1057 468 1014 c 0,42,43
 478 914 478 914 478 828 c 2,44,-1
 478 61 l 2,45,46
 478 36 478 36 462.5 18 c 128,-1,47
 447 0 447 0 425 0 c 2,48,-1
 293 0 l 2,49,50
 272 0 272 0 256.5 18 c 128,-1,51
 241 36 241 36 241 61 c 2,52,-1
 241 1409 l 2,0,1
543 1691 m 1,53,54
 500 1702 500 1702 510.5 1744.5 c 128,-1,55
 521 1787 521 1787 541 1825.5 c 128,-1,56
 561 1864 561 1864 591 1896 c 1,57,58
 657 1970 657 1970 740 1970 c 0,59,60
 809 1970 809 1970 893 1910 c 2,61,-1
 953 1868 l 2,62,63
 980 1849 980 1849 1000 1849 c 128,-1,64
 1020 1849 1020 1849 1032 1856.5 c 128,-1,65
 1044 1864 1044 1864 1053 1875 c 0,66,67
 1073 1897 1073 1897 1080 1922.5 c 128,-1,68
 1087 1948 1087 1948 1098 1969.5 c 128,-1,69
 1109 1991 1109 1991 1126 1991 c 128,-1,70
 1143 1991 1143 1991 1154 1988 c 2,71,-1
 1229 1969 l 1,72,73
 1263 1958 1263 1958 1267.5 1944 c 128,-1,74
 1272 1930 1272 1930 1266.5 1890 c 128,-1,75
 1261 1850 1261 1850 1239.5 1805.5 c 128,-1,76
 1218 1761 1218 1761 1187 1728 c 0,77,78
 1118 1655 1118 1655 1033 1655 c 0,79,80
 956 1655 956 1655 871 1712 c 1,81,-1
 813 1753 l 1,82,83
 744 1800 744 1800 697 1730 c 0,84,85
 688 1717 688 1717 682.5 1699.5 c 128,-1,86
 677 1682 677 1682 658.5 1670.5 c 128,-1,87
 640 1659 640 1659 611 1666 c 1,88,-1
 543 1691 l 1,53,54
EndSplineSet
EndChar

StartChar: Ograve
Encoding: 210 210 167
Width: 1709
GlyphClass: 2
Flags: W
LayerCount: 2
Fore
SplineSet
137.5 569.5 m 128,-1,1
 115 671 115 671 115 809.5 c 128,-1,2
 115 948 115 948 168.5 1091 c 128,-1,3
 222 1234 222 1234 320 1338 c 0,4,5
 527 1558 527 1558 856 1558 c 0,6,7
 1206 1558 1206 1558 1405 1333 c 0,8,9
 1594 1120 1594 1120 1594 777 c 0,10,11
 1594 437 1594 437 1386 208 c 0,12,13
 1288 100 1288 100 1151 37.5 c 128,-1,14
 1014 -25 1014 -25 873.5 -25 c 128,-1,15
 733 -25 733 -25 634 4.5 c 128,-1,16
 535 34 535 34 453.5 87.5 c 128,-1,17
 372 141 372 141 309 215 c 128,-1,18
 246 289 246 289 203 378.5 c 128,-1,0
 160 468 160 468 137.5 569.5 c 128,-1,1
386 784 m 0,19,20
 386 669 386 669 413.5 566 c 128,-1,21
 441 463 441 463 498 382 c 0,22,23
 624 205 624 205 853 205 c 0,24,25
 1083 205 1083 205 1208 374 c 0,26,27
 1323 530 1323 530 1323 778 c 0,28,29
 1323 1012 1323 1012 1206 1164 c 1,30,31
 1077 1329 1077 1329 854 1329 c 0,32,33
 639 1329 639 1329 512 1175 c 1,34,35
 386 1024 386 1024 386 784 c 0,19,20
546 1769 m 2,36,37
 503 1784 503 1784 503 1821 c 0,38,39
 503 1835 503 1835 511 1851 c 2,40,-1
 565 1966 l 1,41,42
 576 1992 576 1992 606.5 1992 c 128,-1,43
 637 1992 637 1992 661 1976 c 1,44,-1
 1028 1765 l 2,45,46
 1058 1748 1058 1748 1043 1718 c 1,47,-1
 1012 1651 l 1,48,49
 995 1617 995 1617 955 1631 c 2,50,-1
 546 1769 l 2,36,37
EndSplineSet
EndChar

StartChar: Oacute
Encoding: 211 211 168
Width: 1709
GlyphClass: 2
Flags: W
LayerCount: 2
Fore
SplineSet
137.5 569.5 m 128,-1,1
 115 671 115 671 115 809.5 c 128,-1,2
 115 948 115 948 168.5 1091 c 128,-1,3
 222 1234 222 1234 320 1338 c 0,4,5
 527 1558 527 1558 856 1558 c 0,6,7
 1206 1558 1206 1558 1405 1333 c 0,8,9
 1594 1120 1594 1120 1594 777 c 0,10,11
 1594 437 1594 437 1386 208 c 0,12,13
 1288 100 1288 100 1151 37.5 c 128,-1,14
 1014 -25 1014 -25 873.5 -25 c 128,-1,15
 733 -25 733 -25 634 4.5 c 128,-1,16
 535 34 535 34 453.5 87.5 c 128,-1,17
 372 141 372 141 309 215 c 128,-1,18
 246 289 246 289 203 378.5 c 128,-1,0
 160 468 160 468 137.5 569.5 c 128,-1,1
386 784 m 0,19,20
 386 669 386 669 413.5 566 c 128,-1,21
 441 463 441 463 498 382 c 0,22,23
 624 205 624 205 853 205 c 0,24,25
 1083 205 1083 205 1208 374 c 0,26,27
 1323 530 1323 530 1323 778 c 0,28,29
 1323 1012 1323 1012 1206 1164 c 1,30,31
 1077 1329 1077 1329 854 1329 c 0,32,33
 639 1329 639 1329 512 1175 c 1,34,35
 386 1024 386 1024 386 784 c 0,19,20
771 1631 m 2,36,37
 731 1617 731 1617 714 1651 c 1,38,-1
 683 1718 l 1,39,40
 668 1748 668 1748 698 1765 c 2,41,-1
 1065 1976 l 1,42,43
 1089 1992 1089 1992 1110 1992 c 0,44,45
 1150 1992 1150 1992 1161 1966 c 1,46,-1
 1215 1851 l 2,47,48
 1223 1835 1223 1835 1223 1821 c 0,49,50
 1223 1784 1223 1784 1180 1769 c 2,51,-1
 771 1631 l 2,36,37
EndSplineSet
EndChar

StartChar: Ocircumflex
Encoding: 212 212 169
Width: 1709
GlyphClass: 2
Flags: W
LayerCount: 2
Fore
SplineSet
137.5 569.5 m 128,-1,1
 115 671 115 671 115 809.5 c 128,-1,2
 115 948 115 948 168.5 1091 c 128,-1,3
 222 1234 222 1234 320 1338 c 0,4,5
 527 1558 527 1558 856 1558 c 0,6,7
 1206 1558 1206 1558 1405 1333 c 0,8,9
 1594 1120 1594 1120 1594 777 c 0,10,11
 1594 437 1594 437 1386 208 c 0,12,13
 1288 100 1288 100 1151 37.5 c 128,-1,14
 1014 -25 1014 -25 873.5 -25 c 128,-1,15
 733 -25 733 -25 634 4.5 c 128,-1,16
 535 34 535 34 453.5 87.5 c 128,-1,17
 372 141 372 141 309 215 c 128,-1,18
 246 289 246 289 203 378.5 c 128,-1,0
 160 468 160 468 137.5 569.5 c 128,-1,1
386 784 m 0,19,20
 386 669 386 669 413.5 566 c 128,-1,21
 441 463 441 463 498 382 c 0,22,23
 624 205 624 205 853 205 c 0,24,25
 1083 205 1083 205 1208 374 c 0,26,27
 1323 530 1323 530 1323 778 c 0,28,29
 1323 1012 1323 1012 1206 1164 c 1,30,31
 1077 1329 1077 1329 854 1329 c 0,32,33
 639 1329 639 1329 512 1175 c 1,34,35
 386 1024 386 1024 386 784 c 0,19,20
608 1663 m 2,36,37
 597 1655 597 1655 582 1655 c 128,-1,38
 567 1655 567 1655 555 1668 c 2,39,-1
 502 1725 l 2,40,41
 493 1735 493 1735 493 1751.5 c 128,-1,42
 493 1768 493 1768 506 1779 c 2,43,-1
 706 1959 l 2,44,45
 731 1982 731 1982 759 1982 c 2,46,-1
 942 1982 l 2,47,48
 972 1982 972 1982 997 1959 c 2,49,-1
 1195 1781 l 1,50,51
 1212 1768 1212 1768 1212 1749.5 c 128,-1,52
 1212 1731 1212 1731 1198 1716 c 2,53,-1
 1158 1672 l 2,54,55
 1143 1656 1143 1656 1127.5 1656 c 128,-1,56
 1112 1656 1112 1656 1102 1663 c 2,57,-1
 849 1829 l 1,58,-1
 608 1663 l 2,36,37
EndSplineSet
EndChar

StartChar: Otilde
Encoding: 213 213 170
Width: 1709
GlyphClass: 2
Flags: W
LayerCount: 2
Fore
SplineSet
137.5 569.5 m 128,-1,1
 115 671 115 671 115 809.5 c 128,-1,2
 115 948 115 948 168.5 1091 c 128,-1,3
 222 1234 222 1234 320 1338 c 0,4,5
 527 1558 527 1558 856 1558 c 0,6,7
 1206 1558 1206 1558 1405 1333 c 0,8,9
 1594 1120 1594 1120 1594 777 c 0,10,11
 1594 437 1594 437 1386 208 c 0,12,13
 1288 100 1288 100 1151 37.5 c 128,-1,14
 1014 -25 1014 -25 873.5 -25 c 128,-1,15
 733 -25 733 -25 634 4.5 c 128,-1,16
 535 34 535 34 453.5 87.5 c 128,-1,17
 372 141 372 141 309 215 c 128,-1,18
 246 289 246 289 203 378.5 c 128,-1,0
 160 468 160 468 137.5 569.5 c 128,-1,1
386 784 m 0,19,20
 386 669 386 669 413.5 566 c 128,-1,21
 441 463 441 463 498 382 c 0,22,23
 624 205 624 205 853 205 c 0,24,25
 1083 205 1083 205 1208 374 c 0,26,27
 1323 530 1323 530 1323 778 c 0,28,29
 1323 1012 1323 1012 1206 1164 c 1,30,31
 1077 1329 1077 1329 854 1329 c 0,32,33
 639 1329 639 1329 512 1175 c 1,34,35
 386 1024 386 1024 386 784 c 0,19,20
505 1691 m 1,36,37
 462 1702 462 1702 472.5 1744.5 c 128,-1,38
 483 1787 483 1787 503 1825.5 c 128,-1,39
 523 1864 523 1864 553 1896 c 1,40,41
 619 1970 619 1970 702 1970 c 0,42,43
 771 1970 771 1970 855 1910 c 2,44,-1
 915 1868 l 2,45,46
 942 1849 942 1849 962 1849 c 128,-1,47
 982 1849 982 1849 994 1856.5 c 128,-1,48
 1006 1864 1006 1864 1015 1875 c 0,49,50
 1035 1897 1035 1897 1042 1922.5 c 128,-1,51
 1049 1948 1049 1948 1060 1969.5 c 128,-1,52
 1071 1991 1071 1991 1088 1991 c 128,-1,53
 1105 1991 1105 1991 1116 1988 c 2,54,-1
 1191 1969 l 1,55,56
 1225 1958 1225 1958 1229.5 1944 c 128,-1,57
 1234 1930 1234 1930 1228.5 1890 c 128,-1,58
 1223 1850 1223 1850 1201.5 1805.5 c 128,-1,59
 1180 1761 1180 1761 1149 1728 c 0,60,61
 1080 1655 1080 1655 995 1655 c 0,62,63
 918 1655 918 1655 833 1712 c 1,64,-1
 775 1753 l 1,65,66
 706 1800 706 1800 659 1730 c 0,67,68
 650 1717 650 1717 644.5 1699.5 c 128,-1,69
 639 1682 639 1682 620.5 1670.5 c 128,-1,70
 602 1659 602 1659 573 1666 c 1,71,-1
 505 1691 l 1,36,37
EndSplineSet
EndChar

StartChar: Odieresis
Encoding: 214 214 171
Width: 1709
GlyphClass: 2
Flags: W
LayerCount: 2
Fore
SplineSet
137.5 569.5 m 128,-1,1
 115 671 115 671 115 809.5 c 128,-1,2
 115 948 115 948 168.5 1091 c 128,-1,3
 222 1234 222 1234 320 1338 c 0,4,5
 527 1558 527 1558 856 1558 c 0,6,7
 1206 1558 1206 1558 1405 1333 c 0,8,9
 1594 1120 1594 1120 1594 777 c 0,10,11
 1594 437 1594 437 1386 208 c 0,12,13
 1288 100 1288 100 1151 37.5 c 128,-1,14
 1014 -25 1014 -25 873.5 -25 c 128,-1,15
 733 -25 733 -25 634 4.5 c 128,-1,16
 535 34 535 34 453.5 87.5 c 128,-1,17
 372 141 372 141 309 215 c 128,-1,18
 246 289 246 289 203 378.5 c 128,-1,0
 160 468 160 468 137.5 569.5 c 128,-1,1
386 784 m 0,19,20
 386 669 386 669 413.5 566 c 128,-1,21
 441 463 441 463 498 382 c 0,22,23
 624 205 624 205 853 205 c 0,24,25
 1083 205 1083 205 1208 374 c 0,26,27
 1323 530 1323 530 1323 778 c 0,28,29
 1323 1012 1323 1012 1206 1164 c 1,30,31
 1077 1329 1077 1329 854 1329 c 0,32,33
 639 1329 639 1329 512 1175 c 1,34,35
 386 1024 386 1024 386 784 c 0,19,20
1104 1668 m 0,36,37
 1043 1668 1043 1668 998 1712 c 1,38,39
 955 1756 955 1756 955 1821 c 0,40,41
 955 1920 955 1920 1046 1960 c 0,42,43
 1073 1972 1073 1972 1104 1972 c 0,44,45
 1165 1972 1165 1972 1209 1928 c 128,-1,46
 1253 1884 1253 1884 1253 1836.5 c 128,-1,47
 1253 1789 1253 1789 1241 1761 c 128,-1,48
 1229 1733 1229 1733 1209 1712 c 0,49,50
 1166 1668 1166 1668 1104 1668 c 0,36,37
656.5 1680 m 128,-1,52
 630 1668 630 1668 599 1668 c 128,-1,53
 568 1668 568 1668 540.5 1680 c 128,-1,54
 513 1692 513 1692 493 1712 c 0,55,56
 449 1758 449 1758 449 1805 c 128,-1,57
 449 1852 449 1852 461 1880 c 128,-1,58
 473 1908 473 1908 493 1928 c 0,59,60
 537 1972 537 1972 600 1972 c 0,61,62
 658 1972 658 1972 704 1928 c 0,63,64
 747 1886 747 1886 747 1837.5 c 128,-1,65
 747 1789 747 1789 735.5 1761 c 128,-1,66
 724 1733 724 1733 703.5 1712.5 c 128,-1,51
 683 1692 683 1692 656.5 1680 c 128,-1,52
EndSplineSet
EndChar

StartChar: multiply
Encoding: 215 215 172
Width: 1193
GlyphClass: 2
Flags: W
LayerCount: 2
Fore
SplineSet
189 251 m 2,0,1
 173 267 173 267 173 289.5 c 128,-1,2
 173 312 173 312 190 329 c 2,3,-1
 466 605 l 1,4,-1
 188 884 l 1,5,6
 170 900 170 900 170 922.5 c 128,-1,7
 170 945 170 945 183 958 c 2,8,-1
 251 1025 l 2,9,10
 263 1037 263 1037 278 1037 c 0,11,12
 306 1037 306 1037 323 1020 c 2,13,-1
 602 741 l 1,14,-1
 874 1014 l 2,15,16
 891 1031 891 1031 913 1031 c 128,-1,17
 935 1031 935 1031 948 1018 c 2,18,-1
 1021 944 l 2,19,20
 1034 932 1034 932 1034 916 c 0,21,22
 1034 888 1034 888 1016 872 c 1,23,-1
 743 599 l 1,24,-1
 1022 321 l 2,25,26
 1040 303 1040 303 1040 281.5 c 128,-1,27
 1040 260 1040 260 1024 244 c 2,28,-1
 965 185 l 2,29,30
 948 169 948 169 925.5 169 c 128,-1,31
 903 169 903 169 886 186 c 2,32,-1
 608 464 l 1,33,-1
 332 187 l 2,34,35
 314 169 314 169 292.5 169 c 128,-1,36
 271 169 271 169 255 185 c 2,37,-1
 189 251 l 2,0,1
EndSplineSet
EndChar

StartChar: Oslash
Encoding: 216 216 173
Width: 1709
GlyphClass: 2
Flags: W
LayerCount: 2
Fore
SplineSet
837 -25 m 0,0,1
 660 -25 660 -25 506 56 c 1,2,-1
 443 -46 l 1,3,4
 426 -76 426 -76 406.5 -76 c 128,-1,5
 387 -76 387 -76 377 -69 c 2,6,-1
 293 -15 l 2,7,8
 273 -1 273 -1 273 17 c 128,-1,9
 273 35 273 35 281 49 c 2,10,-1
 354 166 l 1,11,12
 179 335 179 335 130 603 c 0,13,14
 115 689 115 689 115 779 c 0,15,16
 115 1119 115 1119 320 1338 c 1,17,18
 526 1560 526 1560 856 1560 c 0,19,20
 1040 1560 1040 1560 1184 1495 c 1,21,-1
 1254 1606 l 2,22,23
 1272 1635 1272 1635 1292.5 1635 c 128,-1,24
 1313 1635 1313 1635 1324 1628 c 2,25,-1
 1395 1589 l 1,26,27
 1427 1570 1427 1570 1427 1551 c 128,-1,28
 1427 1532 1427 1532 1419 1518 c 2,29,-1
 1342 1395 l 1,30,31
 1594 1180 1594 1180 1594 777 c 0,32,33
 1594 437 1594 437 1386 208 c 0,34,35
 1175 -25 1175 -25 837 -25 c 0,0,1
1064 1302 m 1,36,37
 970 1348 970 1348 856 1348 c 128,-1,38
 742 1348 742 1348 652.5 1306 c 128,-1,39
 563 1264 563 1264 501 1188 c 0,40,41
 372 1031 372 1031 372 778 c 0,42,43
 372 535 372 535 485 375 c 1,44,-1
 1064 1302 l 1,36,37
625 245 m 1,45,46
 725 189 725 189 850.5 189 c 128,-1,47
 976 189 976 189 1067 236 c 128,-1,48
 1158 283 1158 283 1218 363 c 0,49,50
 1337 522 1337 522 1337 778 c 0,51,52
 1337 1025 1337 1025 1210 1184 c 1,53,-1
 625 245 l 1,45,46
EndSplineSet
EndChar

StartChar: Ugrave
Encoding: 217 217 174
Width: 1698
GlyphClass: 2
Flags: W
LayerCount: 2
Fore
SplineSet
847 198 m 0,0,1
 1210 198 1210 198 1210 611 c 2,2,-1
 1210 1469 l 2,3,4
 1210 1495 1210 1495 1226.5 1514 c 128,-1,5
 1243 1533 1243 1533 1266 1533 c 2,6,-1
 1403 1533 l 2,7,8
 1426 1533 1426 1533 1442 1514 c 128,-1,9
 1458 1495 1458 1495 1458 1469 c 2,10,-1
 1458 613 l 2,11,12
 1458 305 1458 305 1278 132 c 0,13,14
 1113 -26 1113 -26 848 -26 c 0,15,16
 582 -26 582 -26 415 138 c 0,17,18
 240 309 240 309 240 613 c 2,19,-1
 240 1469 l 2,20,21
 240 1495 240 1495 256.5 1514 c 128,-1,22
 273 1533 273 1533 296 1533 c 2,23,-1
 433 1533 l 2,24,25
 456 1533 456 1533 472 1514 c 128,-1,26
 488 1495 488 1495 488 1469 c 2,27,-1
 488 611 l 2,28,29
 488 404 488 404 589 298 c 1,30,31
 682 198 682 198 847 198 c 0,0,1
519 1769 m 2,32,33
 476 1784 476 1784 476 1821 c 0,34,35
 476 1835 476 1835 484 1851 c 2,36,-1
 538 1966 l 1,37,38
 549 1992 549 1992 579.5 1992 c 128,-1,39
 610 1992 610 1992 634 1976 c 1,40,-1
 1001 1765 l 2,41,42
 1031 1748 1031 1748 1016 1718 c 1,43,-1
 985 1651 l 1,44,45
 968 1617 968 1617 928 1631 c 2,46,-1
 519 1769 l 2,32,33
EndSplineSet
EndChar

StartChar: Uacute
Encoding: 218 218 175
Width: 1698
GlyphClass: 2
Flags: W
LayerCount: 2
Fore
SplineSet
847 198 m 0,0,1
 1210 198 1210 198 1210 611 c 2,2,-1
 1210 1469 l 2,3,4
 1210 1495 1210 1495 1226.5 1514 c 128,-1,5
 1243 1533 1243 1533 1266 1533 c 2,6,-1
 1403 1533 l 2,7,8
 1426 1533 1426 1533 1442 1514 c 128,-1,9
 1458 1495 1458 1495 1458 1469 c 2,10,-1
 1458 613 l 2,11,12
 1458 305 1458 305 1278 132 c 0,13,14
 1113 -26 1113 -26 848 -26 c 0,15,16
 582 -26 582 -26 415 138 c 0,17,18
 240 309 240 309 240 613 c 2,19,-1
 240 1469 l 2,20,21
 240 1495 240 1495 256.5 1514 c 128,-1,22
 273 1533 273 1533 296 1533 c 2,23,-1
 433 1533 l 2,24,25
 456 1533 456 1533 472 1514 c 128,-1,26
 488 1495 488 1495 488 1469 c 2,27,-1
 488 611 l 2,28,29
 488 404 488 404 589 298 c 1,30,31
 682 198 682 198 847 198 c 0,0,1
771 1631 m 2,32,33
 731 1617 731 1617 714 1651 c 1,34,-1
 683 1718 l 1,35,36
 668 1748 668 1748 698 1765 c 2,37,-1
 1065 1976 l 1,38,39
 1089 1992 1089 1992 1110 1992 c 0,40,41
 1150 1992 1150 1992 1161 1966 c 1,42,-1
 1215 1851 l 2,43,44
 1223 1835 1223 1835 1223 1821 c 0,45,46
 1223 1784 1223 1784 1180 1769 c 2,47,-1
 771 1631 l 2,32,33
EndSplineSet
EndChar

StartChar: Ucircumflex
Encoding: 219 219 176
Width: 1698
GlyphClass: 2
Flags: W
LayerCount: 2
Fore
SplineSet
847 198 m 0,0,1
 1210 198 1210 198 1210 611 c 2,2,-1
 1210 1469 l 2,3,4
 1210 1495 1210 1495 1226.5 1514 c 128,-1,5
 1243 1533 1243 1533 1266 1533 c 2,6,-1
 1403 1533 l 2,7,8
 1426 1533 1426 1533 1442 1514 c 128,-1,9
 1458 1495 1458 1495 1458 1469 c 2,10,-1
 1458 613 l 2,11,12
 1458 305 1458 305 1278 132 c 0,13,14
 1113 -26 1113 -26 848 -26 c 0,15,16
 582 -26 582 -26 415 138 c 0,17,18
 240 309 240 309 240 613 c 2,19,-1
 240 1469 l 2,20,21
 240 1495 240 1495 256.5 1514 c 128,-1,22
 273 1533 273 1533 296 1533 c 2,23,-1
 433 1533 l 2,24,25
 456 1533 456 1533 472 1514 c 128,-1,26
 488 1495 488 1495 488 1469 c 2,27,-1
 488 611 l 2,28,29
 488 404 488 404 589 298 c 1,30,31
 682 198 682 198 847 198 c 0,0,1
609 1663 m 2,32,33
 598 1655 598 1655 583 1655 c 128,-1,34
 568 1655 568 1655 556 1668 c 2,35,-1
 503 1725 l 2,36,37
 494 1735 494 1735 494 1751.5 c 128,-1,38
 494 1768 494 1768 507 1779 c 2,39,-1
 707 1959 l 2,40,41
 732 1982 732 1982 760 1982 c 2,42,-1
 943 1982 l 2,43,44
 973 1982 973 1982 998 1959 c 2,45,-1
 1196 1781 l 1,46,47
 1213 1768 1213 1768 1213 1749.5 c 128,-1,48
 1213 1731 1213 1731 1199 1716 c 2,49,-1
 1159 1672 l 2,50,51
 1144 1656 1144 1656 1128.5 1656 c 128,-1,52
 1113 1656 1113 1656 1103 1663 c 2,53,-1
 850 1829 l 1,54,-1
 609 1663 l 2,32,33
EndSplineSet
EndChar

StartChar: Udieresis
Encoding: 220 220 177
Width: 1698
GlyphClass: 2
Flags: W
LayerCount: 2
Fore
SplineSet
847 198 m 0,0,1
 1210 198 1210 198 1210 611 c 2,2,-1
 1210 1469 l 2,3,4
 1210 1495 1210 1495 1226.5 1514 c 128,-1,5
 1243 1533 1243 1533 1266 1533 c 2,6,-1
 1403 1533 l 2,7,8
 1426 1533 1426 1533 1442 1514 c 128,-1,9
 1458 1495 1458 1495 1458 1469 c 2,10,-1
 1458 613 l 2,11,12
 1458 305 1458 305 1278 132 c 0,13,14
 1113 -26 1113 -26 848 -26 c 0,15,16
 582 -26 582 -26 415 138 c 0,17,18
 240 309 240 309 240 613 c 2,19,-1
 240 1469 l 2,20,21
 240 1495 240 1495 256.5 1514 c 128,-1,22
 273 1533 273 1533 296 1533 c 2,23,-1
 433 1533 l 2,24,25
 456 1533 456 1533 472 1514 c 128,-1,26
 488 1495 488 1495 488 1469 c 2,27,-1
 488 611 l 2,28,29
 488 404 488 404 589 298 c 1,30,31
 682 198 682 198 847 198 c 0,0,1
1104 1668 m 0,32,33
 1043 1668 1043 1668 998 1712 c 1,34,35
 955 1756 955 1756 955 1821 c 0,36,37
 955 1920 955 1920 1046 1960 c 0,38,39
 1073 1972 1073 1972 1104 1972 c 0,40,41
 1165 1972 1165 1972 1209 1928 c 128,-1,42
 1253 1884 1253 1884 1253 1836.5 c 128,-1,43
 1253 1789 1253 1789 1241 1761 c 128,-1,44
 1229 1733 1229 1733 1209 1712 c 0,45,46
 1166 1668 1166 1668 1104 1668 c 0,32,33
656.5 1680 m 128,-1,48
 630 1668 630 1668 599 1668 c 128,-1,49
 568 1668 568 1668 540.5 1680 c 128,-1,50
 513 1692 513 1692 493 1712 c 0,51,52
 449 1758 449 1758 449 1805 c 128,-1,53
 449 1852 449 1852 461 1880 c 128,-1,54
 473 1908 473 1908 493 1928 c 0,55,56
 537 1972 537 1972 600 1972 c 0,57,58
 658 1972 658 1972 704 1928 c 0,59,60
 747 1886 747 1886 747 1837.5 c 128,-1,61
 747 1789 747 1789 735.5 1761 c 128,-1,62
 724 1733 724 1733 703.5 1712.5 c 128,-1,47
 683 1692 683 1692 656.5 1680 c 128,-1,48
EndSplineSet
EndChar

StartChar: Yacute
Encoding: 221 221 178
Width: 1355
GlyphClass: 2
Flags: W
LayerCount: 2
Fore
SplineSet
569 515 m 1,0,-1
 25 1452 l 2,1,2
 16 1467 16 1467 16 1485 c 128,-1,3
 16 1503 16 1503 29 1518 c 128,-1,4
 42 1533 42 1533 62 1533 c 2,5,-1
 223 1533 l 2,6,7
 264 1533 264 1533 280 1506 c 0,8,9
 284 1498 284 1498 289 1490 c 2,10,-1
 688 759 l 2,11,12
 692 750 692 750 695.5 750 c 128,-1,13
 699 750 699 750 755 840.5 c 128,-1,14
 811 931 811 931 902 1108 c 128,-1,15
 993 1285 993 1285 1069 1473 c 0,16,17
 1081 1503 1081 1503 1097 1518 c 128,-1,18
 1113 1533 1113 1533 1145 1533 c 2,19,-1
 1300 1533 l 2,20,21
 1324 1533 1324 1533 1336 1516.5 c 128,-1,22
 1348 1500 1348 1500 1348 1479.5 c 128,-1,23
 1348 1459 1348 1459 1340 1441 c 0,24,25
 1081 906 1081 906 818 530 c 1,26,-1
 818 64 l 2,27,28
 818 37 818 37 801.5 18.5 c 128,-1,29
 785 0 785 0 762 0 c 2,30,-1
 624 0 l 2,31,32
 601 0 601 0 585 19 c 128,-1,33
 569 38 569 38 569 64 c 2,34,-1
 569 515 l 1,0,-1
616 1631 m 2,35,36
 576 1617 576 1617 559 1651 c 1,37,-1
 528 1718 l 1,38,39
 513 1748 513 1748 543 1765 c 2,40,-1
 910 1976 l 1,41,42
 934 1992 934 1992 955 1992 c 0,43,44
 995 1992 995 1992 1006 1966 c 1,45,-1
 1060 1851 l 2,46,47
 1068 1835 1068 1835 1068 1821 c 0,48,49
 1068 1784 1068 1784 1025 1769 c 2,50,-1
 616 1631 l 2,35,36
EndSplineSet
EndChar

StartChar: Thorn
Encoding: 222 222 179
Width: 1360
GlyphClass: 2
Flags: W
LayerCount: 2
Fore
SplineSet
933 285.5 m 128,-1,1
 822 251 822 251 716 251 c 128,-1,2
 610 251 610 251 490 266 c 1,3,-1
 490 64 l 2,4,5
 490 41 490 41 475.5 20.5 c 128,-1,6
 461 0 461 0 434 0 c 2,7,-1
 294 0 l 2,8,9
 268 0 268 0 253.5 19 c 128,-1,10
 239 38 239 38 239 62 c 2,11,-1
 239 1469 l 2,12,13
 239 1495 239 1495 255.5 1514 c 128,-1,14
 272 1533 272 1533 295 1533 c 2,15,-1
 435 1533 l 2,16,17
 458 1533 458 1533 474 1514 c 128,-1,18
 490 1495 490 1495 490 1469 c 2,19,-1
 490 1297 l 1,20,-1
 714 1297 l 2,21,22
 1138 1297 1138 1297 1258 1012 c 0,23,24
 1299 915 1299 915 1299 783 c 128,-1,25
 1299 651 1299 651 1252.5 552 c 128,-1,26
 1206 453 1206 453 1125 386.5 c 128,-1,0
 1044 320 1044 320 933 285.5 c 128,-1,1
490 476 m 1,27,28
 568 463 568 463 648 463 c 128,-1,29
 728 463 728 463 798.5 475.5 c 128,-1,30
 869 488 869 488 922 523 c 0,31,32
 1037 599 1037 599 1037 786 c 0,33,34
 1037 998 1037 998 860 1059 c 0,35,36
 799 1080 799 1080 720 1080 c 2,37,-1
 490 1080 l 1,38,-1
 490 476 l 1,27,28
EndSplineSet
EndChar

StartChar: germandbls
Encoding: 223 223 180
Width: 1533
GlyphClass: 2
Flags: W
LayerCount: 2
Fore
SplineSet
235 1116 m 2,0,1
 235 1326 235 1326 268 1430 c 128,-1,2
 301 1534 301 1534 340 1593 c 128,-1,3
 379 1652 379 1652 438 1694 c 0,4,5
 559 1780 559 1780 764 1780 c 0,6,7
 972 1780 972 1780 1084 1678 c 0,8,9
 1187 1583 1187 1583 1187 1437 c 0,10,11
 1187 1320 1187 1320 1139 1236 c 0,12,13
 1116 1195 1116 1195 1083 1155 c 2,14,-1
 1010 1064 l 1,15,16
 951 988 951 988 951 943 c 128,-1,17
 951 898 951 898 966.5 873.5 c 128,-1,18
 982 849 982 849 1008 830 c 0,19,20
 1048 800 1048 800 1120.5 771 c 128,-1,21
 1193 742 1193 742 1251.5 708.5 c 128,-1,22
 1310 675 1310 675 1354 626 c 0,23,24
 1450 519 1450 519 1450 352 c 0,25,26
 1450 183 1450 183 1322 74 c 0,27,28
 1205 -25 1205 -25 1046 -25 c 0,29,30
 884 -25 884 -25 758 26 c 0,31,32
 628 78 628 78 628 146 c 0,33,34
 628 165 628 165 638 186 c 2,35,-1
 667 247 l 2,36,37
 689 294 689 294 728 294 c 0,38,39
 747 294 747 294 769 283 c 2,40,-1
 820 257 l 2,41,42
 937 198 937 198 1023 198 c 128,-1,43
 1109 198 1109 198 1158 234.5 c 128,-1,44
 1207 271 1207 271 1207 343 c 0,45,46
 1207 450 1207 450 1098 513 c 0,47,48
 1064 533 1064 533 1010.5 554 c 128,-1,49
 957 575 957 575 903 609 c 128,-1,50
 849 643 849 643 810 686 c 0,51,52
 727 779 727 779 727 906 c 0,53,54
 727 1027 727 1027 831 1164 c 0,55,56
 895 1247 895 1247 915 1300.5 c 128,-1,57
 935 1354 935 1354 935 1394 c 128,-1,58
 935 1434 935 1434 926.5 1462.5 c 128,-1,59
 918 1491 918 1491 898 1512 c 0,60,61
 854 1560 854 1560 766.5 1560 c 128,-1,62
 679 1560 679 1560 624.5 1529 c 128,-1,63
 570 1498 570 1498 538 1442 c 0,64,65
 479 1341 479 1341 479 1132 c 2,66,-1
 479 65 l 2,67,68
 479 38 479 38 463 19 c 128,-1,69
 447 0 447 0 425 0 c 2,70,-1
 288 0 l 2,71,72
 265 0 265 0 250 19 c 128,-1,73
 235 38 235 38 235 65 c 2,74,-1
 235 1116 l 2,0,1
EndSplineSet
EndChar

StartChar: agrave
Encoding: 224 224 181
Width: 1195
GlyphClass: 2
Flags: W
LayerCount: 2
Fore
SplineSet
1091 53 m 1,0,1
 1091 0 1091 0 1039 0 c 2,2,-1
 942 0 l 2,3,4
 903 0 903 0 895 15.5 c 128,-1,5
 887 31 887 31 886 43.5 c 128,-1,6
 885 56 885 56 882 74 c 0,7,8
 876 123 876 123 865 180 c 1,9,10
 787 37 787 37 620 -9 c 0,11,12
 561 -25 561 -25 490 -25 c 128,-1,13
 419 -25 419 -25 348 -1.5 c 128,-1,14
 277 22 277 22 222 68 c 0,15,16
 98 172 98 172 98 341 c 0,17,18
 98 526 98 526 234 624 c 1,19,20
 346 703 346 703 522 703 c 128,-1,21
 698 703 698 703 820 600 c 1,22,23
 823 634 823 634 823 685 c 128,-1,24
 823 736 823 736 803 787 c 128,-1,25
 783 838 783 838 746 872 c 1,26,27
 670 939 670 939 534 939 c 0,28,29
 412 939 412 939 286 872 c 0,30,31
 262 859 262 859 244 859 c 0,32,33
 217 859 217 859 192 912 c 1,34,35
 165 966 165 966 165 990 c 0,36,37
 165 1034 165 1034 231 1075 c 0,38,39
 357 1153 357 1153 568 1153 c 0,40,41
 760 1153 760 1153 886 1048 c 1,42,43
 1035 922 1035 922 1035 692 c 0,44,45
 1035 590 1035 590 1002 435 c 1,46,47
 1087 193 1087 193 1091 53 c 1,0,1
362.5 417 m 128,-1,49
 345 387 345 387 345 346.5 c 128,-1,50
 345 306 345 306 359.5 274.5 c 128,-1,51
 374 243 374 243 400 222 c 0,52,53
 455 179 455 179 523.5 179 c 128,-1,54
 592 179 592 179 636 195 c 128,-1,55
 680 211 680 211 712 236 c 0,56,57
 781 290 781 290 781 350 c 1,58,59
 775 425 775 425 698 468 c 1,60,61
 629 508 629 508 535 508 c 0,62,63
 462 508 462 508 421 477.5 c 128,-1,48
 380 447 380 447 362.5 417 c 128,-1,49
338 1510 m 2,64,65
 301 1533 301 1533 299.5 1561.5 c 128,-1,66
 298 1590 298 1590 310 1605 c 2,67,-1
 385 1700 l 2,68,69
 402 1722 402 1722 422 1722 c 0,70,71
 459 1722 459 1722 484 1699 c 2,72,-1
 793 1418 l 2,73,74
 813 1400 813 1400 813 1386.5 c 128,-1,75
 813 1373 813 1373 806 1363 c 2,76,-1
 757 1295 l 2,77,78
 748 1281 748 1281 731 1281 c 128,-1,79
 714 1281 714 1281 701 1289 c 2,80,-1
 338 1510 l 2,64,65
EndSplineSet
EndChar

